<mxfile>
    <diagram id="LL3oo64tS7-jFl7xVmoT" name="第 1 页">
        <mxGraphModel dx="722" dy="628" grid="0" gridSize="10" guides="1" tooltips="1" connect="1" arrows="1" fold="1" page="1" pageScale="1" pageWidth="800" pageHeight="700" math="0" shadow="0">
            <root>
                <mxCell id="0"/>
                <mxCell id="1" parent="0"/>
                <mxCell id="2" value="" style="shape=image;verticalLabelPosition=bottom;labelBackgroundColor=#ffffff;verticalAlign=top;aspect=fixed;imageAspect=0;image=data:image/png,iVBORw0KGgoAAAANSUhEUgAAAIAAAACACAYAAADDPmHLAAAW1klEQVR4Xu1deXhb1ZX/nSc9yUnphM0OUKaUFr7EEqHAMJShxSZMoSxDOy0tMx1ogbasySSSHCeS7cRyEi9kkZwUmsIUKEyZUkrptHzdOyR2ClMoZSmRlHzdGUqJzb4klp70znxXXmLHequeFjt6f9rnnu3+dNdzzyEcYl8skbmRCNuCPg9NNj2eUKIgnOaSR65bdvK7hw8Vt0xxwmw2Op4YuRgkbQNwgrCzMAC4M+8D4k3BRm/rbPbHuG2zHgCbEmmfi0h0fNPkDp0OgHQURKMAOOCdG4KNnjtmMxBmLQBu/z3P25dWvgzgc4U60BQAADD4j8Tql4L+OY/MRiDMSgDEkul1BOrQ6zCzAJjgwfwTSOqNwcY5f5pNQJhVAIgnM18CIIZ7t1EnWQbAGEMi3HrcQjlwBVHOSMZM+P+sAEB/UrmAwaLjP2DW6XYBMM6foQZCvrotZuVVK92MBkAskfaTRFvBON+qg4sFQH6zQPRijnPXtfjqfmhVfrXQz0gAxBJ8pCQpm5hxrV1HOgGASbIHJPDS5T7vLrv6VKrdjANAPKV0gjlarMMcBsC4Ol9D+p3W4OlHvF6sfuVqP2MAEE9lriHGNgbqnHBOiQCQV00Fh1t83luc0LPUPKoeAP0p5WPMLBZbC5x0xjQAODSyTCwSGa8BfGPI733ASb2d5lW1AOjfnT6VVWkjwBc6bbTgV2oATNL5cRAFg43y/5bCjmJ5Vh0ANj77VoNL9q4n4LpijdNrX0YA5NUg4BuSLEeWnUwvlNIuq7yrCgD9SaWDweusGmGHvtwAmNCRORr0e7vs6FyKNlUBgP5k5osM6gf4sFIYWYhnxQAwqsx+MJYG/Z67ymWvlpyKAmBLMnuJCnUDAH+5HVFhAIyaS3iWmFoDPvln5bZ/XF5FABBPZs4g0DoGX1Ipw6sCABO9QA8iq64JLvKmyu2PsgIgnnznWJDcCcYN5Tb0YHlVBYADQNjkUd1dS/z0drn8UzYAOHWC55RjqhIAo8YxQw2W66Kp5ACIpzLXg+kWgA93qvOc4FPFABhfH+wBuC3Y6H3ICXvLvgjsT4x8nCVpLRgfLKUBdnlXPQDGDGPwDyUXRQMLPL+ya6teO8dHgP5dmb9nScTW8aWlULhYnkzY+qb6envU3zBtno3tzn4CqtpDgK9YOY63Z9zugRxd4qeXnOTtGAC2Prvv+JzsFkGVIiqnGr9vKTm1feWiut8bKRfbnbkRKgQQjjCiLf//qSPok7udkls0AB5gdv1lT7YTKq92SimH+exQc9Teskh+zCrfWELpIuI1VtuVgf7PBGlNwOe+t1hZRQEglszcTMBaAEcVq0gJ2qcY3B7yeb+rxbuhfeAc8b+h7mZNcNya4qMyrPSW+m7Cpv2D4FxXMRHLtgAQS6Y/SSKGvjoXeK8yoz3k93xVy6n14e0nkSRtAOOTeRrCd1lVVw73Lf6dVpvYb9KL4JZ6CPxPNjurdM0I90msdi331f3WqhBLANiczJztIupk5ousCioLPVE02ChrXrQcsepn82TJIwI1tA6iblfUzKrXbrngDU0gpJQLibkHwN+VxSZLQviWw+d4oteeSCNmm5kCwKbk/hNcLImXM9eYZVxmum2uN98KLzv7qDc1h/vIYBdgdj6ntUO9TVNfCR3EOJbKXj0KBD6uzLbqiyMaBnNX0Oe5zYxeugCIJtgzDxnR8REzzMpPQw9JyIX1hr76toElxNgIYI5F/fYzoXW4p1nXkbGUEh4bEUz9mCzqYJucGU9LLikaWOj+vh4TQ6XjST4WnH85e71tbZxuSHiU1Vwk5J+zU3ue3/EZIhI3je8rUvyfmHnlcN9539bi80CCPS9IykZiLCtSlnPNGc8wpGjI7/5eUQAYb7wlpZyjjkbjXuCclpY5/Q4SR4ILvQ9qtTymbcdilakPwFmWues3eEIiDr/Uc952LbJ4av/7APcGMH/GYdmm2THwmiQhGljo2WqmkeEIcDCTzYn0VdLoK9qTzAhwhIbxNkONhPx1t2rxm79qYJHqQjcxLnNEpgYTJjws5dC+95bm57SBoPwDmMXo85FS6jKNN1HsjTp3e7TYRWD8uf3nBRfN2aGnfDyprAbyI4JUSiMJvD7g82oeMh298qfHkcu7loAvllKPg3kzcCfn0mte3nDhi1pyN6fSl0v5izDzT9bs2cAP5bJoX3Gqd7cmKDX6tOAIIABAbtc2Bn1BL5p105NvHu2a491Yot3B1+Z65RU3fIAKbsl80YTnlZHhKFd4gUrMvUfV1UeTUX9Gy/n9qcxSZgggzLXXwZqtfs2sdoT8dT/WG40IfBdnczcV+lFrAgAuV36uY/B33SOZG5adoZ02JbYncxblIIa85qINZHqYXLnWwMK6PVq8GiI7QkB+npeLlucMAwXg8FDveTHdUTOR7nFoR/UyM1brHXZtfeqt+myd53YCjR525XKLbQHggEHUHfTJum/u46n0ZzG6AHuvZb8yfkVEKwI+eVCrbX1k4GoC1gM43jL/8jR4gYGO4d7me7TEiaNlBcomMGydqRBRX6BR1t2Wx5PKeoDbp+hQPADy7DKQpC8EF7rv0/NnLJnuEDF/5nzOzzOjVe8FzdFtg5dKzOLO4QxzPCtO9ZRKtOblnqYfaGkijpbJjU0AmXr4QsD9Gc4EV/oP07wOju/OXglVFZHGnmlyHQJAni9zPpp1SfAU+VEtA+/cze9+i5UtOi940yC0Bhs9Io1LwW/+yu1ns8slYguq8+jZEGf0Y8rluvZuWPxLTSCMHi1vArCoEA0Bv8wBwRafR5NHfJfyYSa+jUgn+MZJAExS9JucybaGTpv7Fy0D44nMaSCIt30TSZqIuCfQ6J06RE1ikL+sIUnsMK409PHMILiPWY3qXTbFE5lrQGJEGL1ZZbD4pQdDPu/9muB5Zt97yOMWp5yfNXRDiQAwJpfXBX1e3XvzzbvSl7skutiTlVtvPpVeK6TwvPDOIzxQO4mw3NCgGUjAjC0ZSF1v9J1b0H5hUjylRFhVOeT3irWU5hdPptcCZD4Go7QAEIjFWy4Jy5cv9Nxtp28awjtWA9QFEs/oZvHHwlXcOdR3nsk10lRfbNmduTanYgsB77bkpVIDYJIyj6sqRVpOkTWPTCcr3hAZvCmf8IHQYMmgmU7MGAJRdKi3SeQ2Mvw271IWSxL3AviQIXEhgjICYFz8t0ByONhIumnV5kcGAzx6ojjPlmEzt9EbBIru7W3q1x3qU/w+sCKmg38pytQKAGB8fXBL0OcN6yl/fPSxI5V0Nsrgfy/KyBnSmEBflr3u6AvRc141mOf7AFrliFmVA8D0ZAxaBh3b/osz1VwuyoSqDCkvtiOI8QPJ5Yr+tfsjT5rhFU9m2AydKZqZAIBxQ+rbBq4ghrhxrL74fFPenkaUZELXcE+zpXQxsxYA89sG7tz7273X49tX6GbbrG8bWEUMsT5wJDGUvb4rqtUIE6LDPc36CaM+84Br/snz79jb0zzlRnPWAqA+MridwOcxEBnubdbd74r1QSaj9IKrKCLJDCYId3g8csRonq+PDIQJ6GXQjuHepsWTWc96AIwZ+xqYrhvqa/qOnl/nRx75EENaD9BHzfi/cjT8c4Lasbf3/Mf1dGgID14O4v/A2OujQxkA4356AkTXDfU0/UbfcQNXQqIuMJvOC1wWMBD9Hqo44GnWvShraBs8FZzv+CkhazUAHOil+zL71aWv9y/WzbbZEB7oBOUXipU+ORRne11Dfc26iZ8OD2w/3DNHEiFtBe83agCY9jOlzqHeJnEFrPnl1wdpRQRhXF2WX/l0Ifd4vHLIaJ5viAyuAVgXIDUAFO7BfUS4bm9P838Zrw9c4lbs3DIBYSch12o0z89vG/g3Zojh3jAUrAYA/Z57BqClQ71NmvEHonlDeOBKEMSuolQRQy+AETac5yODHwZYDPenmQVkDQAmPEVE31ayudCrGxbrZtscWx8UnVF8ikqsdg31LdbleeTK7cfLbleMbbwLqAHABADGSRjUM9zbpBlQIujG1gficUSxQSX3ebzyMqN5vj4y2E3gNgtmTMXXIXwOYNdnWTCWDPU165Z1Gz0/cG8B2OI1Kj1OyC43mucbwgPXgyDeDxrWKdIztDYC2IQBM1KAGhruW6wZGz+xPgD6QThaVxTjZQABo3m+Prz9IkCKEaHRpuq1EcAJx03i8X1XDuG/bmjWzbbZEN4eBUmFn36bmOePXTnQmHPlF5ofd1L/2gjgkDcJ2OryvivyYvTMfVosC6wPDOf546JPzs2l3+lllOYFcA0ADgFggg1hxVBP82aj8wPxf8N5vm2gBZyP2C3ZVwNAaVz7BwatGu5t0nxOrie2PjL4aQKLq9z3l0a9A1xrACithx+RchR5aUPTE2bEHLNy8CzVlQ/AtFyP0Az/QjQ1ANj1nIV2BLqbKRMZ6vno3kLNGtp+Pp/Y08tg2/UILahT2wXYdVbR7Qqs9ktyemhB0doIYMFZRZMWBIDO9rBogcYMagAw9pFzFDUATNosFXCryBAyniDCCa8fnJp9PCbQCd62eNQAUAPAwTd7uieEtlBmrVFtCrDmr+KoayNAbQSojQCjGDBMElXcT220dW0NYOzF2hRg7CPnKGpTQG0KqE0BtSlgSnxfbRcwaYCtnQM4N9uY5VRbA5j1lBN0tTVAbQ1QWwPU1gC1NUDtHODAfFJbBJZxEdgQHrgHhM87MZ3b4lGFawAw7h3qa57yyHXWJogQnVYfHjidgG4QLrbVicU0qqaAEMaPGGgf7mt++mCTZjUAxo1taBv8GJhFLdzy1eGrDgD8GkTtQz1NP9HC8owHAANPuyRqW75Q1n21IxzQ0DZ41RgQrNcasDoaVBYAz491/DeM1N6yW7kop7IoYn26Ea3h/8ubJo5eBHN70O/5uqFiBxGMVQMRI0LpMoNVBgAjooiDUVWRQv4azSRO3UUVqSwHAIgoB0Z7wCfrpkXrT+x/b8A/53k9cMyPDIhXOLoZRq2Ca4K+zAAgoG9vb7NulQ8zPulPKqtA6GZml2XbSw0AIoq/vtC9IkqkainXnxy5gEFxgPwAbvOwHF7ip7e16PMpZEeUjUz4gmWD9RqUCQDEuEuuk1v1npbfluDDMpTPBbwE4ASBgwFf3c+01I8yS4fvzm5i5qAln5QOAPxNwNMS9NFfNTt+Ny9Q1UyMQJdMp6F1QZ+sW2vgqMhjCyVSNjhWE7DEABC1BVWWV77Se45mGTfhh3hSWQvwtJz/DP6hJHlCgYWkWTgrX9EVmc0AGReLEMIcBwDhEVXFiha/Z9r2ZbyT+558dZ537mHihc1NBmjNMNRwyFcX16Orbx9oIjVfncziW/+DuJYOAI+zhJXD3c2aha+EJrHkSJAgiV/99No+U1Xdlt73diR85pGa1cw3JzKnSxJEESr9V0wOAiDBrK7Qq1WXNzKVDhOT6HzTH4FeUonDoUaPZtUtwazoN3vOA8DUG8RYKnO1xNTH4GNMO0WUjyGOhBr1K4jEEiMXEUniAauYXqd/DgDgFVbREjpFv3P6E+mrmEgoMt+KkZNpCUiqJIVDje6H9Xg0tO+8GaoqFpyHWZLlHADehiStGuo+9yt68mOp7GUSq31cXPLrvcS8IuD36m4fY7syV5ME8So6X3to4isOALwq6POKoVfz25JQ/lEl7nG0aDPjUXJTOLBA/oUuENoGohjNLm7ucwIAhK6hnmbdpFH9e5SPcJb7QPiwOcVMUT0hMbUt98v/o0cdT6ZXAvmytaOfLQAwYkG/p0VP0NZE2pcDukD0aVPq2yFifjhLaGv1eXdpNRelZF9Ov9IPsNF6AygKALTtaO9RAb1SsRuT6VPcDFEltHSFrJkfdAGdy/zepC4QEpnNIIQsA0B21z23tJFe0WL+lT/zESP7lChxaTJmaMi9h13Z9tAC7TJ1R0Z/ebw7k+4H43JNx9gBAOE7WY838Gr0bM0UdbE9+95DObc4xCpb5lImbK2bK0dvPqFwJTbhg3y10uzIItOlY41+pGKBJ4HWM8P6gYQRcxP/JyA+53C544bjSDMNzNFtg2dIzKIez/TsodYAsFMlCrzc0/SUlmq3v8hz97+urGfA2t7chK1mSIiQU8EdRgvFQrwsJVrOr2KBTmacaEax0tPQmqBP1i2/Vh/eeRFJ3A/mBRP6mAEA0R5WKTDcd67uPUY8qawG8mVtK/4R4Y8q0GW0i5qsqCkAxFLKhRJYdPw5FbdyugJvEyESaPSI1KyaX0PbwOfBECPCEQZrgNdACAz1NN+rx2+sJLzY5lrbgZTBgUR4TAV1hRrlnxqJMwUAwSSeyn4KrIpVb8Eat0aCyvD/51Xm9haDbVJDZGAFWD1sekxgPv38O0O9zbrJoDYn0ldJ+YsZGxXSy+AEAM+BpGiw0f2QGXGmATDOLJ7MLAHydXz0Ey6akV4ammcAqSPoc2tW7rYjNp7MXgqoonS96QTQduQU0UYkuIwGfR6RtdT0ZxkAgjMzU38qsw4g3Xy9prUoASExtpNEHcsb5ceKYb8lpZzDKq9nwpR6PsXwdL4tdwcaPauJyHKZOVsAGDdg83P7/lZyucVo4OxtnaMeoodyrK5eYbBfPljkpkTa5yJpHcCfclQdZ5ndpeay0ZZFc//PLtuiADAuNJbInEWi/CtR+eP7zFrOuAskd+jdWubXOuKWjZX1cPoK2qyeZuiYf8SgaMjvMZX2To+lIwA4AIT0JySiTnYihMmMI2zQEGPzvLlyx7Un0sjk5nf/keve2KeIoV735NOGSMeaEPC0ytwV8nu/5xRTRwEwaUS4cRQI1m69nDLKDJ+DcxY4GoBpRgELNPlb0nzHe75qoZkp0pIAYNKI0EVEusEeprQsAdFMAQAzrw35veYvuiz6qqQAELqIO4P0PqWv2ip/Vj0ACHd458phvTN+i31dkLzkAJgYDVLpRQSpG8yluyGz4JGqBQDRwwy1PdTofc6CObZJywaACSDsVi4ilcX5/Zm2tXagYRUC4EmWaHXIxBsKB8yfYFF2AIxL7k9mv8jIdQH0HicNMsuregDAfyG4OgM+951mdXeSrmIAGDdi7DZNHCZJThpmxKsKAKACFDW6zTSyo9j/VxwAwoBogj3zSBE3dcbRPMVaPNa+wgDY9gbLgaifMg6ZY5tNVQBgYjT4zcj74SYR6/7Pti0y2bAyAOD/RpZbgqfW/cGkmiUnqyoATCwUE8q5RCxqARcX/6/jvjID4HFmag355Z0l71GLAqoSAOM2bElm/1WFKh5QnGDRLkPyMgHgzxKk8HKf+35DhSpEUNUAmJgaEiMrQJIIwjB6SWPajSUGQAastgf9dSWtNGbaWB3CGQGAAzuGjHg6FnDC8BICoD/o81QkONSOX2YUAISB237HDWkle6udCt2THeQ0AERlc6/sXnrTSTRkpyMq1WbGAWDSaHAGCFvB9l7dOAYAwqNgLAv6PJph45XqXDNyZywAJnYMqexlBFU8BLFU3LFoABD+wJACRu8XzXRCJWlmPAAmdgy7MzeqKmIA5phxaBEA2C9JCC1f6PzdvBm9naaZNQA4MDWk15sJVrUHAO4O+rwdTndCJfnNOgAIZ258lt/l9ii3gnGNlnMtAYDw9WxGXtr6QXqnkp1VCtmzEgDjjup/dmQBy5J4MfTRg51nEgA/J0VdGvhgnWaqllJ0Sjl5zmoAHDhIUs4HsQBC4/jfDACQAtPSoF9+pJydUQlZhwQAJm0dPwfQrQD/TWEA0JsALw36PP9Zic6ohMxDCgAHRoR0JOj3TslfFE9M/1slOqTcMg9JAJTbydUs7/8B948hNXaE0z0AAAAASUVORK5CYII=;" vertex="1" parent="1">
                    <mxGeometry x="284" y="61" width="80" height="80" as="geometry"/>
                </mxCell>
                <mxCell id="3" value="webpack" style="text;html=1;align=center;verticalAlign=middle;resizable=0;points=[];autosize=1;fillColor=#dae8fc;strokeColor=#6c8ebf;" vertex="1" parent="1">
                    <mxGeometry x="295.5" y="147" width="57" height="18" as="geometry"/>
                </mxCell>
                <mxCell id="4" value="仅负责模块依赖分析和打包" style="text;html=1;align=center;verticalAlign=middle;resizable=0;points=[];autosize=1;" vertex="1" parent="1">
                    <mxGeometry x="254" y="37" width="154" height="18" as="geometry"/>
                </mxCell>
                <mxCell id="5" value="" style="shape=image;verticalLabelPosition=bottom;labelBackgroundColor=#ffffff;verticalAlign=top;aspect=fixed;imageAspect=0;image=data:image/png,iVBORw0KGgoAAAANSUhEUgAAASwAAACICAYAAABdh9Y5AAA0GElEQVR42u1dCZxN1R+/zJgxDGMd+zJmLGNWZp95776JCq0kKkmL0qJFiyj+ogVFhUqlJBESRVQkWUOM3RjmvTeIkC3rrGbu/3zvPXc8b95d3jZLne/ncz6it5x37jm/81u/P45jYGBgYGBgYGBgYGBgYGBgYGBgYGBgYGBgYGBgYGBgYGBgYGBgYGBgYGBgYGBgYGBgYGBgYGBgYGBgYGBgYGBgYGBgYGBgYGBgYGBgYGBgYGBgYGBgYGBgYGBgYLgG4VB6zVxzestCM98l35Les8BsHJhvNj5fYDG+VWDmZxZY+KXkz7n5Vv6jQotxWqGFf5ytGgMDg+tCR+CqC0cM9eWRa+FbFVrT4/Mtpl5EwAzKN5teIEJnIhFGXxRY+R+IENpEBJKF/HmRDEFtXNpvONKkoW938jU8Gf3oSGKrznBtA2ZG+LFVYHCE/Jy0jvlWw22FFtOQAqvpPmg/ZPxBBFEO0YDWECFzTEsIOTPyzbyw95f4gvOZhov/7DMcNyXVu4FMozl7Ev/BW7HAkh5ZaDU9LKrfFv4bMraTcYFulkIyzpBhJWMHuSl/IzfmZ2RjjiDjLrxXEPr5sJX8915aBdl8eIHF1Ed85tCQLMa38y38RrIf8j0plPSMM7vTTv34ZfTG1Qti5rOn8x/xFRRZ0w1ELX+FbIDlZJzzwEaCQPum0MwPvpzTvQlb5Sq0H8y9/AuzDUlEgxlKtKXHCs3GR8mznFRgNi0jf2aTUaSs9RiLj2ek5u9eEV/gDeF0Kcso/LYgRvhhZqTw+3ddhFnvdhIa1PMVxr3QVnhzeMhJMv2u7An+C3HlsLEZNiPdhLlevgWxeWfnWQ2tK/u65B3gQwrN6cn/xT1RmJ0em28xziBa02U9zzXrt8SL33zU+fL44SElfXo2Kib/LSyc3ln4kgiRfasSPLJ3XhnaWrite0MhuUtdoXWLmkJN/+pC/SBfAXJ1/aJY/L2Y/PfZs3vSjlg3JJ3+YFzYeHa6/yUoyDFGk00wSvQrWPgSbwqpC5kGRz6HvEKr8d3KqnEJa9J9yTw3k83/P/LXgHL73uNxtcRnQ8xpIjCGS9qMcRwc0tBQyZ+3FxxK7+QN/yG+FxG4Qotxle2zOvpH8vm8bPVnfGxrirD3lwSvmntXDhqFX+ZG55KpriNjARlT1yyIWZ+5KmH6X1tTfiZ/32Jel3QzMUfXz3m/0/lxL7b9kvxbIDvtVRR5h9Lbkgc/mgiprPL0K+xaES+8OKSVENGhttA1MlC4v3cT4YPXw67m/J50kgiuyziMEBCVSqBL/johN9tYsmZB7HPe1G6JQLq70MJPpb7BqzrXFabYQXI4PyZz7S3svrm2u3MhJlwPXCAREVzgwLuCx+J7/tqWIjx4d1Phz83J5bZfyCUhZK9NFE5uT4WAEiaObCc83K8ptKvckFb+k8lUe4vCPSOuBvn9p/GeWe+GDyP/NBc+1A/Ghj2VnlzvcLMmfmfIvxnYya9KPogjhvqI1ODW8bYmpTUu7jcULPksYl9qfNCvZGoWTC8uqs6lw5uSjudm8+txeCuFYDenp5P5FttGoK5kGYZ45HkIXLVCiyEOWhPRonZ6LEqGg2vlRwqZ6e5oFI3IeJiYWSN+nRez2t05mdclCsQ0u04QrfkmVtizMl44tzdN+OOHrqLf6d3RocJX73cSX/P8oy2Fe24PFgbf00wwJgSJ5h4dl8nIJGM1J6UuEAHL34H3/LkludjHp9oZYoZOJgLrZFAdn8UdQwL6k5d8TUYdJgWqgg/CakogmtSiiojU6DpgVn5d1uqEx4ICffq3bF7z98sHjCVEoB3Ly+nWpkIFfFb3hmR+R+3n+96YsCzyv+u5KqSKLMY0JDU6+mx3TCQ4nGe927HktwWxF/7Zm3aRHOKTxNR+wlWNVTiaEgBT2EMRO4E8V3GeorZK/vxiUse8H2ZGndqwODYf/2/lnGhh9nudhMWfRghTx4YJwwa3vPr0Q81X3HtH8OttmgcMIFMaREYEGWUizURAL4RjHxfKwukR8L3mXc4ynps4MuRMRe8jBr0bDmFmyZwpqoyCysE4QQTrBLKpRVPo7x2pRz1h3rhuCpq+dzTPvr0aC/TwOOW0J4fqNZr86B3BTw7rT19GCbff2FAgWoYQ1jbgxI9fRi0n/74jP9vQzunfj9QEN+eEiN2qeTGiwDq+LaVg9LNtcnf8FCds+r6LMHNSx8Ipr4Vtvr93kzXtQwI2+fhw6zkpyRMa7E+YAhnzyPiMjGlkRDnc54fS6xGt8pNTO9PKXMgnM1LzyEt6kuHPJEJl1qrMfBfywPZ463Dk0pvS2+P372KXVZBW+qTSnGLCAyGwUnX5gqz8LRVhgl/abzi+8OPOS9q08P928ujQvy5mGc/rjXKKmqXVNJ58ziVXvx9+riWfRYppBXf1bCS0ax0grlvn9rX3+/pyo8nXXLQx8Q6T8SMZ75HxNBm3kNFRr5BBVJvsx8OO5rFweucS8pK1TCJUVq1KVONNr9MkTo8dgH/2GkQfQ//bGoubr05tH+Hn2VHCB6+3F30Nd9zUUIjsWFvMfakb6FPqbwhu5Cd0S6svTBsXBr+VK74u4aG7miaUr2aVHqmU0gEtpnaA+Psaqz4HcuuT5zCrEmit+URj/VN8hvsMly4fSm+qrlUZ+5LX/uPKd53elSZ8PyNSMCXXE6pXLxVGSC9YQsZbZEwh41uqLQ2hQr+u+5cL/+GelfG7Hc3phcdaClRDY6hsQIQI5Q6e3vRHNiULbVvWlDdgPhkb6W34If033GJH6U32ORkTyUAKwAgyRtINuik+uk4xHKzwtUAAOvoumDRlcm6eap1RbgL/QFodImgOKK3Fod+T8HvPaWlV7vinkDaAy2DEk63FkbMxSfTvfPhGe+G5R1oKj97bTOh3a2PhvjuDhfEvhwgbFnfR/dnkczZrRSp3/hj3nDPzXT4rCuanrVMc6QZzyehLRjtvPi8x2k1M7dO70/JUtOFHmHSoRECtFnk4K7x1S0Otp5vwBTLq23x1EBmRnP7cpLCZ73Q8Gh1eW2gfEiAcXJtY5ruefbhFydZlXa/7t2mvh+GW9nqOFhzixBT6VuPAYy22KPqpFPxeesepnalCeFgt28P/FzWZBJvL4RgZZjIgyBEAuPr0Qy2E/asTRIFq+3l/70gVbNcTqQnk9dFq68An1XtD73wR5aMa5yky3qXCoWX5XdL8qJM7Un90NDekQ9A168CkRGXRqszGu8kNswVZyMRcKfFGyUPTYD889AmemO/3X0aG1q3tgwMYnhYftMbeF3bsjxRh0ScR15lSMDPI6+/2uuAHQ4DGerz9SjvMZU4ZM9zMj/VEZcD7Y0Lx+YVkIDO7Pf2KzvT3xyhcDoE+PlyfFx5rdR7Z3nB025qwTz7QvNj2O9q3C5inriEah+md742G+rKwalcR+x8Jteu+jXVoDr73P3EtDzApUZl8VlIxceygvk2zruhwhGf9liCGjfVuyM/f6YiHXkSGJ0PDz1KHavV9qxLO2n/n6gUxmbZ/x3zJa0d5cx2LckxGPdFU+PComXtNs7IaWheZjaYzO1M3qUXwLOuTNAMZ8A+Sj/zYxZ9hJOO1e25rPN/2c7cs7XqZfHdpHSjR4A4r7icpq/+Q1jpAc1v1dbSswQyooMAI0nUmXtxvcPjc0lPqYW5vMylRybDo44gpednGQjUtCXVccIZWq8YJX0zuqFtgwXzjpNIHr+DSfmOm1hyQk0NeOtlbc4AjmnzPcT3rQQVKd3tTcsOi2BkQSmXKVIjGOPb5tkJomwDxxlf7bNTcUZMv3MWfUp2MtjRCbP/5pdp3YC2ffBUT6x6tNTiRkSq8Nqyt0OuGBpjvJjKqVZDP9u0LmYbjSlFKpHZwOqO5DOWhXZmT6orcQip1ezjsrZr7yzdh3qRRoTv0CqsVX5XeoF4hPyuy8Kl6wv3Dn2iFOQz3yhoSjSLfwq/Vsx7HM1Ig8CFQSpNGL1lSg8n/K+NDgaMcfqVaAdXFNXywX9NzjgSa7UjpWhevXe7yb8mM8EOSJNE83lPzkZGXnlYRWFu11uHx+5sLMZ1rF5C1+IG85Y4K2fsZcTWQY3g5y+hQu5o8KlT2/1VnkqISQFSHFZIQYRpOHRcmNJN8T7KPYWSLFlzDQgv/t16B1TNdvEE3enzuZtNTlLJmt555UDPsXi85bSc5Ew2z9Ynk55hustfMEP0EkwDYA+ja74T/6coB4xNqnw2GAfr6bu4FX8Q9oahtI6JIXrrL4QWSzfNaa7BtWZysubxBxpiKEgggBCQXgCLxX1xUHa9q5Qy6fVZcNaIRvESpWco8KGQVR3WqLW/+E5wU2SvNFj+7J22lnsO5e2W8aD6St9zlcSEhJSXqNktpyDzN8/MAqaD+QAVMOzjcBeuNQRKJIV9sb9K1bFaqzaLW7TbZXEKukNpn0+z5nW6u6xidTv2ljgM4IqWQ6vtRrP7ovc2godWqyHNA5rJAaY5giqDPoAuTGBUoqApzDDEiw4LFsa+EaiJyrhSieoH2Dnq5ol1rINeHvMXKOajbcut3SPV5uilxEYanZlhDD9/QHWyYUnWNW7s1FG40NHhDYtIUneQXZQf0gDuD5bX/hwwwOvjamp0oxMVrD28qy3SA9A6qtTzgstaaY0zUkyyMrHOqGdm9X9xbqsIb6RHIx+vToxHeX2EcZrgw1CKyo55pg9+4n0mNivZXWfhtjh7Qok8ihMYNa8gHBj6QMIeH1GLqpedggs8ooKZo0jzrhZvxO2eEBI0QHvToWu6+uTb57L3OphzMmNiBmHxpKAHZ9uu86FV+NaqZb+nWQGjRtFSrQhlRU0fmC96f8WNc0UYHSZ7wdXFSbpWfG5eAVWv+oGihpmpPB9rmQq3333mzKOyyOSkqWGFNHVDQrRaNpYGRUUxqVITqK5HrLSmwmN7JyzZePLfHcHX4E61OoaodpRAP9WsqH5azZNyjR42Gj+t/z7ZR3JiIAFFNIbC8NpqG/2q2R9dUJVChVpr0ytDWReRAFBHT8DvyMevpLf4kGTvIeFRl3ZfIlCqO0gNQ5sRJVQHOC6ujKQHgfdLzG954KUTO0q953fwOpXeyN28d+a6oi+DBCj8TChc3xrpvY+VIawiTHuXuWEy/kTyE8yByI0Im37wu8UTH0Fq4ibF5sqtXF+u08IBWcBpdQcCFBcoNWhAqmpBKtXuo/yNveceTvwV5Skp+N7VcH6oR3OOxNdWRHOpooCxmUN+mBQP7NLHQNZ+nR6AjaqdGxDdhhJiIeom7voJAZ/BCTF/YpGf+MDtpRvoHDgTAbK3395FMSbOtqVsh2pVkuirO84n7m3slUMSgdbCkcpvdG7/rehfU3B9mRl6oVbP6LJwBMobSl6VS9bya9kFFo8lrtWpqZg8nZVq38qBzO4o2n3BKSEALpJpeTY+sKZpu6mfxLONsJh+B9UcB73ROZ+6RWoABHFDUST/NRZ9Vnp65ZyyPk83W8/YmK2hntBJmt/9Yql09VNHnAo1R1fING9YTXSNPMAlS3movUdNnf9ipw8LpEf/8+GXUIeqUzeGk8gxnHfbVyQM16+FTAuMC1R48EigQC7JdqP4/sCZR9qNN89R6uspCgEGLv2+lmqwuYYUuM/kW/tSFTEMeggcKpSNXOSfLWtDJSG96Ctk7MnsGakHvKCvE+U91OuotFa1doYsTMefPKs3z248j5IBTAyZBKgbDwkMD7vHxESvfkf/jUlGpXmc7Njc1d+I9IKyq0469TgsHJF1SwQke7kZuz0Uyh7PVypWQDqLB0FDs7EFAC3Xp5jeUIGHTPoEzsJYoSL51zn9jvFcvc+wnEzoINXyryXl4Zbiw0O5d67NAtkepYh5xf0/088GzcLXZCNlPA3QEBRYzsVHxQLjbZbYCR5nYjsbNvJgous4zjm3jOFeElY35Usx5oEZNTCkw87+o8W11iQgURj3TWtHpPHdqOOaz14V133zloDEXARIHxHL4TJDYBevVLmgGe4keTXnkU63lywcR1lDH5hU/Rc/zIPO/mJdtnC61jrcZFn4S1dBmS1FG489Slx1TBk0KtoosslI/S/v1PYILDeR7TpiDa9TKhfz9RI28NxMXVdkXZu4WKm+WtQtjBTV1mvop3HrgkhmoP3vcdoADKqiOr2y+eCRhlXag0XLSCrtXxG9Qes1Tg5o7XZBcaDZ2FQMH21MLiUlYovCZX+r7DYY48p5MPWsIAXzvHaU5YRs4hfw1WlJ0pQKbkBSR571y2ReRywbd3eQ2HRdgZzVhDYJIqpH7sVNfhYF+f/JDBV+SUikPrTeEFuFyqYXoY3CRZXPmpI6y+YIs6hSP/HapM7Hid349TdSchBo1qn8MX5PS66CBkdcNdE7D5GfK5qajz+wUWkuVFx7mEzr20Oeniz0WLdTio+vIwgoF6/4q85tYEYIKVEGP9G8qavOJMXWtfFL9oe1a+rfX3sfqlQJoqEpe9hE78VUYYiNO2l5+wYedFR/26vkxsgnmKksAWDbb6ymcVcr7otodwubtPSKspCiaYhoFhDd1Ru84uinFpNbthQY82upe96MpDZCJ/dfWlItHt5TNbF/6eaQsVMpkiyM6TLTCyXrZI+QxaVSonAICJ/7raoEB6tO7UBECC4mzMyZ2KGlYvwaIB9HwFNxi73MqpT4SCyx/US1HjK5nMjv1VVm7Qst5lLdsTS6GUNBIFP3ZVRMw32J82hXzAprdw9cSX0Hd29gjglo6kIfUWCxiO4ta0wUywpTKnWwCEUeddA6PpGycDv1iafFB1+UKiRxUVv4uIqh+daVZxfwPO8treECPdip176lYrvlTu9IWI4KsT1M2PaX2WQP7iCknWezEV3HoZUOgRGcvOvv5IpWJhXepySY0F+rkx/ie82AxLTkIX2nRo9Dv7U/X6RuNujTdfGAS7YnE5/7r/BiHfO1UY+tOebhGu8r/DrobNAFBfWJ4WK0/9KyhqK2opAZ4eyD3DA1Ux70QUvTL3Jg++p6naZ/S5+G3+9Wo5pUyMoZyBGXQLA1NKz3w8/sMcr5TV91OdZQLST3rXDIrwLPVoV1p0wLkWfl4UFj1VtNSbLSRj2wEzHENYf6ME99/r1YE763hIcS8Mc13NvPfUaLk7Pc6FR9cm1jy55bkM9AsdWhXI7zsTBfTUtDJGc1GQBaJBGAEAuBfo9n28oDmOlT1UpQ6byt+38sSVxoqBYLYqa/a2tU38i0PZ6zSA3/9xdK6QR9NH5XIW+56I1DU0j1wVxPbzioevRXRUVmtih9F3Y0biJnQ22WHNNEQH1TTBugB001TIvLrV5D2cnhTUiZI/NR8mjJrhLsDpV3I8wJLxaC+TcTmrbSkS2kgy34bJ7WMH0ZGrJ4ADxXsiqY92sqRl01lJ74KgyYEakaWUDxNHc8zlCJVZMP0cdW3Yp8nY8PThaaZHi1OLcjmw7VMHVpInScHFyiLwhW1rsXUz6VLAywym1K0tA/UJHpTaFk2JP2keOmY+aGuVBzAfAfHFLTT0URbSo2ra9t3EJnlKP4Gi8MqTuo/CI0UhIvpnNRa3qXkX6m3o3L5kU1me0t26quydmXmJ4hkfl9HFzsqCZHHpxPEusHLnF1SqpijYza9Sl7zp6cOEk1kRCTyBc7DHOC09Gi3Vq+/HqYGwhsvtZ1PtMXPacLjXq3M/7ataq5xQqtd4E1hhCAF5qRWC4qx8+f4sQ5NeZV+i7a+xReHtBJeeryV2IpNQVs6TaN7aCtfx9tBI6WB5r3kZQvZia/CoKkMZ+QbyFHSojyGDBBJ+j65Fo1JTy6wmuboLf3QMyAUUTwLv0ZM5zrvemVjq7SVtw19j3855Pzlg/zI/Gx+0t87U616tEbUAYLsT1OrtfCt9HTd0eMDQjNZdCv66M32Yr3hV+93En1C8H8hjwkt4JXeD7/R+cy04rdfbnUde4fe8iwqBDD+JuNPTqIZRhLvU2TcTEaLctnHkoDN0PBdCVRoMlRVEPPtcWdydwb0bjJEovtV3hzuDOR/GROD8hDROrI5+S9EqTyrTYr1eue0zBocfBDYOTN3tN3q2K4WaKZByVJXw9n+tjvrBPPziYHNZZ+Mw4HOO59P6qh6mdyQWk8UwhEdas+zm9/PWnNY9kVpfpjMSFqtovaxmvkK2iH0XyQvg/nry059VdWupLKYzIrOsVEbhzYmZSDvyIMRwTxvzXXY4Jay+XO/6rqDwdSJVAFoSkigBG8+cuDsOj3vok5pNE9FXlp9GiBAPSDylha+82pokYqGVALutIb1fS+UrpPEVKGpTaINHCflw1V4p5kCS3qk0jwpaSV8kTXZqa/CyDcbezjDoImweEUILcuGJLcq6gut6fHUdC321hxpL0QM+LD83DVJZXMPrBDw50V0qIUDt4d+x3FOyvbWRR20d2W8IuHe5iVdhQv7DDDnzpTuCyv/kdbcNn3fRf69t1aGvawWwOjcXhTwY9mJr+rOdgv/k94D+erTrRXr3MpjZK9LnOiUkEKpjdX0rcgw4EbiIxzW1g3qHZiRm0bTH1ZrmRyiVmvms9Sao6LAmk+qV9qjkLuWg4QcNN4ZjYbmjZ1QbRn2bZcM8tIMm0jbJa116XerGEHdV5FmoF3gaKyjeSJRtl3rmgUcK3Ku4sJKp9pfWQYEx/7ViQ4znXHIYGaV/l1qwDGamFLnXImswQSDDw1aE6heHHWuua5VmtSCHYdCM1xOtJdblD4HgpFSnqC+D2H/RZwU8u/ssnZpNj2g9Ztp6c90ydnOv6j1eszTV8q+f6hyuDaQTuM4+z8hpo5strZjp75qm4PTK1IAQSjAt3DP7cGi6aP1Wuo8LTieESfm6Nj6tfIsphtQj0epYbY7G32Dcx0OZETU0HgBqR3n9qYJP82OKpk8OvTAnCmdVMP7414Qk2m/0xfkUOZooiVA8IHV88hBNvfyV6uRtClkx+DFg2/lc7TWCykM1CytFFqLUkRzy9Ku8m+LYie+KjvbUexr5S97SxCh9uvZh1sIvXs0Erql1ReSYusKXSMDxbIVpEaAiwhZ5HjtnpXxOX9uTi7SEiio0aO1YCfEPoVWficZK7UOpNaAmYtUCmhRvy2IEcYMa3u+3y2NF9XwrQaeevRZtD52XzNVTQ2/j7zuZV1mqrZ2NbK8LiVENWlRN3xjMj21pi+TRibHVCLXhsPazvuk3o/72Imv8r4r08sed4yvTxI7HdOuy7bsleuoabOQDnTsyfGrUa0YjRpO70ot1CMEcbi8YWZCs3p+cMscMm+YRKCWRlFwFv1vtOJqr+QfwSDCVs7ijtZxsBbr0K7cbpWG3Do93Ou0aQfGzVranzyQ68VJ2eLBFb6Prca+tt2d7GmzKV/aYHbiq7J2BWoS0M26eMiPEE1ETkSEnwf1YTek1rMtvYBzGOUWWsmTCME/36qZ/yEtH5FYkP1zXKFsGnpigACQkuLJfelQt4ZmmhFlD4Zy09BPpOz/w5rajtTVqFhDuxrh7vPNO5TeVtQ+NX7/8llR8jP7RvyNUj9LzYuDRtxmVYq9nBFX4+T2tOeVghd1avsg+slSGaq0dmXm+7tz0EEwRw77P717Nt5DHa8YV6hGchPnfE5OwL5VCcfL038GYUXnjdwjRB9ba2hGivO7rXtDXZ168i2mzzQqCNzWrvKsxu5EszqtJ+mUNmOFYz+IBgM+13rfT9eajnSpJNu5xomM1ANKAjm4gd8kduKrvDnI/+4sDxU0quceaSnEhAfaalKg6ADvE0odart8Sx5Mb+RMaQ/mgoGOvegkgyxmlKI402GnUf3SFARNihHKjKqYzkBTD25S+4wrB9KaK/1GmNKUn8kt7Yr2kdQMNqBJBO3Fd1bWJukzyNV6b68bPNd0xDOXr8jb7pDzil4kizgPdyNnKEeoOX1tx/iXQ4Se6Q2EkFY1bQWUfCOjlhAZ1AGecQw711kZwmrquLCLzzzYYu/6b2MvI7FyzHNtxNwlCBCtlAUawodGGKlrzVTYK7+bESFraX7ql4RyGQ7Vrk65erDQep4mxWquHdaqXl1fuftO4rWDLxauq74389cEeS/cVWkElkLzEuQM9unRCIm2w9ipr9rm4Nd6MpgpXzr8Mqi9QjErmh94nJKD5s8c1CusoOY/N7hF0ZABzQ8SLek3qpVkQpAmxtZZjn5+OsjbnHLEqrU8G3xPs1IfkOJvtN4YpERcaKNdveySsJe6MG/Xs3bIJ6N+MmS0p9r6gcSoK11fjU5AhzgPkie6tXekXDuHjW4RoW4W7I+uRc0qdo7GxnkWvpun62H/E8izGlrr4by6pVsDObrn9Y1ZaOYHO+M7o+YXtCO0f3+Tk5p1DvHz46Lzso3rdDqZ5+recBKTRZ5ShLFpsJ9mdxyZr92T2hUCJ/kW/iU9vPggFXz6oRayoMYlFH79JWbqR03lol/mRiumMlAetJcqkXY1ytFckT834qnWufQy84qgAOkhopOFOYYYMPUiD0wsvpZ6a86m0VZcxNuxx9VIEhmUhIOOJpioK6Pa1UBvz4fekMf0Cix6w4PptHmZ32blH1Fn1kwWGjesITdd0C0cyAa8U62bC3lJEafS3VlqY+a4LMZV7Yr2HNyhq5xpbaJInsddq3Fs4mBfgGxRGE60z9XzY646+hz4COlFUa8y7GUloj7k64GTK7CWz0lOowBdD0QKICt/P23/9qaYliKVVRWJeYxSku0C5LvhAim0mIZY1ic/NGFkSL8GQT53R3SqPaFBkC86db9rq3GLloXZeDeTSkoPOKt7Qz2Jord2a1gu2hUl0FuqV1iB24k2Yhhn/1kSeaByrSDyt1CXx0nV+jHOzFPsUKxOMLjWGf+XbS7ZY/eVale6AhYoPaI9B3Vl8SMZlmpFSNl4h3NQ40hTLcDWUALO/Nxs/qpKh++5XtkL5HdBW4HjHyauaObmGKMhmNH+TMmVQDSaPAVG0QtUQHRQ2X/VoPWgPK0wOz1WvPAkP95omoS6VSnaeuj3pPXfzYhYOm1c+/VfTOq0fennkSdHPNnaMm1c2Cky/lnxVfQV64akXLKmxVLqT+pO8tw/oFUYKB/ahGYimMfwJ1uawEHPJFQZs8Q0xgnt6oFyEJ4L9QorONIjOohUyUccHW4irOaqvZ92scF4wql5Sr4dxQx3St/8grIGKZbFHLU1q3Cg8N/mdYm6tSscTmJiPKTE5mrP2YVEVnrxyDlxPRQFKm2aiw7aA/s0uapkUtL+hT20tBFQSIumERpXQACY+a+l4nPTLrs29OcVnxnRYPItxuFo3Iou5A7cCF2wJqd3pWY74jGbOi4sIz/HdJMkhIwDxb2PPQLufFE7EnncjupxjxBBU3Rmd2rBL3OixW7cW5dJjTIuZRmKyb7Mn/Vep8Ur5kQvXbcwdsmxP1J2kLXKLWtOpxWuXhD9/oltyV8QYffFxsWxO+Kj68ym5ip6ajbi3Iiy//u0Kynr+VRl0K4Ksw1JzraoQtdfqiWUoTEhh+NmtfeunBMt+60WODtXtc+GqUUFgmITV9p78Tqyu50/xzulXeWbTbcr0TJD68QzQ72c/G+LP42QUzZkjai+mh9G1kwRASQHLlepccO8aeEFednGj0Xzx8KvpRxqR6nwOacn90ux2sBsLDavTzq7/MuorMH3Nf3N17caTKiZdP6LZBcAtHKaYpJP1vaZy1nGfe7m4xHBU7j9p7gzq+fFnPt6WnghOnt/8HpYMfLUsJZ4zhDY6GXgqRzAc3vTchsE1XjU5pwhBzCUSSqFg1NR2hXl23aKSnnyqFD58E1RcIhb1ZpYNG/iL3eHruuCU/dNpc9+f4w4r/0avqu/7A8+7R5TRKN1w5XeLzly+Y1KpUBoJhvZsbawb1VCCU3XKEGeHH2GSEDtq0Mg31ERRe8QBtBSkEc39MEWYqQVJV1vDQ8BO0bxwumdD1s2JK3Iyxb9m4eIkFpHa0Z3gAX13J60peS9ZzzFee+Nki/7zktECyv66I32x+7v3eQM2ZNg4vi7skRbK5d2JXUIztGpXWV7YxFhGhGhOcPZB/3lu51kvxX8RH5lBYo6xTAKryEnyUhwUdBvUPpsFHSTl7yt+F4r/5y9kJHLj154rJSVtIx2hagTec1yJU3nzZdCRKfylNfChFIfydaUi4kShQrGek4HhzrYOfXUDVamsfSzyOmZqxMPE+1kPioVKtv8cEFCGCM3D40/YGbjOeG5DJCKsOVk643edrtUYd8VP8AJ7WqQp79fbB/mQt+9GRM7yKYcipAbKhxsRefzx+M7yBvkFVfmfTmnexOluj/4jGhRbZpDAY1EToVSHmTmU0f4WHu/DPn/3ynxk6FdVlxUHTGhlwiuYpsGs2cpVzm6C43nNMgD8w7wIURQraqsQgnaDvxEaKb69ivtxAH6IST7IuG1WSN/+AytxDxdW57zQq3nok8ixH2FSwM8aZjj9LfaC88/2lJ48O6mok8zpWtdwZAQJHQMrSUE1fFBJQGqAmDiIv0GUcHqTCqpREKos1P1YdASBo9rV0Vmo6nQwv/t7OZAHz4qrEAL0tRhhFFFCBIzSW5mutbVDaLWLorWISqq9GqZ+9jsnNQmrZG0RqYU8oyW2Qqqs7vTruKmli8TUPKMeLI1SqRKbDo4X33m4RYl9KKBL6ynHl+mO0Xvcl/KPSvjRVPKG3TZNpqiPK7SqN8WTuIbSw0M9L2BCKxZegrhYY5hDZHhD40HQgfPD70SwY3/ytDWYrch0AqhggJ5aI642ZBzhxK1Nd/ElHwyvsNFIqQO9jDV30m03bUB/tXgZ/uFjKVkvEcDKUhMfoyMV8kw0L3C/FTqJk16T60HCoetN7SrfKtxmCstrCaMaCfPB40VGjvrk8MhAu8Wedk5Mlq5rJmqZLdTAT9DSSgodUqGSdeksZ/QMKjGdJrXs92uC3MBDhac8yDVA5cTWrVv/zGuhDIlFBFhfIYIvZLWLWrKB3odp7ONFtIHrhw0vLZrZfw/zj4XHHT4zVCuBXYKRDnh9PdEizJoL0RTlBtFYLxGhokGDALs3QFXDhub5Zn5mUSwF8D0Apngkw80Fx69t9l1A2a7z7Xi/OsGIrTkWVyJaF/ryphhbQvlYAgui0O/J+eB6QFaFLkUhJuM9YVWzf2xL/eS935Pxkq67oj0TadCKY5Tycdj0KUlaPsobLQrj3SlEVMWXGgOitSF+67Z+RlKD592qL6gwYTpVu85ITM9UCk4cHZPmhzi76kgTIcrdv/5PUlYvSCmhAieQjvHb8nahbFiRBN/DurbNO+VoW3WrFsYc5G8toRqCqce6d+0yObQoZXYSy48t9Txw0OuetN8ghBCdA0kjvM+CBe1Q0R64VxHD0MkssIPR01j+/Gzzt9xK9VUxeRdYn6duplvcJyYY8fu6tXoxBMDm58i2tOZyaPb7Vo6M3JuL75ht7p1ayRQwRK6fVlXRF9HndqR+syfm5PvGXJfs/c7tAswE83+iN18YGrn0HmB1eNhTmKqYJnrHhVWOoqcPa1dwV+mJ33CfuC2pqyXArX3A5U1H9P3Sp8DdZ6akl+48ztEumWF75g7NVzOtvdz4Ltq4Eyzi2N/JJcgOgZTBT0QB/QOLl42K2ofbnkb/qmSVV/HXKCJr+Dr+pKMJHcuGPKZB12NqJHDfXXrsrhcaFzQQFBkPKhvEzGxFLlyNikV9ocezmbUfB6gTmdoKqj1QyLw0zSq6SxvfQgZT5LRRmpKa+pTZE03IBnUJuHUj2qgKHSvYff+B6nf72065tNoNM7DHfhcjnFplZOzXYXZ0tPaVV5OtzbOdN+xz5Oim7yYOsirqQirPmoRmhZNS1MYAt1cu1FK33P3LWKnmK8cXhJm/n2l90HbgDNZ/js0KThoYbIMG9zy1JalXcQE1TO70i7tX52YsXB65x1E47xEy4nkEqDPOB10OFq4sN/4/NEtyartzlCKA40IdaW4TGDK0svN0UAxNcylFVSgvkmF0J1kJDvyQ3oJPangeZGM5+mfz5IxgIx0jjVQraS+KxVmSwfa1YOuO/X7+dDw/SVnBRX8OWg6SjUi+Jt6qadGiHWHR3WkMCR6QNhvVjJbA2uJZsydDtIYkNBYoMmHvi+tBKwJoIYecGewef/qhLX5ZmMB0VwuffxWh/n+ftX22giCfOorGe2OP84BcCmcxUXBJwaJgolGHEWnOpq10ix8aEXINQMrxhxOKu95joz+1JEcwjQQBg9oV8av7A8KqIxt/377jQ1lbcSlW0ek03UhXUGOfFGaXbn9kmb0pNDCf6DBMe5yCoMtUOOlJOxpndolzgEPmJKpCjNKdv4SjepQ02C/q8hyhyMd5h7RDDd8/k7H0b6+1VbR37CJmkchnHcTC0G78jgZ05K61N2MiBtMOnQMuveOYNlHVp+dJoby0K6u2tNtwNdgW9LhqnaVe7BbC0r1e1WtsYOc1W1/eEG0R3OYCqiA0TyUtKOvQyECbYBSzkALcDvHhUbvHP4uaEWcA+4rpG/IfOdwyiN3CHlkclY3BFFwwxpfzX4v/NfTu9Pyj/6R/Gf2uqRJfHK9sZyUZ4bQ/TIyulWQ++Ce3SviV2EdT+1K3UOEJ7SqIew0MXh/8zkg6IM/gpghJe5oVxKdh/EtLf6l9YtiBVNyPeHg2sTr/n3vLwli4iPVInZzOlkTRCYGhaJfRKOiw2vLPhSPkAsSrfEHpXQJytTZ/3qzWGSd2E6d/iWhbQJEc8q8LinvmnM9Ja/QzP+CguB3XglDuB6hcES4DpPxOqfBJ+/1S87MD+3QLmDk2BfaZl3MMiAxE9qePztNDF4WViK/dRnNZ8PiLtBuxH/ftizOKe0KWdu0cv6sViedgX2aiLV7axfGltiX2FDfDzSJCZzOkDDYEmihrcPvtCGl6+OJ9aOJlaUFwAundxYjmHLhMhRMzs6hT0zVB0Utdk9aERFMyCm6kvVbopiHRbSWAmRBt29Xax91/KKg9yD1BSVylaTFO1C9OvfhxUzj/vZtA+CkfomdJobyUO0XOEoZgIkm/536Jyxa2hVqEGm29zGtnBsUraIDy42G+sKJjJQCWyc1ZVrAOEaG0UlfnGKt4NLPI2XB+4kHNY3rioFR/2XHGLGkzHus6Tcu+jhiCspjENG7s0ejfZIZbrhMS2ZkbRaCOq6y7p1FMyIfgalP/nMHxxIgGbwvrNIjHfl5oF3ZUqLQtlyPKwoqqZynX4HFdEDLeY4iT5hAKKdYPS/mOmoSlG+ATYC7lgzY2CltBxFIBcoSFBLTcD/yemp50JyeWdoD8ac4YdKo0FI+KJp6oVSwCr/WVjIGfzqxw682XO9g6EyqEvvHavp21NOt4beaxU4TQ7lsOC0Bg/IFTor+1HQgqKrTfoV79CScor4NxZ5LPossU34z65oJiNyhka6YPkUWY5pScSy+m3OBPVRdQHLVbUtqkNBJTLtcuUsPJwUJlOiBfWxMyr+sG5OO0XSN/1WFvYPIKLkcwPIAzrAEdpoYvCuspI69xVpFoDSa9oq9JgPOavKa/Xoy0lE+AyrdOVM6lchlI7Ym4MPX6sHAdGlwQ9uZkG82lvlNKFaln/+0J9ewyMKn2lMCywXJ/W8Tk0WX6jJhrfzlLhGBKO+wclUkRwmJsgfXJA0l//k7O00M5bHhNLPaKU3wBVlLQNshyjee7ej1MOmeGNhc9H+BTgXO48YNagjvvNpOyM02ljhqyEBpjDHQGqyRy9oOIpJWY98Vc6Iybb8DpG+2rdU9Ccq3XWo697u1cWkTWSro+6vOWWrldWXiiHYoC3LIjloZQaOc2+oH+Y7ipDo5BgbvAQT6ShxKtgW7tNPvO0QDiEKHD/LvFx1xd6N85Nf5MWJ3YCSbvv1Ku6MI56Ng9c8tyYX2kUFQdXQ31JcFCTLNR3BuRr9A+LdwbITfzp/ijq39JvYyBCVq14Lq+MoUzh5t3SQFGK7R4IB25IvJHf+xoZKBoA/QEHiPn9uTNo2+dnxV2T8oVicXEJhPt3EeaozLwKCmXS3R0q6QyvD5Ox2u5h40HlUrbAWfNfKoEJ4f/WybMy2b+c17qF+TXctnRV3Op+kS4N+e90F4CTQt7loJSQHVeiI8+NNizuw2DOoYWutUXFSdTGNiPQiDQx7+DhH5Vv4Wm2JjoWUzf6yBSMGLyCeno5i6KJvn/f2roxB3BVf1qG+RG/YuO00M3tWuJEaGEneoQMC/9P2MSJEGBNnZTz/Y4qdbuzX48YPX218mpmCRoxrAN14KKarpXw01bqi478N5t1cdnMGoM0QF/S1eEfo2XXcg3MG5TdkUiimfUnedHzWVq5opAbXcMeEZGPRpBipJlVqdgFF/B58TOg/nbEwS7r0zeC8xhXZmLO+qWAKDPnwwzzgpSxsCy2sRJZhpcITbCACvZF7TVl6lhHYoq3nygeYHbBpg/MWxZgEMDG4KK6n9kyZ/EYQMcopsEz1BCdu3lxj5Ot882H/6yKGtPzuyOblUUzuxLeXk959FnEFoH4mmzaR27PJA0ikq9r0aAZOCAsau3l7HPKuxu310cPX8GLGrMi0lmsx2GwODO4cZqQhSXzinNCtE+0BA93D/ZgXxMXU/PLg24TGxhRL9/1lrEo7fdmPDPDveI7ATgFHhLTJu4MqXRB+ka329+QW20UEEGRARvLTfcNa6Ieki/f1d2I5jYHDrkCk3SCj1TX0dLfJvP9yvaf6nEzvkQ1NCLzxwgb/5UturJzNS5Ijf1f2rE3b0uqGBTA0LIr3FnMQc0OTfvpa2aR1Tx4Wh44kYPR3+eCtkqWey3cbA4KapZN9CCi3QbdksoSnQFAAQ48HXdIgcxBJi6pyWkzGJufj33Cnhm4gAO8ddY7REp92I/8paSrS61zOwLvgwPCMvm89vUM9XVxt5BgYGNY3AzE+UDxgoXEB7AhrbB+5qch23OTHrYNKE5+eYbrIx+y7t+zVhzYDewdt9faoVc9cy0sdwtB34f0tTlZgW5EAEmiJcyDQcR8IqJ5X+sMgZA4OryLekh9l2c4EWkED7uG1Y3OW60prj21Iu0brA3NxsfumU10I/rh1QPZu7Rr0L5gFQ/f5nI2BkbWbL64W2TsbEIJHDKrlrXdRbfsV2HAODOwfMjlzu+xmRRT/Ojpoz/a0OW21rCWESLviw89lJo0KnNmlUA2T8SLgEF9VqTmrwyKhvRYFltBDNSsy5AvsDWbMjp3akZlGhnsxWiIHBVfNFamUO31MxykVAffLN9M55l/Yb/rRpp12CdlA2zSORgY6mj8jAbsZW8RrEllwWvuTN4SF5EPAwAY/+kbLkf8+2WctJnFAMDAwuH7DMCL+lMyOH1w30kX1P6I138v0xoaUaFxg/OYmDCf3V7uU80BLqX2tem/mb5XVbPitqO/mn/flmY49aAdXBsvAoWyEGBvcBBoBfOannGsy6rhcyDTvlxhK0APl5tky6zOsRhzcnHwxpVRMa6WlOajsOoG6wFlshBgYPI8+cni6T2tGsbPiqWPMA/UCXX9AXoymE3PePCSsGBo+biKAytvCbILAmjChlTriTrYxTwHolsmVgYPAyCi38IJFo75f4f2iX3m/YqjAwMFRKEGG1+8oB4yX4YMhfj5MRzFaFgYGh8mlXEsvo1X63NUZEC/lV6WxVGBgYKqs5OPn377pM5CS/1Ui2IgwMDJUWaHhA/nifk9oyVWMrwsDAUNnxFMdSGBgYGBgYGBgYGBgYGBgYGBgYGBgYGBgYGBgYGBgYGBgYGBgYGBgYGBgYGBgYGBgYGBgYGBgYGBgYGBgYGBgYGBgYGBgYGBgYGBgYGBgYGBgYGBgYGBgYGBgYGBgYGBgYGDyK/wNq5i68oQxvOAAAAABJRU5ErkJggg==;" vertex="1" parent="1">
                    <mxGeometry x="128.37" y="242" width="99.26" height="45" as="geometry"/>
                </mxCell>
                <mxCell id="6" value="babel" style="text;html=1;align=center;verticalAlign=middle;resizable=0;points=[];autosize=1;fillColor=#fff2cc;strokeColor=#d6b656;" vertex="1" parent="1">
                    <mxGeometry x="151.37" y="290" width="39" height="18" as="geometry"/>
                </mxCell>
                <mxCell id="7" value="负责对js代码降级处理" style="text;html=1;align=center;verticalAlign=middle;resizable=0;points=[];autosize=1;" vertex="1" parent="1">
                    <mxGeometry x="115" y="212" width="127" height="18" as="geometry"/>
                </mxCell>
                <mxCell id="11" value="" style="shape=flexArrow;endArrow=classic;html=1;fillColor=#dae8fc;strokeColor=#6c8ebf;" edge="1" parent="1">
                    <mxGeometry width="50" height="50" relative="1" as="geometry">
                        <mxPoint x="209" y="192" as="sourcePoint"/>
                        <mxPoint x="259" y="142" as="targetPoint"/>
                    </mxGeometry>
                </mxCell>
                <mxCell id="13" value="" style="shape=image;verticalLabelPosition=bottom;labelBackgroundColor=#ffffff;verticalAlign=top;aspect=fixed;imageAspect=0;image=data:image/svg+xml,PHN2ZyB4bWxucz0iaHR0cDovL3d3dy53My5vcmcvMjAwMC9zdmciIHdpZHRoPSIxNDUuNyIgaGVpZ2h0PSIxNDUuOCIgdmlld0JveD0iMCAwIDc5IDc4Ij48ZyBmaWxsPSJub25lIiBmaWxsLXJ1bGU9ImV2ZW5vZGQiPjxwYXRoIGQ9Ik0xNS40NDcgMzIuNjIzYy4xMDYuMDguMjkuMTMyLjEwNi4yOS0uMTMyLjE4NC0uMjkuMzQyLS4zOTUuNTUzLS4xMDUuMTg1LS4xODQuMjM3LS4zNDIuMTA2LjIxLS4zNDMuNDItLjY2LjYzLS45NXpNNjguMzQyIDYwLjI0YzAgLjA3OC4wMjYuMTMuMDI2LjIxLjA1My0uMTA1LjA1My0uMTU4LjA4LS4yMWgtLjEwNnptMCAuMjM2di0uMDI2LjAyNnptLTUuMzY4IDEwLjI3N2wtNC41OC0yNS40MDJjLS4wNzgtLjAyNS0uMTgzLS4wNzctLjM2OC0uMTMuMDUzLjEwNS4wOC4xODQuMTA2LjI2My4xMy0uMDI2LjE4NC0uMDI2LjIzNi0uMDUyIDAtLjAyNiAwLS4wNTIuMDI3LS4wOGw0LjU4IDI1LjQwNHptLTQuNzM3LTMxLjEyYy0uMDI2LjA3OC0uMDI2LjE1OC0uMDI2LjIzNyAwLS4wOCAwLS4xNi4wMjgtLjIzOHptLjAyNi41MjZjLS4wMjYgMC0uMDI2IDAtLjA1Mi0uMDI4di4wMjZjLjAyOC4wMjYuMDI4LjAyNi4wNTQgMHptLS4wNTIuMjF2LS4xODVjLS4wNzcuMDI2LS4xNTYuMDI2LS4yNjIuMDUzLjEzMi4wNS4yNjQuMDc4LjI2NC4xM3oiIGZpbGw9IiNERDM3MzUiLz48cGF0aCBkPSJNNzguNzEgMzMuOTY3Yy0uMDUyLTEuMDI4LS4wNzgtMi4wNTYtLjE4NC0zLjA4My0uMTg0LTEuMzk3LS4zNjgtMi44Mi0uNjg0LTQuMTktLjIzNy0xLjEzMy0uNjMtMi4yMTQtMS4wMjYtMy4yOTQtLjUtMS4yNjUtMS0yLjU1Ni0xLjYzMi0zLjc2OC0xLjAyNi0xLjk1LTIuMzY4LTMuNjktMy42MDUtNS41MDgtLjgxOC0xLjE2LTEuODctMi4xMDgtMi42Ni0zLjI5NC0uNDQ3LS42ODUtMS4xMDUtMS4yNjQtMS43NjMtMS43OS0xLjA1My0uODQ1LTIuMTU4LTEuNjEtMy4yNjMtMi4zNDdhMzIuNTI1IDMyLjUyNSAwIDAwLTIuNTgtMS42MzRjLS43MS0uMzk3LTEuNDczLS43MTMtMi4yMS0xLjA1Ni0uODQyLS4zOTUtMS42NTgtLjg3LTIuNjA1LTEuMDU0LS4yMzgtLjA1LS40NDgtLjEzLS42ODUtLjIxLS42MDUtLjIxLTEuMTg0LS40NDctMS43OS0uNjMyLS45Mi0uMjktMS44MTUtLjYzMi0yLjc2My0uODdDNTAuMzQyIDEgNDkuMzk0Ljg0MyA0OC40NDYuNzEgNDcuMzk0LjU1NSA0Ni4zMTYuNSA0NS4yNjIuMzk3YTI2LjgzIDI2LjgzIDAgMDAtMi4wMjYtLjE4NGMtMS0uMDUyLTIuMDI2LS4wNTItMy4wMjYtLjA3OC0uNS0uMDI3LTEuMDI2LS4wOC0xLjUyNi0uMDUzLS43NjMuMDI2LTEuNTI2LjEwNS0yLjI5LjIxLS43MzYuMDgtMS40NzMuMjEtMi4xODMuMzE3LS44NjcuMTA1LTEuNzM1LjE1OC0yLjYwNC4yNjQtLjgxNi4xMDYtMS42NTguMjY0LTIuNDczLjM5Ni0uMjkuMDUzLS41OC4xNTgtLjg3LjIxLS42My4xMzItMS4yODguMTg1LTEuOTIuMzk2LTEuMTMuMzQ0LTIuMjYzLjc0LTMuMzY4IDEuMTYtMS4wMjcuNDIyLTIuMDI3Ljg3LTMgMS4zOTctMSAuNTUyLTEuOTQ4IDEuMjEtMi44OTUgMS44NDRhNDUuMzI1IDQ1LjMyNSAwIDAwLTIuNjYgMS45MjNjLS44NC42Ni0xLjYzIDEuMzk3LTIuMzk0IDIuMTM1LS40Mi40Mi0uNzYzLjkyMi0xLjE1OCAxLjM5Ni0uNjU3Ljc2NS0xLjMxNSAxLjUwMi0xLjk0NyAyLjI5My0uNTI0LjY2LTEgMS4zNDQtMS41IDIuMDMtLjg5MyAxLjIxLTEuNjU2IDIuNTAyLTIuMzY2IDMuNzk0LS4yOS41MjctLjU1MyAxLjA1NC0uODE2IDEuNTgtLjM5NS43OS0uODE2IDEuNTU1LTEuMTg0IDIuMzcyLS4yNjQuNTU0LS40NzQgMS4xNi0uNjMyIDEuNzY2LS4zNjcgMS4yOTItLjczNiAyLjYxLTEuMDc4IDMuOS0uMzE2IDEuMTYtLjM5NSAyLjM3Mi0uNDIgMy41NTgtLjAyNyAxLjA1NC4wNzggMi4wODIuMTgzIDMuMTM2LjAyNy4yNjQtLjEzLjU4LjE4NC43OS0uMTA1LjI5LS4wMjYuNDUuMTMuNS0uMTgyLjI5LjA4LjQ3Ni0uMDI0Ljc0LS4wMjcuMDUyLjA4LjE1Ny4xMy4yMzYgMCAuMDgtLjAyNS4xODUgMCAuMjY0LjAyOC4yMzcuMTMzLjQ3NC4xMzMuNzM4IDAgLjE4NC4xNTcuMzk1LjIxLjU4LjAyNi4wNzggMCAuMjEtLjA1My4yNjMtLjE1OC4xODQtLjEzMi4zNDIuMTA1LjQ0OC4xMzMuMzQyLjA4LjUuMDU0LjY2LjA1Mi4yMzYtLjAyNy4zMTUgMCAuMzY4LjIxLjQyMi4yOS44OTYuMzE1IDEuMzcgMCAuMTA2LjA1My4yMTIuMTA2LjM0My4wMjYgMCAwIC41IDAgLjUuMTMtLjA3OC4yMzctLjEwNC4zNjgtLjE1Ny4wOC4zNDIuMTU4LjY2LjI2My45NS4xMzIuMjEuMTMyLjMxNC4wOC4zNC4xMDUuNDc0LjE1Ny45MjIuMzQgMS4zNyAwLS41LS4wNS0xLS4xMy0xLjQ3NS4zNjguMTMyLjY4NC4yNjMuODk1LjI2My4wMjctLjA4LjA1My0uMTg0LjA4LS4yMzctLjE1OC0uMTU3LS4yOS0uMzk0LS40NDgtLjU1Mi4wNTMuMjEgMCAuMjkgMCAuMzctLjEwNS0uMDU0LS4yMzctLjEwNy0uMzY4LS4xNi4xMDUtLjEzLjIxLS4yNjMuMzY4LS40MiAwLS4yMzgtLjEzLS40NS0uNS0uNDIzLjE1OC0uMDUyLjMxNi0uMTMuNS0uMTg0LjI5LS4xNTctLjAyNi0uNDQ3LS4wMjYtLjgxNi4wMjYtLjQ0Ny0uMjM3LS44OTUtLjMxNi0xLjM3LS4xMzItLjczNy0uMTA1LTEuODQ0LS4xODQtMi41ODItLjE1OC0uMTMyLS4yOS4yMS0uMzE2LjIzNy4wOC42MzIuMTU4IDEuMjY0LjIxIDEuODk3LS4xNTctLjUyNy0uMjYzLTEuMTA3LS4zOTQtMS43NC0uMDI3LjE4NS0uMDUzLjI2NC0uMDUzLjM3LS4xMy4xMy0uMDI2LjI5LjA1My40NzQtLjE4NC0uMDgtLjM5NS0uMDUyLS4zOTUtLjA1MnYuNzM4Yy0uMjYyLS4yNjQtLjM0LS40NzQtLjQ3My0uNjYtLjA1Mi0uMjEtLjA4LS40Mi0uMTMtLjYzLjA1LS4xMzMgMC0uMjEyIDAtLjI5YTE1Ljk2OCAxNS45NjggMCAwMS0uMDgtLjYzNGMuMDI2LS4wMjYtLjAyNi0uNDItLjAyNi0uNDIuMjEuMDI1LjM0My4wNS40NzQuMDUtLjI2My0uMzQtLjA4LS41NTIuMDI3LS43NjMuMDUzLS4xMDYuMjM3LS4xMy4yOS0uMjM4LjIxLS4zOTUuNTUzLS43MS41NTMtMS4yMTIgMC0uMjM3LjA4LS41LjEwNS0uNzM4LjA1My0uNDQ4LjEwNS0uODk2LjEzLTEuMzQ0LjA1NC0uNTggMC0xLjE2LjEzMy0xLjcxMy4yMTItLjkyLjQ3NS0xLjg0My43NjQtMi43NjYuMjEtLjY2LjQ0OC0xLjI5LjcxLTEuOTUuMzk1LTEuMDI4Ljc2NC0yLjA1NiAxLjI2NC0zLjAzLjcxLTEuNDI0IDEuNTI2LTIuNzk0IDIuMzE2LTQuMTkuNS0uODcgMS4wMjYtMS42ODcgMS41OC0yLjUzLjUyNS0uODE3IDEuMDUtMS42NiAxLjY1Ny0yLjQyNWEyMS40NTIgMjEuNDUyIDAgMDEyLjc5LTIuOTc4YzEuMDUzLS45NDggMi4wNTMtMS45MjMgMy4xODQtMi43OTNhMzEuOTg0IDMxLjk4NCAwIDAxNC42ODItMy4wMDZjMS4zNDMtLjcxIDIuNzM3LTEuMjY2IDQuMTMyLTEuNzkzLjg5NS0uMzQyIDEuODY4LS41IDIuNzktLjc5IDEuMDUyLS4zNDMgMi4xMDUtLjUgMy4yMS0uNTI3LjcxLS4wMjcgMS4zOTUtLjEwNiAyLjEwNS0uMTg1LjYzMi0uMDUgMS4yNjMtLjEwNCAxLjk0OC0uMTgzLS4wOC4xMDUtLjEwNi4xNTgtLjEzMi4yMS0uMjg4LjQyMi0uNjA0Ljg0NC0uODk0IDEuMjY1LS4yMzcuMzQzLS41LjcxMi0uNzM3IDEuMDU0LS40MjIuNTU1LS44NyAxLjEwOC0xLjI2NCAxLjY4OC0uNjA1Ljg3LTEuMTU4IDEuNzY2LTEuNzkgMi42MzUtLjYzLjg0My0xLjMxNSAxLjYzNC0xLjk3MyAyLjQ1LS44NjggMS4xMzQtMS42ODQgMi4yOTMtMi41NTIgMy40MjYtLjc5IDEuMDgtMS42MyAyLjExLTIuMzk0IDMuMTktLjY4NC45NDctMS4yOSAxLjk1LTEuOTQ4IDIuOTIzLS45NzMgMS40NS0xLjk0NyAyLjg3Mi0yLjkyIDQuMzIyYTI3MS45MjggMjcxLjkyOCAwIDAxLTIuMzE2IDMuMjk0Yy0uMDUzLjA4LS4xMzIuMTA0LS4yMS4xNTctLjIxLjM0Mi0uMjEuNTI3LS4yOS42ODUtLjIxLjM5NS0uNDIuNzktLjY1OCAxLjE2LS4xMzIuMjEtLjMxNi4zOTQtLjQ3NC42MDUtLjAyNi0uMzE2LjQyLS40NzQuMjEtLjg3LS4xMy4yMTItLjI2My4zOTYtLjM5NC42MDdsLS4zMTYuNjNjLjEwNS4wOC4yOS4xMzMuMTA1LjI5LS4wOC4xMzMtLjE1OC4yOS0uMjM3LjQyM2EuOTU0Ljk1NCAwIDAwLjI5LS4yNjRjMCAuMjktLjE1OC41MjYtLjI5Ljc2My0uMTA1LjIxLS4zNjguMzctLjU1Mi41MjcuMDI2LjAyNy4yMS4xMDYuMjM3LjEzMi4yMzctLjA4LjMxNi0uMjEuMzQzLS4xMzIuMDgtLjEwNS4xNTgtLjE4NC4xODQtLjI2My4xMDQtLjI2NC4yNjItLjQ3NC41MjUtLjU4LjEwNi0uMDUzLjE4NC0uMTMyLjI2My0uMjEuNzktLjgxOCAxLjYwNi0xLjYwOCAyLjMxNi0yLjQ3OCAxLjEwNi0xLjM0NSAyLjEwNi0yLjc0IDMuMTYtNC4xMS40NDYtLjU4Ljk3My0xLjE2IDEuNDQ2LTEuNzE0LjA3OC42MDYuMDI2IDEuMTg1IDAgMS43NC0uMDguOTc0LS4xMzIgMS45NS0uMjEgMi45NS0uMDI3LjM5NSAwIC43OS0uMDI3IDEuMTg2IDAgLjEwNS0uMDguMTg0LS4wOC4yOSAwIC4yNjMuMDguNTUzLjA4LjgxNy0uMDguOTc1LS4xODYgMS45MjMtLjI2NSAyLjg5OC0uMDI3LjIxLjA3OC40MjIuMTMuNjA3LS4xMyAxLjQyMi4xNiAyLjkyNS0uMDc4IDQuNDI3LjE4NC0uMjkuMjM3LS40NzQuMjM3LS42NTguMDI1LS4xNTggMC0uMzE2IDAtLjV2LS4yNjRjLjAyNS0uNDc1LjEzLS45NzUuMDc4LTEuNDUtLjA1My0uNTI3LS4wNTMtMS4wMjcuMDUzLTEuNTI4LjA1My0uMjEtLjAyNi0uNDc0LjEwNi0uNzM4di4zOTVjLS4wMjYgMS41LjAyNyAzLjAwMy0uMTgzIDQuNTA1LS4wMjcuMTMyLjA4LjM3LS4yMS4zNDMtLjIzOC40NzQuMDUyLjgxNy0uMjEgMS4wOC0uMDU0LjA1My4wNS4yOS4wNzcuNDQ4LS4xMDYuMzE3LS4xMDYuMzE3LjA1Mi4zNDMuMDI2LjU4LjA4IDEuMTA2LjEwNSAxLjY2LjQyLTEgLjIxLTIuMDMuMzk2LTMuMDU4LjAyNi40MjIuMDUzLjg0NC4wMjYgMS4yOSAwIC42ODctLjAyNiAxLjM0NS0uMDUyIDIuMDMgMCAuMTMyLS4wMjcuMjY0LS4wNTMuMzk2LS4wOC4zNy0uMTA1LjczOC0uMjM3IDEuMDgtLjEwNS4yNjQtLjA1Mi42Ni0uMDUyLjk3NXYxLjAwM2MuMTA1LjQ0OC0uMDI3LjY4NS4wNTIuOTQ4LS4wOC4yNjUtLjEwNS4zNDQtLjA4LjQyM2wuMDguMzk1Yy41MjctLjA1My4yOS4zNDMuNS41NTMtLjE1OC4yMTItLjEwNS4yOS0uMTA1LjM5NyAwIC4yMzctLjAyNS40NDgtLjA1Mi42ODUgMCAuNjA2LS4wMjYgMS4yMTItLjAyNiAxLjc5MiAwIC4wOC4wMjYuMTU3LjAyNi4yMzYgMCAuMDU0LS4wMjYuNzQtLjAyNi43NC4wNTMuMDc4IDAgLjE1Ny0uMDguMjM2LS4wMjUgMC0uMTA0LTMuMzQ3LS4xMDQtMy4zNDdoLS4zOTVjLS4wNTIgMS41OC4wOCAzLjAwMy0uMjEgNC40OC0uMzE2LjAyNS0uNDIuMDc4LS43NjQuMDc4LS44MTYgMC0xLjYzMiAwLTIuNDQ4LjAyNi0uOTc0IDAtMS45Mi4wMjYtMi44OTUuMDI2LS40NzIgMC0uOTcyLjA1NC0xLjQ0Ni4wNTQtLjYzMiAwLTEuMjktLjA4LTEuOTItLjA4LS45NzUgMC0xLjkyMi4wOC0yLjg5Ni4xMDYtLjcxLjAyNi0xLjQyLjAyNi0yLjEzLjA1My0uNDc1LjAyNS0uOTUuMDUtMS40MjIuMTA0LS4yMS4wMjYtLjM5NS4xMDUtLjY1OC4xODQtLjA4IDAtLjI2My0uMDI2LS40MiAwLS4yNjUuMDUzLS41LjIxLS43NjUuMjY0LS4zOTUuMDgtLjUuMTg0LS40NDguNTh2LjI2M2MtLjAyNi4wNTIuNTgtLjA4LjU4LS4wOC0uMDU0IDAtLjA4LjE1OC0uMTYuMjkuMjEyLS4wOC4zNDMtLjEzMi40NzUtLjE4NC4zOTUuMTg1LjczNy4wOCAxLjA1Mi4xNiAxLjAyNi4yNjIgMi4wNzguMzcgMy4xMy40NzMuNjg1LjA1MyAxLjM0My4wOCAyLjAyNy4xMDUuOTczLjA1MyAxLjk0Ny4xMDYgMi45Mi4xMDYuODE2IDAgMS42MDYtLjA4IDIuNDItLjA4IDEuMTMgMCAyLjI2NC4wNTIgMy4zOTUuMDguMjM3IDAgLjUtLjAyOC43NjMtLjAyOGgxLjkyYzEuNzEyLS4wNTIgMy40MjItLjA4IDUuMTMzLS4xMy45NzUtLjAyOCAxLjk3NS0uMDggMi45NDgtLjEwN2wzLS4wOGMxLjE1OC0uMDI2IDIuMzE2LS4wMjYgMy40NDgtLjA1Ljg2OCAwIDEuNzEtLjAzIDIuNTgtLjA1NS45NzItLjAyNiAxLjk3Mi0uMTA1IDIuOTQ2LS4xNTcuNTI3LS4wMjcgMS4wNTQtLjA4IDEuNTgtLjEzMi42MzItLjA1MiAxLjI5LS4xMyAxLjkyLS4xNTcuOTQ4LS4wNTQgMS45MjItLjA4IDIuODctLjEzMyAxLjE4NC0uMDc4IDIuMzY4LS4xODMgMy41NzgtLjIxIDEuMTA2LS4wNTIgMi4yMzctLjAyNiAzLjM0My0uMDUyLjk3NC0uMDI3IDEuOTQ4LS4wOCAyLjk0OC0uMTA2bDEuNjYtLjA4czEuMTA0LS4wMjYgMS42NTctLjA4Yy45NDctLjA1MiAxLjg5NC0uMTU3IDIuODQyLS4xODMuNjA0LS4wMjcgMS4yMSAwIDEuODE1LS4wMjcuOTczLS4wMjYgMS45NzMtLjA4IDIuOTQ3LS4wOC4zNjcgMCAuNzYyLjA1NCAxLjIzNi4wOC0uMjEuMTg1LS4zNDIuMjktLjUuNDIyLjEwNS4wMjYuMjEuMDguMzE2LjEzMmEuNzEuNzEgMCAwMS0uNDIuMTNjLS4wNTQuMTMzLS4xMDcuMTg2LS4xNi40NWguNDc0Yy0uMTg0IDAtLjM0Mi4yMzctLjUyNi4zOTUtLjIxLS4wNTQtLjM5NSAwLS41LjI5LjE4NC4xMDQuMTU4LjE4My4xMzIuMjktLjMxNi4xMDQtLjU1My4yMS0uNDIuNTUyLS4xMDcuMDUyLS4yMzguMTA1LS4zNy4xODQtLjEzLjIxLS4zNjguMjYzLS4zMTYuNTUzLjEwNi4wMjUuMjEuMDguMjkuMTA0LS4xMzIuMDUzLS4yNjMuMTMyLS4zOTUuMTg0LS40NzMuMjktLjI2Mi40MjItLjE1Ny41NTQtLjA4LjA1My0uMTU4LjEwNS0uMjM3LjEzMi4wNTIuMjM3LjEzLjI5LjE1Ny4yOWE5LjMwMSA5LjMwMSAwIDAwLS4zOTUuMzE2Yy0uMDguMjM3LS4xODUuMzQyLS4yOS41LS4xMDUuMTU4LS4xNTguMzctLjI5LjUyNy0uNTUyLjYwNy0uOTQ3IDEuMzItMS42NTcgMS43OTMtLjI2NC4xODUtLjUuNDIyLS43MzcuNjYtLjQ3NC40NDctLjg5NS45NDgtMS4zOTUgMS4zN2EyOS41OTUgMjkuNTk1IDAgMDEtMi4wNTIgMS41NTRjLS44NjcuNjA2LTEuNzM1IDEuMjEyLTIuNjA0IDEuNzkyLS40NzQuMzE1LTEgLjU1Mi0xLjUuODQyLS41LjI5LS45NzQuNTU0LTEuNDc0Ljg0My0uMzE2LjIxLS42MDYuNS0uOTQ4LjY2LS44NjguMzctMS43OS42ODUtMi42ODQgMS4wMjgtLjg3LjM3LTEuNS42ODUtMi4xNTguOTIyLS42MDUuMjEtMS4yMzcuMzctMS44NjguNS0uMjEuMDU0LS40NDggMC0uNjg1LjAyNy0uNDQ4LjA4LS44OTUuMTg2LTEuMzQzLjIzOC0xLjE1OC4xNTgtMi4zMTYuMjY0LTMuNDczLjQyMi0uNjg1LjA4LTEuMzQzLjIxLTIuMDI3LjI5LS40NzMuMDI2LS45NzMtLjAyNi0xLjQ0Ny0uMDI2LS4zNDIgMC0uNzEuMDgtMS4wNTMuMDI3LS41NTItLjA4LTEuMTA1LS4yMS0xLjY1OC0uMzE2LS4xMy0uMDI2LS4zMTYtLjA4LS40Mi0uMDI2LS4yMS4xMDYtLjM5Ni0uMDUyLS42MDcgMC0uMTMuMDI3LS4yNjItLjA4LS4zOTQtLjA4LS4xMDYtLjAyNS0uMjM4LjAyOC0uMzcgMC0uMjktLjA3OC0uNTUyLS4xODMtLjg3LS4xNTctLjMxMy4wMjYtLjYzLS4xMzItLjk3LS4yMS0uNDc1LS4xMDYtLjkyLS4yMS0xLjM5Ni0uMzE3YTIuMzgxIDIuMzgxIDAgMDEtLjUyNS0uMjM3Yy0uNjg1IDAtMS4xMzMtLjAyNi0xLjU1NC0uMTg1LS4zNjgtLjEzLS43MS0uMzE1LTEuMTA1LS4yNjItLjEwNC4wMjYtLjE4My0uMDI2LS4yOS0uMDI2LS4wOC0uMTA2LS4xNTctLjMxNy0uMjM1LS4zMTctLjUyNi4wMjctLjg0Mi0uNDItMS4yOS0uNTUzLS4yMzYtLjA4LS40Mi0uMzQzLS42NTctLjQyMi0uNTgtLjIzNy0xLjA1Mi0uNzM3LTEuNzEtLjgxNi0uMjEtLjAyNy0uNDItLjEzMi0uNjU4LS4yMS4wOC4xMDQuMTMuMTgzLjIxLjI2Mi0uNzYzLS4zNy0xLjQ3My0uNzktMi4xODQtMS4xODYtLjEwNC0uMDI2LS4xODMtLjEzLS4yNjItLjE4NGwtLjcxLS40NzRjLS4zOTUuMDgtLjU1My0uMDgtLjY2LS4xMzItLjcxLS41LTEuNTI1LS44MTctMi4yMS0xLjM3LS4yOS0uMjM4LS42My0uMzk2LS44NC0uNjg2LS4zNy0uNDQ4LS44MTctLjc2NC0xLjMxNy0xLjAyNy0uMzk0LS4yMS0uNzYyLS40NDgtMS4xMy0uNjg1LS4xODUtLjEzMi0uMzctLjI5LS4zNy0uNTggMC0uMTg1LS4wNzgtLjM3LS4zMTUtLjI2NC0uMTA1LS4xNTgtLjIxLS4zNDItLjM0Mi0uMzk1LS4zMTYtLjEzLS41MjYtLjM3LS43NjMtLjU4LS4yMzctLjIxLS40Mi0uNS0uNzEtLjYwNS0uNTI3LS4yMS0uODQzLS42NTgtMS4xNTgtMS4wMjctLjczOC0uODctMS4zOTYtMS44Mi0yLjA4LTIuNzQtLjA1My0uMDgtLjE1OC0uMTMzLS4yMzctLjIxMi4xMDUuMjkuMjM3LjUyNy4zNjguNzktLjI2Mi0uMTA1LS40NDYtLjI5LS42MDQtLjQ3NC0uMDI3LjAyNyAxLjgxNSAzLjA1NyAxLjgxNSAzLjA1Ny4xNi4yMzcuMjkuNDc1LjQ0OC43MTJhLjgxMy44MTMgMCAwMS0uNzktLjQyMmMtLjIzNi0uNDItLjUtLjY4NC0xLjAyNi0uNjNhNC41ODggNC41ODggMCAwMS0uMTMtLjU4Yy0uMTA3IDAtLjE4NSAwLS4zNy0uMDI3LjM3LjU4LjY4NSAxLjA4IDEuMDI3IDEuNjYtLjEzMy0uMDgtLjIxLS4xMzItLjI2NS0uMTU4LjQ3My41LjgxNSAxLjEzMyAxLjQyIDEuNDUuMTMyLjYwNS44MTYuODk1Ljk3NCAxLjQ3NS0uMTMtLjAyNy0uMjM4LS4wNTMtLjM3LS4wOC0uMjEtLjI2My0uNDQ3LS41MjYtLjY4My0uODE2LjA1Mi4xODQuMTMuMzQyLjIzNi40NzQuMzE2LjM5NS42MDYuNzkuOTc0IDEuMTMzLjEzMi4xMzQuMzE2LjE4Ny4zMTYuNDI0LjIxLjEwNS4yOS4xMy4zNjguMTMuMDU0LjE2LS4wMjUuMzk3LjI5LjM0NC4yMS4zOTUuNDIuMzk1LjcxLjI2NC4zNDMuMzQzLjUyOC4zNy43NjQuMTYgMCAuMTMuMDI2LjI2Mi4wMjYuMzY4LjEwNS0uMDUzLjA4LS4xMzIuMDgtLjI2NC4xMy4xMDUuMjEuMTU4LjI2Mi4yMS4yNjMuMzcuNS43MTIuODY4IDEuMDAyLjUuNDIyLjk0OC44NyAxLjQyIDEuMjY1LjkyMi43NjUgMS45NSAxLjM5OCAyLjk3NSAxLjk3NyAxLjI2NC43MTIgMi40NzUgMS40NzYgMy43NjQgMi4xNiAxLjU1Mi44MTggMy4yMSAxLjM3MiA0LjkyIDEuNzY3LjYzMi4xMzIgMS4yMzcuMjYzIDEuODcuNDIuNTUuMTYgMS4xMDQuMzk3IDEuNjU3LjUyOC44NDIuMTg1IDEuNzEuMzQzIDIuNTUyLjUuMTgzLjAyNy4zNy4wNTQuNTguMDguMjM1LjA1My41MjQtLjA1My41NzcuMDI3LjEzMi4yMS4yMzcuMTA0LjM5NS4wNzguMTg0LS4wNTMuMzk1LS4wNTMuNjA1LS4wNTMuNzM3LjAyNiAxLjQ0Ny4xODQgMi4xODQuMTMyLjE2IDAgLjM5Ni0uMTMzLjUyOC4xMy4yMzYtLjEwNS4zNjgtLjEwNS40NzMtLjEzLjAyOC4yMzYgMCAuMjM2LS4wNS4yNjItLjA1NC4wMjYtLjEzMy4wNTMtLjIzOC4xMzIuOTQ3LjE4NCAxLjg0Mi4yMSAyLjYzIDAgMS4zNy4xMDUgMi41NTQtLjA1MyAzLjY4Ni0uNDQ4LjEwNS4xMzIuMTg0LjMxNi4zNDIuMDUzLjA1Mi0uMDguMTg0LS4xMDcuMjktLjEzMy4yMzYtLjA1My41MjYtLjE1OC43MzYtLjA4LjIzOC4wOC4zMTctLjEzLjUtLjEzLjMxNyAwIC42MDYtLjAyNy44OTYtLjA4LjE1OC0uMDI2LjMxNi0uMTA1LjUtLjE1OGExLjI3NSAxLjI3NSAwIDAwLS41OC0uMTMzYy4zMTctLjE1OC42MDYtLjI5Ljg5Ni0uNDItLjA1My4wNzgtLjEwNi4xODMtLjIxLjE4M2guMzY3Yy0uMDggMC0uMTg1LjIzNy0uMzE2LjM5NS45NDYtLjIzNyAxLjgxNC0uNDQ4IDIuNjU3LS42Ni0uMjktLjU1Mi4zMTUtLjM2Ny41MjYtLjY4NC0uMjYzLjA4LS41MjYuMTU4LS43OS4yMS44OTUtLjQ0NyAxLjgxNi0uODQyIDIuNzEtMS4yMzctLjEzLjE1OC0uMjkuMjM3LS41MjUuMzcuMTU4LjAyNS4yNjMuMDI1LjM0Mi4wNS40Mi4xMzMuMzE2LS4yNjIuNDQ3LS41LjUgMCAuNzEtLjA3OC45NDctLjE1OC4yNjMtLjA4LjUyNi0uMTU4Ljc5LS4yNjMuNDItLjE4NC44MTUtLjQyIDEuMjM2LS42My4wOC0uMDI4LjIxIDAgLjMxNiAwIC4yOS0uMTg2LjM5NC0uMzQ0LjQ3My0uMzE4LjM3LjA1My42My0uMDguNzM2LS40Mi4xODQtLjEzMy4zMTYtLjIzOC40NDctLjMxOC41NzgtLjMxNiAxLjEzLS42MzIgMS43MS0uOTQ4LjIxIDAgLjMxNiAwIC4zNjgtLjAyNy4zNDQtLjE2LjY2LS4zNDIuOTc1LS41MjdhMi4yNTggMi4yNTggMCAwMS0uMjYzLS4xM2MuMjYyLS4wNTQuMzQtLjA4LjUtLjEzMy42My0uNzQgMS41LTEuMjQgMi4xNTctMS44Mi4yOS0uMDI2LjI5LS4xMDUuMjktLjE1Ny4xMDQtLjEzMi4yMS0uMjkuMzQtLjM5Ni41OC0uNTI3IDEuMjEtLjk3NSAxLjczNy0xLjUyOC43NjMtLjc2NiAxLjUtMS41NTcgMi4xODQtMi4zNzQuNjMtLjczOCAxLjI2NC0xLjQ3NSAxLjc5LTIuMjkyLjczNy0xLjEzMyAxLjM2OC0yLjI5MyAyLjAyNi0zLjQ4LjQ3NC0uODQyLjg5NS0xLjY4NSAxLjM3LTIuNTI4LjA1LS4wOC4xNTctLjE4NS4yMzYtLjE4NS43MS0uMDggMS40MjItLjEzIDIuMTA2LS4yMS4xNTgtLjAyNi4zNDItLjEzLjUtLjIxLS4wOC0uMTMyLS4xMzItLjI5LS4yMS0uNDIyLS4xMDYtLjE2LS4yNjQtLjI5LS4zNy0uNDUtLjEwNC0uMTMtLjE4My0uMjktLjI2Mi0uNDQ3LS4wOC0uMTMtLjE1OC0uMjM2LS4yMzctLjM3LS4xNi0uMjktLjMxNy0uNTgtLjQ1LS44OTQtLjAyNi0uMDgtLjA4LS4yMS0uMDUyLS4yOS40NzQtMS4wMjcuNjU4LTIuMTM0IDEuMTA1LTMuMTYyLjQ0Ny0xLjA1NC41OC0yLjI0Ljc5LTMuMzczLjE4NC0xLjA4LjI5LTIuMTYuNDItMy4yNC4wOC0uNzY0LjE4NS0xLjUwMi4yMS0yLjI2Ni4xNi0xLjIxMi4xMDYtMi4zNDYuMDgtMy40OC0uMDI2LTEtLjA4LTIuMDI4LS4xMy0zLjAzek0xMi42ODUgNjYuNDA1Yy0uMTg0LS4yMS0uMzQyLS40NDgtLjUyNi0uNjU4bC4wOC0uMDhjLjI4Ny4zMTcuNTc3LjYzMy44NjYuOTc2LS4xNTgtLjA4LS4zNDItLjEzMi0uNDItLjIzOHptLjQyLjIzOGMuMDgtLjAyNy4xNi0uMDI3LjIzOC0uMDUzLjA4LjEzMi4xMzIuMjkuMjEuNDQ4LS4zNjgtLjAyNy0uNTUyLS4xODUtLjQ0Ny0uMzk1em0yNy4zNyAxMC44ODN2LS4wOGMuNS0uMDUyLjk3My0uMTA1IDEuNDczLS4xNTd2LjA3N2MtLjUuMDgtLjk3My4xMy0xLjQ3My4xNTh6bTYuNjMtLjY4NWMtLjM2Ny4wOC0uNzYyLjEzMy0xLjEzLjE4Ni0uMTMyLjAyNi0uMjkuMTU4LS4zNDItLjA4LS4wNTMuMDI3LS4xMDYuMDI3LS4xNTguMDU0LjEzLjM5NC40NDcuMDc4LjcxLjIzNi0uNTguMDgtMS4xMy4xMzItMS42ODQuMjF2LS4wNTJjLjE2LS4wMjYuMzQzLS4wNTMuNS0uMDh2LS4wNzhhNy43MDUgNy43MDUgMCAwMC0uNzktLjA1M2MtLjA3NyAwLS4xODMuMTA2LS4yNjIuMTMyLS4xMDUuMDI2LS4yMS4wNTMtLjM0Mi4wNTMtLjQ0Ny4wMjYtLjg5NC4wMjYtMS4zMTYuMDUyLS4wMjcgMC0uMDgtLjAyNi0uMTA2LS4wMjZ2LS4wOGMxLjc2My0uMjM2IDMuNS0uNDczIDUuMjYzLS43MS4wMjcuMDUyLjAyNy4xMDUuMDUzLjE1Ny0uMTU4IDAtLjI2My4wNTUtLjM5NS4wOHptLjM5Ni0uMjYyYy42MDYtLjA4IDEuMTYtLjEzMiAxLjczOC0uMjEtMS4yMS4zNDItMS42MDUuMzk0LTEuNzM3LjIxek0yNC41OCAyMy4zNzRjLjg0LTEuMTYgMS43MS0yLjMyIDIuNTUyLTMuNTA1LjI2My0uMzQ1LjQ3My0uNzE0LjczNi0xLjA1Ni4wOC0uMTA2LjE4NS0uMTU4LjMxNi0uMjY0bC0uMDI2LS4wNWMuMTA1LS4xMzMuMjEtLjI0LjI2My0uMzQ0LjEzNC0uMjEuMjEzLS40NDguMzE4LS42ODVhLjM4NS4zODUgMCAwMS4xMDUtLjEwM2MuMzcuMTg0LjM3LS4yMS41LS4zNDMuMjM3LS4yNjQuNDc0LS41NTMuNjg0LS44MTcuMTU4LS4yMS4zMTYtLjM5NS40NDgtLjYzMi4wMjYtLjA4LS4wNTMtLjIxLS4wOC0uMzE3aC0uMDc4Yy4wOC0uMDUyLjE1OC0uMTMuMjM3LS4xODQuMDI2IDAgLjAyNiAwIC4wNTItLjAyNi4xNTgtLjIzOC4zMTYtLjQ3NS40NzQtLjY4Ni4zMTUtLjQyLjY1Ny0uODQyIDEuMDI1LTEuMjEtLjA1Mi4xMy0uMTA1LjI2My0uMTU4LjM2OC4wMjcgMCAuMDI3LjAyNy4wNTMuMDI3LjMxNi0uNDIyLjY1OC0uODE3Ljk3NC0xLjI0LS4wMjctLjAyNS0uMDUzLS4wNTItLjA4LS4wNTItLjEzLjEzMi0uMjM2LjI2NC0uMzY4LjM5Ni0uMDI2LS4wMjctLjA1Mi0uMDUzLS4wOC0uMDUzLjI2NS0uMzQzLjUyOC0uNjg1Ljc5LTEuMDguMDUzLjA4LjEwNi4xODQuMjEuMzk1LjEwNy0uMjYzLjIxMi0uNDQ3LjI5LS42MzItLjA3OC4wOC0uMTgzLjE1OC0uMjYyLjIzOGwtLjA4LS4wOC40NzQtLjcxYy41LS43MTIgMS0xLjQ1IDEuNS0yLjE2Mi4xODUtLjI2My40Mi0uNDc0LjU4LS43MzguNS0xIDEuMjktMS43OTIgMS44OTQtMi43MTQuMTMyLS4xODQuMzE2LS4zNDIuNDc0LS41LjEzLS4xNi4yMzctLjEwNi4zNDIuMDI2LjcxLjg5NiAxLjQyIDEuODE4IDIuMTMgMi43MTQuNTI4LjY2IDEuMDU0IDEuMjkgMS41NTQgMS45NzYuNjA1Ljg0NCAxLjE4NCAxLjY4NyAxLjc5IDIuNTMuNjg0Ljk3NSAxLjM2OCAxLjk1IDIuMDI2IDIuOTUgMSAxLjQ3NyAxLjk0NyAyLjk1MyAyLjk0NyA0LjQyOC43MzcgMS4wOCAxLjQ3NCAyLjEzNSAyLjE4NCAzLjIxNWgtMS4zNDRjLTEuMjM2LS4wMjUtMi41LS4xMy0zLjczNi0uMDc4LTEuNjg0LjA4LTMuMzk0LjI2NC01LjA3OC4zOTYtMi4xMzIuMTg1LTQuMjkuMjEtNi40Mi4yMS0uNzY1IDAtMS41MjguMTA3LTIuMjkuMTYtLjkyMi4wNTItMS44MTcuMTA1LTIuNzM4LjEzLTEuMDguMDU0LTIuMTMuMDgtMy4yMS4xMDctLjYwNi4wMjYtMS4yMzcgMC0xLjg5NSAwem0zMC4xODMgMTIuMTJ2LjIzOGMtLjAyNiAwLS4wNTIuMDI3LS4xMDUuMDI3LS4xMDUtLjM3LS4yMS0uNzY2LS4zNDItMS4xMzUtLjI2My0uNzY1LS41NTMtMS41My0xLjAyNy0yLjIxNC0uNTI4LS43MzctMS0xLjUtMS41MjgtMi4yNjUtLjEzLS4xODUtLjMxNi0uMzQzLS40NzQtLjUtLjU1My0uNjA3LTEuMTA2LTEuMjQtMS44MTYtMS42ODdhMjEuNDg1IDIxLjQ4NSAwIDAwLTMuMjktMS42ODggNy4zNzQgNy4zNzQgMCAwMS0uOTItLjQ3NGguNjNsNC41LS4wOGMuOTc0LS4wMjUgMS45MjItLjAyNSAyLjg5NS0uMDc4LjIzNiAwIC4zNjguMDguNS4yOS4yMzYuMzk1LjQ3My43OS43MzYgMS4xODYuMDI3LjA1Mi4wOC4xMy4wOC4yMSAwIC41OCAwIDEuMTg2LjAyNiAxLjc2Ni4wMjUuNjA2LjA4IDEuMTg2LjEwNCAxLjc5MiAwIC42MDYtLjA1MyAxLjIzOC0uMDI2IDEuODcuMDI3Ljg5Ny4wNTMgMS44Mi4wNTMgMi43NHpNMjYuNDQ3IDI2LjY3YzEuMjM3LS4wNTMgMi40Mi0uMTMyIDMuNjMyLS4xODUuOTQ1LS4wNTMgMS45Mi0uMDggMi44NjYtLjEzMi4zOTUtLjAyNS43NjQtLjA1IDEuMTU4IDAtLjQyLjIxMi0uODQyLjQyMy0xLjIxLjY4Ni0uNDc0LjMxNi0uOTIuNzM3LTEuMzk1IDEuMDgtLjQ3NS4zNDItLjg5Ni43NjQtMS4yOSAxLjIxMi0uNS42MDUtMS4wNTMgMS4xMzItMS41OCAxLjcxMi0uMzcuNDIyLS43OS44MTctMS4xMDUgMS4yNjUtLjQ0Ny41OC0uODQyIDEuMjEtMS4yNjMgMS44Ny4xMzItMi41MDQuMjktNC45OC4xODQtNy41MXptMTcuMTg1IDI1LjM1Yy0uODQzLjIxLTEuNzEuNDQ4LTIuNTguNTUzLS43MzYuMTA2LTEuNS4wOC0yLjI2My4wOGEyNS40MiAyNS40MiAwIDAxLTIuMDI4LS4wOGMtLjc2My0uMDc4LTEuNTI2LS4xNTctMi4yNjMtLjUtLjYzMy0uMjktMS4yOS0uNTUzLTEuOTItLjg3LS42MzQtLjMxNi0xLjI2NS0uNjg0LTEuNzQtMS4yNjQtLjM0LS40MjMtLjgxNS0uNzY1LTEuMjM2LTEuMTM0LjA4LjMxNi4yNjMuNTguNTUzLjc2NC0uMTMyLjE1OC0uMzE2LjA4LS41OC0uMzQzLS4wNzguMDUzLS4xNTcuMDgtLjIxLjEwNi4wOC0uMTg1LjE1OC0uMzcuMjM3LS41MjctLjEwNS0uMjEtLjIzNy0uNDQ4LS4zNDItLjY2LS4yMS0uMzQyLS40Mi0uNzEtLjYwNS0xLjA1My0uMDUzLS4wOC0uMDUzLS4xNTgtLjEwNS0uMjM3YTUuODkzIDUuODkzIDAgMDEtLjM3LS40NzVjLS4yMS0uMzE1LS4zOTQtLjY1Ny0uNjU3LS45NzQgMCAuMDguMDI3LjE1OC4wMjcuMjY0LS4wMjcgMC0uMDUzLjAyNi0uMDUzLjAyNmwtLjU1NC0xLjM0NGMtLjAyNiAwLS4wMjYgMC0uMDUyLjAyNmwuNDczIDEuNzRjLS4wMjYgMC0uMDUyLjAyNS0uMDguMDI1LS4wNzctLjEwNC0uMTU2LS4yMS0uMjEtLjM0LS4wNTItLjIxMi0uMjEtLjIxMi0uMzQtLjEzMy0uMDguMDUzLS4xMzMuMjM3LS4xMDYuMzE2LjE4NS40NDguMzk1Ljg5Ni42MDYgMS4zNDQuMDUyLjE1OC4xMDUuMjkuMTg0LjQ0OC4wMjcuMDUzLjEwNi4xMDUuMTA2LjE4NC4xMDYuMjEuMTg1LjQyLjMxNi42MDYuMjM3LjMxNi41LjYzMi43MzcuOTQ4LjIzNS4zMTYuNDQ1LjY2LjY1Ni45NzUuMDI2LjA1My4xMDUuMDUzLjEzLjA4LjEzMy4zOTUuNTguNjg0Ljg5Ni41MjYuMDguNjA2LjczNy44MTcgMSAxLjM5N2ExMS45NTcgMTEuOTU3IDAgMDEtLjc2My0uMzQzYy0uMDI3LjAyNi0uMDI3LjA1Mi0uMDU0LjEwNS4zMTYuMTU4LjYzMi4zMTYuOTIuNS4yNjUuMTYuNTI4LjMxNy43NjUuNS4zMTYuMjkuNjg1LjQ1IDEuMTMuNTU0YS4yODIuMjgyIDAgMDAtLjA1LS4xMDdjLjczNi4zNDMgMS41LjcxMiAyLjA3OCAxLTIuNzM3LjA1NC01LjY1OC4xMDctOC42ODUuMTYgMC0uNS0uMDI2LS45NzUtLjAyNi0xLjQ3NiAwLS4yMS4wNTItLjM5NS4wMjUtLjYwNi0uMDgtMS4yMS0uMDgtMi40MjQtLjIzNy0zLjYxLS4xNTctMS4yNjQtLjE1Ny0yLjUwMy0uMTMtMy43Ny4wMjUtLjY4My0uMDI3LTEuMzk0LS4wNTQtMi4wOCAwLS45MjIgMC0xLjgyLjAyOC0yLjc0IDAtLjEzMi4wNTMtLjIzNy4xMDYtLjM3aC4wOGMuMDI1LjA1NCAwIC4xMzMuMDUuMTYuMDguMDguMjEyLjIxLjI2NS4xODQuMTU3LS4xMDYuMzk0LS4yMS40NDctLjM3LjEzLS4zMTUuMTg0LS42NTguMTg0LS45NzQgMC0uMjM2LjEwNi0uMzk0LjIxLS41NTMuMDU0LS4wOC4wOC0uMTU4LjEzMy0uMjYzLS4xMDUtLjA4LS4yMS0uMTMyLS4zNDItLjIzNy4xMDYtLjI5LjA4LS42MzMuNDc1LS43OS4wNTItLjAyNy4wNTItLjE2LjA4LS4yMzguMDI1LS4yMTMuMDUtLjQ1LjA3OC0uNjYuMDUyLjA4LjA4LjEwNS4xMy4xNTdhLjQyLjQyIDAgMDEuMDU0LS4wOGMwLS4xMDQtLjAyNi0uMzE1IDAtLjMxNS4zMTYtLjA1My4xODQtLjM5NS4zNDItLjU1My4wMjUtLjAyOC0uMDI3LS4xMDctLjAyNy0uMTYgMC0uMDUyIDAtLjEzLjAyNi0uMTMuMzY3LS4wOC4zMTUtLjQ3NS41NTItLjY2LjA4LS4wNTMuMTA1LS4xMy4yMS0uMjYzLjIxLjM2OC0uMTU4LjU1My0uMTg0LjgxNi40NDYtLjI2My41NzgtLjg5NS4zMTUtMS4wOC4xMDUtLjA4LjIxLS4xODQuMjktLjI5LjI5LS4zMTYuNjA0LS42MDYuODY4LS45MjIuMTg1LS4yMzYuMjktLjUyNi40NzQtLjc2My4xMDYtLjEzMi4zMTYtLjIzNy40NzQtLjMxNy40NzQtLjI2Mi45Mi0uNTUyIDEuMjEtMSAuMDUzLS4wNTMuMTMyLS4xMDUuMjEtLjE1OC4wOC0uMDUzLjIzOC0uMDUzLjI2NC0uMTMyLjAyNy0uMDUyLS4wNTItLjE4NC0uMTA1LS4yNjMuMTA0LS4wNTMuMjEtLjE1OC40Mi0uMjY0LS4wOC4xNTgtLjEwNS4yNjQtLjE1OC4zN2wuMTMuMTNjLjIzOC0uMTg0LjYwNi0uMzk0Ljg0My0uNTUyIDAtLjAyNS0uMTMyLS4xMy0uMTMyLS4xMy0uMTU3LjA4LS4zOTQuMjEtLjYzLjMxNi4wNS0uMDguMDUtLjEzMi4wOC0uMTU4LjM2Ny0uMjM3LjczNS0uNDc0IDEuMTMtLjY2LjkyLS40MiAxLjg0Mi0uODQyIDIuNzYzLTEuMjM3LjE1OC0uMDguMzctLjAyNi41NTMtLjAyNi4wNzggMCAuMTMgMCAuMjEtLjAyNi40Mi0uMTMyLjg0Mi0uMjY0IDEuMjYzLS4zNy4xODMtLjA1Mi4zOTMtLjA3OC41OC0uMDc4Ljc4Ny4wMjUgMS41NzcuMDI1IDIuMzY2LjA3OC4zNDIuMDI2LjY1OC4xMDUuOTc0LjIxYTkuODggOS44OCAwIDAxMS4xODQuNWMuNDQ3LjI0Ljg2OC41MDIgMS4yOS43OTIuNzYzLjUgMS40NzMgMS4wNTQgMi4yMzYgMS41MDIuNzM3LjQ0OCAxLjMxNiAxLjA1NCAxLjc5IDEuNzQuNTguODE2IDEuMjM3IDEuNTU0IDEuNSAyLjU1NWwuMzk0IDEuNzRjLjA4LjMxNi4yNjQuNjMyLjE4NSAxLS4xMzMuNjYtLjIzOCAxLjM0NS0uMzQzIDIuMDA0LS4wNTIuMjY1LS4xMDUuNTMtLjA3OC43OS4wNS44Mi0uMjY1IDEuNTMtLjU4IDIuMjY4LS4xMDYuMjM3LS4yNjQuNDc1LS4zOTUuNzM4YS43OTguNzk4IDAgMDAuMjEuMTA2bC4yMzctLjQ3NGMuMDI3IDAgLjAyNyAwIC4wNTMuMDI3LS4xMzIuMzY4LS4yMzcuNzY0LS4zNyAxLjEzMy0uMzE0LjgxNy0uNjMgMS42Ni0xLjAyNSAyLjQ1LS4yMS40NDgtLjU4LjgxNy0uODQyIDEuMjQtLjI2Mi4zNjgtLjQ3My43NjMtLjczNiAxLjEwNi0uMjM3LjI5LS40NzMuNTgtLjc5Ljc5LS43MS41MjctMS40NDcgMS4wNTQtMi4yMSAxLjQ3Ni0uNDczLjI5LTEuMDI2LjQ0OC0xLjU1Mi41OHptLTE0LjAyNy0xLjRsLS4wMjYuMDI3Yy0uMDU1LS4wMjYtLjEzNC0uMDUyLS4xODYtLjEwNWwtLjYzMi0uOTVjLS4wNTItLjA3OC0uMDgtLjE1Ny0uMDUyLS4yNjIuMjkuNDQ4LjU4Ljg3Ljg5NSAxLjI5em0xNi4zNyAzLjYxYzEuMTgzLS41IDIuMTU3LTEuMjEgMy4wNS0yLjAyOC4xMzMtLjEzMi4yNjQtLjI2My40MjItLjM3IDEuMTA2LS42ODQgMS45Mi0xLjYzMyAyLjY1OC0yLjY4Ny44NDItMS4yMTIgMS4zOTUtMi41ODIgMi4wOC0zLjg3M2EyLjczIDIuNzMgMCAwMS4xNTctLjI5Yy0uMDUzIDMuMDA0LjI5IDUuOTU1LjY4NCA4LjkzMy0yLjk3My4xMDUtNiAuMjEtOS4wNTIuMzE2em0yNi42ODMtLjc5Yy0uMDI2LjA1My0uMDguMTA2LS4xMDUuMTYtLjAyNy0uMDU0LS4wMjctLjEzMy0uMDUzLS4yNC0uMTU4LjQyMy0uNS4yMTItLjczNy4yMTItMS40Mi4wMjctMi44NjguMDI3LTQuMjkuMDI3LTEuMzY4IDAtMi43NjIgMC00LjEzLjAyNC0uNDQ4IDAtLjkyMi4xMDUtMS4zNy4xMzItMS4wNzguMDUyLTIuMTU3LjA4LTMuMjM2LjEwNS0uMDggMC0uMTU4LS4xMy0uMjktLjIzNmExLjgxIDEuODEgMCAwMS0uMTU4LjIzN2MtLjAyOC0uMDUyLS4wOC0uMTA0LS4xMzMtLjE4My0uMDI2LjA4LS4wNTMuMTU4LS4wOC4yMUg1OGMtLjA1My0uMzY4LS4xNTgtLjcxLS4xNTgtMS4wOCAwLS43OS4wOC0xLjU4LjEwNS0yLjM3Mi4wMjctLjM2OCAwLS43MSAwLTEuMDU0LjEwNi4wOC4xODUuMTMzLjI5LjIxLjA1Mi0uMTAzLjEwNS0uMTgyLjE1OC0uMjYgMCAwLS4wNTMtLjAyOC0uMTA2LS4wOC4wNS0uMDI3LjEwNC0uMDguMTA0LS4xMDYuMDI2LS4wOC4wOC0uMTU4LjA4LS4yMSAwLS4xODUtLjA1NC0uMzQzLS4wOC0uNS4wMjYgMCAuMDUyIDAgLjA4LS4wMjhsLjE1Ny43OWguMDhjLS4xMDYtLjE4My4yMzYtLjM0Mi0uMDUzLS41NTItLjAyNi0uMDI3LjAyNi0uMTg1LjAyNi0uMjY0LS4wOC0uMTU3LS4xMy0uMzE1LS4yMS0uNTI2LjAyNi0uMDI2LjEwNS0uMDUzLjE4NC0uMDgtLjEwNS0uMDUyLS4xODQtLjEwNC0uMjYzLS4xMy4yNjMtLjIzOC4yNjMtLjM3LjAyNi0uNjMzLjA1NC0uMDI1LjEwNi0uMDI1LjEwNi0uMDUgMC0uMjM4IDAtLjQ3NS0uMDUyLS43MS0uMDUzLS4yNjYuMDgtLjU4LS4zMTYtLjc0LjAyNi4wOC4wNTMuMTMyLjEwNS4yMSAwIDAtLjA4LjAyNy0uMTU4LjA4LS4zNDItLjMxNy0uMTMtLjc0LS4yMS0xLjIxMy4xODQuMDUzLjMxNi4xMDYuNDQ3LjE2LS4wNTMtLjE4Ni0uMTg0LS4zOTctLjI2My0uNjM0aC0uMTA3di0xLjc0YzAgLjAyNy4xODQuMDI3LjI5LjA1NCAwLS4wMjcuMDI1LS4wNTMuMDI1LS4wOC0uMDgtLjEwNS0uMTg1LS4yMS0uMjktLjM0MmwuMDUzLS4wNTNjLS4yMS0uMjYyLS4xMDUtLjYzLS4xMDUtLjcxVjM5LjRjLjI2NC4yNjQtLjEzLjYwNi4yNjQuNzY0di0uMjYzaC0uMDI3Yy0uMDI2LS4zOTUtLjAyNi0uNzktLjA1Mi0xLjE4NmgtLjA1MmMtLjAyNy4wNTQtLjAyNy4wOC0uMDU0LjEzM2gtLjA1MmwuMTU4LTYuMjk4Yy4yNjMuMzQyLjU1Mi42Ni43MzYgMSAuNjA2IDEuMTA4IDEuMzk1IDIuMDU3IDIuMTMyIDMuMDU4LjYzMi44NyAxLjIxIDEuODE4IDEuNzkgMi43MTQuNzEgMS4wOCAxLjM5NCAyLjE2IDIuMTA1IDMuMjQuNTI2LjgxOCAxLjA4IDEuNjM1IDEuNjMgMi40MjYuNS43MSAxLjAyOCAxLjM5NiAxLjU1NCAyLjA4Mi40NDYuNjA2LjkyIDEuMjEyIDEuMzY3IDEuODE4LjUyNy43MzggMS4wNTMgMS40NzUgMS41OCAyLjE4Ny4yNjIuMzY4LjU1Mi43MzcuODQgMS4xMDYuMTYuMjEuMzk2LjM3LjU1NC41LS4wMjUgMC0uMDUyIDAtLjEwNC0uMDI2LjA4LjEwNS4xMy4xODQuMTg0LjIzNy4yOS4xNTguMzE2LjMxNi4xNTguNTU0ek03NCA0Ni44NTR2LS4xODVjMCAuMDUyLjAyNi4xMyAwIC4xODR6bS44OTUtMTEuNjJjLS4wMjcgMC0uMTg0LS4xNi0uMjEtLjE4Ni0uMDI3LjA4IDAgLjE1OC0uMDUzLjI2NC0uMDI3LS4wNzgtLjIxLS4wNTItLjIxLS4xMy0uMDI3LjM2OC4xNTcuNzM3LjEzIDEuMTA2LjA4LS4wNTMuMzk1LS4wOC40NzQtLjE1OC4wMjcuMDI2LjA4LjA1Mi4xMDYuMDUyLS41MjcuMzk2LS4zOTUuNzktLjE1OCAxLjI0LjA1Mi4xMDQuMjEuMzE1LjA1Mi41MjYtLjA1Mi4wNTMuMDI3LjIxLjA1My4zNDNoLjA3N3YuMDVsLS4yMzcuMDhjLS4wNTItLjA4LS4zNjctLjIzNi0uMzY3LS4zN3YxLjM0NmMuMjYzLjA4LjI2My40NDguMzY4LjYzM2EuNzg4Ljc4OCAwIDAwLjEwNy0uMjFsLjAyNy4wMjRjLS4wMjcuMTU4LS4wNTMuMzE2LS4xMDYuNDc1LS4wNTIuMjM2LS4xMDUuNDQ3LS4xMy42ODQgMCAuMDI2LjA1LjA4LjA1LjEwNS0uMjg4LjY2LS4xMyAxLjM5Ni0uMjM1IDIuMDgtLjA4LjUgMCAxLjAzLS4wNTMgMS41NTYtLjA1NC40NDgtLjE2LjkyMi0uMjY0IDEuMzctLjAyNy4wOC0uMDguMTA1LS4yMS4xNTguMDUyLS4zMTYuMDI2LS41MjctLjAyNy0uODE3LS4wMjggMC0uMzctLjE4NC0uMzk3LS4xODQgMCAuMzcuMjEuODcuMjkgMS4yOS0uMDgtLjAyNi0uMzk1LS4yMS0uNDItLjIxLS4wNTQuMzE2LS4wNTQuNzM4LS4wOCAxLjA4LS4wMjcuMjY0LS4yNjMuNS0uMjkuNzkgMCAuMTYuMTg0LjI2NC4xNTguNTI4aC4yMWMwLS41MjYuMjM4LTEgLjIzOC0xLjU1NGguMDc4Yy4wMjcuMDUzLjEwNi4xMDYuMDguMTMyLS4wNTMuMjktLjE2LjYwNi0uMTMyLjg5NiAwIC4xNTguMTMuMzE2LjA4LjUtLjA1NC4xNi0uMDguMzE3LS4xMDcuNTU0LS4wMjctLjEzMi0uMDUzLS4xODQtLjA1My0uMjYzLS4wMjYgMC0uMjYzLS4wMjctLjI5LS4wMjctLjAyNi4xNTguMTg1LjMxNi4xNTguNDQ4LS4wMjYuMDI2LS4wNTIuMDI2LS4xMDUuMDUzbC0uODY4LTEuMjY2Yy0uNjg2LTEtMS4zNy0yLjAwMy0yLjA1NC0zLjAzYTYuMzEyIDYuMzEyIDAgMDEtLjQ3NS0uNzkgMzYuOTQ3IDM2Ljk0NyAwIDAwLTIuNzEtNC4wMzNjLS43NjItLjk3NC0xLjM3LTIuMDMtMi4wOC0zLjA1NS0uNjU2LS45NzUtMS4zMTQtMS45MjQtMS45NzItMi45LS4yMzctLjMxNS0uNTI2LS42MDUtLjczNy0uOTQ4LS42ODMtMS4wOC0xLjI5LTIuMTg3LTEuOTcyLTMuMjY3LS41OC0uODk3LTEuMjEtMS43NjctMS44MTYtMi42MzYtLjIxLS4yOS0uNDItLjYwNy0uNjMyLS45MjNhLjM2Ni4zNjYgMCAwMS0uMDUyLS4xODJjLS4wNTMtLjU4LS4xMDYtMS4xNi0uMTMyLTEuNzEzIDAtLjUyNy4wNTMtMS4wNTQuMDUzLTEuNjA4di0uNDc0YzAtLjEzMi4wMjUtLjIzNy4wMjUtLjM3LjAyNS0uMDI1LjA1Mi0uMDc4LjA3OC0uMTA0LS43NjMgMC0xLjU1My0uMDI4LTIuMzE2IDAtLjUuMDI1LS43NjMtLjE4Ni0xLjEwNS0uNTU1LTEtMS4xMzMtMS43MzctMi40MjQtMi42MDUtMy42MzZhMTYyLjQ4MSAxNjIuNDgxIDAgMDAtMi41LTMuNDI3Yy0uNjg1LS45MjItMS4zNy0xLjgxOC0yLjA1My0yLjc0LS43NjQtMS4wNTQtMS41LTIuMTA4LTIuMjktMy4xNjJhMzgxLjk4MyAzODEuOTgzIDAgMDAtMi44OTUtMy43OTRjLS40NS0uNTgtLjk1LTEuMTMzLTEuNDUtMS43NC4zNDMuMDU0LjY2LjEwNi45NzUuMTMzbDEuMjY0LjA4Yy45NDcuMDc3IDEuODk0LjEzIDIuODQuMjYuNzkuMTA3IDEuNTguMjY1IDIuMzk2LjM5NiAxLjczOC4yOSAzLjQ0OC43NjUgNS4xMDYgMS4zMTguOTc0LjMxNiAxLjkyLjczOCAyLjg3IDEuMTMzIDIuMTMuODcgNC4xNTcgMS45MjQgNi4xNTcgMy4wMy42My4zNDMgMSAuODk2IDEuNDcyIDEuMzk3LjY4NS43MTIgMS4zNyAxLjQyMyAyLjAyNyAyLjE2Ljc2Mi44NyAxLjQ3MiAxLjc2NiAyLjIxIDIuNjYyLjY1Ny43OSAxLjM0IDEuNTggMiAyLjM3Mi4yMS4yMzcuMzcuNTI3LjU1Mi43OS40Mi42MzMuODk1IDEuMjQgMS4yNjMgMS45MjQuMjYyLjUwMi40MiAxLjA4Mi42MDQgMS42MzUuMjYyLjgxNy41MjYgMS42MDcuNzkgMi40MjQuMTgzLjYwNi4zNCAxLjI0LjQ3MiAxLjg3LjEwNi40MjMuMDguODcuMjEgMS4yOS4xNi41NTYgMCAxLjE2LjE2IDEuNzE1LjAyNS4wNTMuMDUuMTMyLjA3OC4xODUuMTA1LjEwNC4xODQuMjEuMDI2LjM2OC0uMDI1LjAyNi0uMDI1LjEzIDAgLjIxLjA1NC0uMDUyLjA4LS4xMDUuMTMzLS4xODQgMCAuMDUzLjAyNS4wOC4wMjUuMTA1IDAgLjEwNC0uMDI3LjIxIDAgLjMxNSAwIC4wNTIuMDUyLjEzLjA3OC4xODQuMDUzLS4wNTQuMTA1LS4wOC4yMS0uMTYuMjM3Ljg5Ny4yNjQgMS43OTMuMjY0IDIuNzE1IDAgLjg3LjE1NyAxLjc0LS4yMSAyLjU4My4wNzgtLjI5LS4xMDYtLjU1NS0uMDI3LS44MTh6IiBmaWxsPSIjREQzQTBBIi8+PHBhdGggZD0iTTU4LjA4IDQ1LjQ4MmMuMDI1IDAgLjA1Mi4wMjcuMDUyLjAyN2wtLjAyNy0uMDNjMC0uMDI1IDAtLjAyNS0uMDI2IDB6bTQuMTU3IDI2LjAzNmMtLjI5LjIxLS41OC4zOTUtLjk0OC40NzQtLjAyOC0uMDI2LS4wMjgtLjA1My0uMDU0LS4wOC4yOS0uMTg0LjYwNS0uMzY4Ljg5NS0uNTUzLjAyNy4wNS4wOC4xMDQuMTA2LjE1N3pNMTIuODk1IDM1LjgxYy4yOS0uMzY3LjU4LS43MzYuODk0LTEuMTA1LjAyNS4wMjYuMjM1LjA4LjI2Mi4xMDUtLjI5LjM3LS42ODUuODctLjk3NCAxLjI2NS0uMDU0LS4wNTMtLjEzMy0uMjM3LS4xODUtLjI2NHpNNS40MiA0OC43MjVjLS4yMS0uNDQ4LS40Mi0uOTIzLS42My0xLjM3YS45MS45MSAwIDAxLjIzNi0uMTA2Yy4yOS40Mi40Mi45Mi42MzIgMS4zNyAwIDAtLjIxLjEwNS0uMjM3LjEwNXptNi43MTItMTIuNjVjLS4xNTguMjM4LS4zMTYuNTAyLS40NzQuNzQtLjAyNi0uMDI4LS4zMTYuMTA0LS4zNDIuMDc4LjE1OC0uMjM3LjU1Mi0uNjYuNzEtLjg5Ni4wMjcuMDI2LjA1My4wNTMuMTA2LjA4ek01OS40MjIgNzIuNmMuMDI1IDAgLjAyNS0uMDI2LjA1Mi0uMDI2LjE4NC4wMjYuMzk0LjA1Mi42MDUuMDUyLS4zNDQuMjM3LS41NTUuMjEtLjY2LS4wMjZ6bS00Ny4yNC0zNS40MThjLjAyOC0uMDguMDgtLjE1OC4xMzMtLjIzNy4wNTIgMCAuMTMtLjAyNy4xMy0uMDI3LjEwNy0uMTg0LjEwNy0uMzE2LjIxMi0uNDc0LS4wMjYtLjAyNi0uMDUzLS4wMjYtLjA4LS4wNTMtLjE1Ny4xMDgtLjMxNS4yNC0uNDczLjM0NS4wNTMuMDUyLjA1My4wOC4wNTMuMTMyLS4yMS0uMDI3LS4yOS4wOC0uMzk1LjM2OC0uMDI2LjA4LS4xNTguMTA2LS4yOS4yMS0uMDI2LjA1NC0uMDUyLjE4Ni0uMTA1LjMxN2wuMDI3LjAyOGMtLjA1My4wNTMtLjEzMi4wOC0uMTMyLjA4LS4xNTguMTU3LS4zNDIuMjktLjUuNDQ3LS4wMjYuMDgtLjA1Mi4xNTgtLjA1Mi4yMzcuMTg1LS4xODQuNS0uNTI3LjczNy0uNzM4bC4wMjcuMDI3Yy4xMDUtLjE1OC4xODQtLjMxNi4yOS0uNDc0LjAyNS4wMjYuMDI1LjA1Mi4wNTIuMDgtLjA4LjIxLS4xNTguNDQ2LS4yMzcuNjU3LS4wNTUuMDI2LS4xMzQuMDgtLjEzNC4wNTMtLjEwNS4wOC0uMTg0LjE4NC0uMjkuMjYzbC0uNDczLjMxNmMtLjI2My4yMzctLjUyNi40NDctLjgxNi42ODUtLjE4NC4yOS0uMzY4LjU1My0uNTguODk2LjMxNy0uMDguMzk2LjA1My4zNy4zMTcuMzY4LjA1Mi4zOTUtLjIzNy41LS40NDguMDI2LS4wNTQuMDUzLS4xNi4xMDUtLjE4Ni4yMzctLjIxLjUtLjM5NC43NjMtLjYwNS4wNTMtLjA1My4wNTMtLjE2LjA1My0uMjM4IDAtLjAyNi0uMTMzLS4wMjYtLjIxMi0uMDUzLjIzNy0uMjY0LjU4LS43MS44MTYtMSAuMTMyLS4wOC4yNjMtLjE4Ni4yNjMtLjI2NS0uMDI2LS4yOS4xNTgtLjM2OC4zNy0uNDc0LS4xMDYtLjA4LS4xMzMtLjE1Ny0uMTMzLS4xODN6IiBmaWxsPSIjREQzNzM1Ii8+PHBhdGggZD0iTTEyLjcxIDM2Ljg5MmMtLjEwNS4xODQtLjIxLjM0Mi0uMzE1LjUyN2wtLjE1OC0uMDhjLS4xMDUuNjA1LS40NzQgMS4xMzItLjg0MiAxLjIzNy4xMDUuMDUzLjIxLjEwNi4yOS4wOC4wNzgtLjAyNy4xMy0uMTYuMTgzLS4yMzhsLjcxLTEuMDI4LjIzOC0uMzk2LS4xMDUtLjEwNXpNMy45NDggNDguNDZjLjEzMiAwIC4yNjQuMDI2LjQyLjAyNiAwLS4xMDUuMTMzLS4wOC4xMzMtLjE4NGguMDhjMCAuMTMyLjAyNi4yMzcuMDI2LjM3aC0uNTUyYy0uMDI3LS4wMjctLjEzMi0uMTg2LS4xMDYtLjIxMnptLS4yMS0xLjIxMmMtLjA4LS4wOC0uMjEtLjE1OC0uMjEtLjIzNy0uMDI3LS4xMDQuMDUyLS4yMzUuMTMtLjM2Ny4wNTQuMTg0LjA4LjM0Mi4xMzIuNTI3LS4wMjcuMDI1LS4wNTMuMDUyLS4wNTMuMDc4em0uNjU4LTEuNjg3Yy4xMDUuMjY2LjIxLjU1Ni4zMTYuODJhLjgyNS44MjUgMCAwMC0uMjEuMTA1Yy0uMTA1LS4yNjQtLjIzNy0uNTU0LS4zNDItLjgxN2EuNjUyLjY1MiAwIDAxLjIzNy0uMTA2em01OC41OCAyNS4xOTRjLjEzLS4wNTIuMjg4LS4wOC41LS4xMy0uMjM4LjE4My0uNDIyLjMxNS0uNTguNDczLS4wMjctLjAyNi0uMDUzLS4wNTMtLjA4LS4wNTMuMDUzLS4xMDUuMTA2LS4xODQuMTYtLjI5ek0zMC42MyAxNS4wNzRjLjE1Ny0uMTA2LjI5LS4xODUuNDQ3LS4yOWwuMDUyLjA1MmMtLjE2LjIxLS4yOS40Mi0uNDc1LjY4NS0uMDI2LS4xODMtLjAyNi0uMjktLjA1My0uNDItLjAyNiAwIDAgMCAuMDI3LS4wMjZ6bTcuNzEgMTMuMzMzYy4yMzctLjEwNi40NzQtLjIxLjc2My0uMzQzLS4wMjYuMTU4LS4wMjYuMjY0LS4wMjYuMzdhLjkyNy45MjcgMCAwMC0uMjY0LS4wNTRjLS4xNTguMDI3LS40NDguMjM4LS41OC4yNjQtLjAyNSAwIC4xMDYtLjIxLjEwNi0uMjM3em0xOS43NCAyMi4zNDZjLjA1Mi4yNjMuNTUyLjM5NS4wNTIuNjU4LjA4LjA1NS4xNTcuMDguMjM2LjEzNCAwIC4wMjctLjAyNi4wOC0uMDUyLjEwNi0uMDUzLjAyNS0uMTU4LjA3OC0uMjEuMDUtLjAyNyAwLS4wOC0uMTA0LS4wOC0uMTU3IDAtLjIzNy4wMjctLjQ3NC4wNTMtLjc5eiIgZmlsbD0iI0REMzczNSIvPjwvZz48L3N2Zz4=;" vertex="1" parent="1">
                    <mxGeometry x="456" y="241" width="46" height="46" as="geometry"/>
                </mxCell>
                <mxCell id="14" value="postcss" style="text;html=1;align=center;verticalAlign=middle;resizable=0;points=[];autosize=1;fillColor=#f8cecc;strokeColor=#b85450;" vertex="1" parent="1">
                    <mxGeometry x="453.5" y="290" width="51" height="18" as="geometry"/>
                </mxCell>
                <mxCell id="15" value="负责对css进行压缩、加入前缀" style="text;html=1;align=center;verticalAlign=middle;resizable=0;points=[];autosize=1;" vertex="1" parent="1">
                    <mxGeometry x="393.5" y="215" width="172" height="18" as="geometry"/>
                </mxCell>
                <mxCell id="16" value="" style="shape=image;verticalLabelPosition=bottom;labelBackgroundColor=#ffffff;verticalAlign=top;aspect=fixed;imageAspect=0;image=data:image/png,iVBORw0KGgoAAAANSUhEUgAAAhAAAADqCAYAAADzlnzfAAAAGXRFWHRTb2Z0d2FyZQBBZG9iZSBJbWFnZVJlYWR5ccllPAAAbVBJREFUeNrsXQdgFEUXfrt3CTVglxZUQKVKU+kCilRp/iBdxUIRQbBQxK50bBQpFkAUkK5SRUWRDmKBAIIoJSDYkISQerf/vtmZ3bnLXXJ99+7m839/liMku29mZ755FUBAQEBAQEBAQEBAQEBAQEBAQEBAQEBAQMBykOLo+WL9WRUv1wICAgLxvr9Fav2Pq3VYiqPJI8XoMyvcV0EiBAQEBCK//sflOiyLeSYgICAgICAQDEuLdobpfi1zBMlOxf3zaNeZQxUnvc5TJZdeO7nPhSVCQEAg3vY0fp1PcFv/bQVYEAKB020dzitkHY4ZC4UUA/ftbp6SONLAJkoRKu6fS0H+3gJRs0WfBmF4dEWiv1q22x2yPQFJBCQWLZmTWKxUDnnAxKKOBFW0b1e/V5IFiRAQEIhtKE4JFG2py83JsuWpgtfnzx7788Dmhec8HCaDJREKd5BjpCGbivvnvGsjZtwccU8gunfvXqp///7V8A81atRoyH7olVde6bL522y2UkWLFq1mJSWMmPAx/PTLKY1M2BKIkGtZVjmDHOVDLCAgIOA3i6BcwglOVWrfXAGmPHWv1+/Oyso65HA40vjP/vnnn13sOjU19eCFCxfS9u3bd/q5555LFQTCFfYoJAtkj+RIgLt7gn2eCJrpClHizTffrNG8efMbrr322jKlS5dubLfbk4oUKVI9ml+V3OwMyMlM15SQWEwVY1htOoFQBIkQEBCIG/KAcDod4HTkESkIng6FJUqU0A+PFStWJF/btWsHY8eOhdzc3NScnJzT6enpB//999+zO3fuPPHwww//DIb7+JIqGWyJViWHIxOe3Bz851FHKqxOIPidT3azLtg9WBd0X9fMmTNrt2jRok25cuXqJyUl3WSz2ZJi7XW5lJEOF9P+0x68WB4kOqiiVCZhS1B0FUqSIBACAgIxTh8U42DvyM0BZ14OZOdkh/R3JCQkVEBBklGmTBmoXr06PPTQQ3D+/Pnfjx8/fuDQoUO7+vTps56zRmRxpCHXg5VCcrNSOLnPLU8i7LE0gXbv3n13pUqV2l1++eWtZFkuFesvTPqlLPgn7aI2kNkK2BKdOoFg7gwSAyEsEAICAvFggaAxEE5HLiEQ59MyIvKb1T3nBpS6det27N2792t//fXXN7///vsXDRo0WBrLGrcigeB3Oxu4RtImcFaHonjx0ksvXa8ywK5ly5a91263J8fV65KXS4Rc2/PQbqf9hVMRCboCAgJxySH0NRDXQ8Vpym1cffXVLVAcDsfoc+fOrXzllVdWzZ49+wz9a2Q1l+h1FmeNyAXXTDqHhyezFKy6zbBjs40jDsVUKUnlsqFDh9Y8ffr09BdffPGb5OTkJ+KNPJAZRVk2iuJwqOTbqQn5T+RvCggIxB9/0ESh66G5qyBawtXD7YOzZs369NChQ5O6du1aR/34WlWuoHIZt68V4/Y7G7gmBVgSUXdOfeuttyr8/fff46dNm7amXLlyHcUr44mgCuogICAg1kMrrYVVq1a9c+XKle8eP378GfUAXC4WtGwVF4a724LdFzKy4vQ66cSJE4MrVqw4TLwc7NUw7AyKl8wgkYMhICAQb+uhlQ9S1113Xfs333yzWY8ePeY3bdp0JRhZG+lUEOjiyKTXGGRpSXeGlSwQzFyD5IGZcUqoUnrmzJkNLl26tEqQh/wkG010zEyneBBvnwsRIkRILAl4+cyKwKzAJk2aDD1z5syMW265pYr6UVlVrsL9jkoJbh+0g0XdGZZ3YWzatOmugQMHzi9WrFhVwRgEBAQEBGIFZcuWrbF9+/a3hg0bdkM03r/ZLgzGqGxgFIAqRtkXpKSk9KhevfpUMc18s0YYNFwRYRACAgLxuQ7ya2AUrIMlSpS4ZurUqeMSEhJGvv766wc97M2XuGtLuTPMJBDuRaLYvWDMQ6mdO3d2UcnDOPFG+MwaQARSCggIiPXQ25+tC5U8lBg/fvzkjIyMl2fPnn2cfswThVzu2jKNEi3pwpg5c2bVBg0aCPIgICAgIBAXSExMLDFu3LjHatSoUSJa7lm2wO9HYXUeinXp0qXMI488Mk1MJwEBAQGBeMIVV1xx/erVqx8HrUbE1VTwmgVXWqpWhJkEQuIElYGVJYsuXLhwnMrEyoupJCAgICAQb6hSpUr9119//Q43AlGKCrr4WS8o2W0/jTsLhAu++eabRiVLlmwjplCgEMlcQoQIEQJRXot3wIABvaPhPs0gEMzqIHNMCntblLj11lufEiQgRDzC07WAgICAWPcsD/UgffXGjRuRRKDb4jIwSl9jyeuiVEyvDxHpLAxvFSeLfvjhh3fwfdgF/HxpvCVhSCBIhICAQHySiChe+xo0aIBujO/ANXUTm2+xapX4ebaZtMkyLox27dr1FrM/kLdFiBAhQoTEmhujdOnSV0ybNu02K9+jGXUgJO53o+uCtOS+6qqrWghCEBh9KOhaQEBAIN4MENFPHzS0bNmylvplM2guC0QCt2/L3H5qyqNG2gLBZ14wAlGkb9++d4qpLyAgICAgYKBmzZo1KleuXIrtlaokglG52XQPgiVcGOXLl79bTBUBAQEBAQFXjB49uppV781MF4Zevrpo0aKNxDQJAMRGRy1XpPa7h2sBAQGBeFkQXdbA2Hiq22+//Ub1y7fc/ilz16Z26DSzFwYqwbZhw4aG0Tagp06fhZOqMFQsXwaSVREQEBAQsA7SLmbCjn2HQXHm6cSiRtUboHRSyah5hhtuuKEaRxr4uAfJw8E8bggEQfXq1S2bunng0K+wbfePcODwMUIY8NqV8GoUd+TQB2Hk4w+Kt1VAQEDAQjj4ayrc9/gEyMtMI3925mUTQZRKKgE1q1aGmtWqQC31a5Pb61jyIJiUlHTVTTfdVPzIkSOXrHZvprfzLl68eAVrWRfOwZyFq2D919uJpYEQO0kjd7K9iBt50AiEJNnEmyogICBg9oZCD+L4VZK1Q7sk29W1O4Et3Pr3XszMhR37DhFhQDLRs0tr6NHpLiidZJ2eVp07d75+ypQpR0DLwmAbEZ+RgSaWiHfpND2IsmjRopYgEBfSL8LQZ6dAvbv7wNyPVkPq2X9AsiWoEy+REIf8kkj+nohstaamIv5BQEAgnpkEHvxkIpLNpq/V3tdzTQ4ePQUvTH4XbmvbH6bOWmSZx2nZsiW6MfCkmghGRgZrqOWekRExd4bpLgwrVJ9EV8X9Q1+AU2f+9GNDtnqWsSARAgIC8QZf6lkX/vmF9AyYMutj4raeP+2FqIqZiCTs8a4AtDx0vv9JSL+UpbsoZFsiYaoakVXZq2zLN8GcTocemCPZEq317ohKUgICAvFpeqD/L4MsadubYiuindvx2pGnru15HtZOY8FUcG1XtMrRO388Cv2Hj4OV708w9amqVatWVf2yCbRunKXox1jW+iK36udG+vRoKoF47bXXTHdfPPD4i5B28RLICUV0AmFLKKpKMUoO7MSHpo8LHRqnI5eIRjgSLMy2BQQEBOKMRsh6lQBQl3DjEKg41f85C1xL8WCIRAPhkDNhxw+/wLuL1sCjve8x7XmcTic+EGk6yRGIi2DEQ+SBq+siIhuCqQSiXr165c38/dt2/8RlVhR0bFcsfMxX8v0/f28KmJwoLCAgIBDxVZFfAz1fF7zOu34+dc4S6NGxJcncMANXXHHF5VbUc1y7MOYsXKlbF9BtwawOsvpVTtSu1b/g2CufeSEZUSsWCaL0RG1EM04BAYE4tEHo67IEdi2gEq/RAmErZEV0OkCyOVzW1IwsJyxd+x080rOtKU9z2WWXXU73a29ZGKb0xYhbAnEh7SKs/2q77n4gUbiUQNhU8iAnaL1LCHmQZGNcOF+ZUxFpnAICAgLW4w9GkUbJJqvEQXGzThR0EnOSOAh3LF3zrWkEgsLmRiBYXwxGICIOOV7n17qvtoqXTEBAQEDAJ6T88hucOnNOKEJYIAC27fqB1oiiHArzhZmrAq8lg1uZ2i+1YKps3JXi7RpEEISAgIAAXRClQr/D2BdwT2BWaqf6dfv3B6FHuWvNunm+m7X79iQIRCSx//CvWtUyWmUSo3YZgeDdFhJvCnMhEab3Mckfx+npWgRBCAgICPi83yJ5YG4OjJGTbFrWBhKJg0dOWOEBJCuQB6KTeJ1GWDxKQEBAQEDAV6T8clwogUNcWiC8kwdh6xcQEBCIb0jMMA0KKYWtbZNYCvv0XxeEeuKdQGD1Sc8orMaDAtYt92jlexMQEBCIQiohI5PQDPWy3a4SiP+EUjjEpQsDUzgFBAQEBAQEAkfcujAMZ4Xk+TDPX0tePrcSFB/uP1ahgIUHxm2OxauXzPJjFONjJ/Qf8O83MvVsJKhy5w+/QMO6Nwv2APFciVIp5GVihUckt+9VFM/Xpj2HUvC9xUsWhj+FYiK7/BgDgI7VePYsWXSM4mbshP4Doi8s8VNi6f2SiJWLewKhgPeoAV+qpVshyiCQ+4+7w66AGCMBof8Q6EpElgkCodNKjU3a9F4Y5Jqr/SCJjAxLv84KXyzL6aR/pmcrK1iG9FOL5Hqt902R6N+5fn8sbU3WH6NYHLt41D9EcCzEviAIBC0g5Vo8ijdNSWLCWHRz0hc+rFevOOmlw6hdryj65+zPDKVKFofqVbQO8o3q3qR/XqHMlUS8YeePR/TrU3/8A6ln/4G0i5lw8NdTXqYXF2HDmTxxrkm0dL1WrIY1+3Ez1Ubl0HgwjwcwRg3raONSvUoylE4qpn+Ofy5VsliBt4DjgsJwId0YI/e/8740ROnYhVj/+D4kl73S8vp3XdVj4D0SBCK2TlGiFnR0jh0uhEgWaqiCiyFbGANBQf/24K+pZGHEhXLHD0fI17SMTHCNvPWpeG4Uzzf/ootxI6pWuTw0UvVaocwVQY+PP2DEj21oKUdP0fFLDXAsrDB2/kZ3K/neD18IQij1z74Gr/9Yeo8EgYgO+wOxPmjuC2zjrTFcu4sLw/V99BCcqFjAI6Z4+UBx7RoazUSAN8MqTic5VWnXefqJyunIherqhtS2ZQNoWLtKxDYj7WRWgUjrprVh+IOMVJyCnT8ehfWbd8GO7w9q1i3QCtGwuvp87xVtvsmcJYw73Vr1JIWnWP6k62QnWsNUTsZH/Tu0/DSsU41ErjesfaNuBTIDuEl6mx9oacKxO3DkBGzfsx9S//jbz7GTuM69YXZz+KF/RAP1vWhzRz1L6R/fGW/6Tzn8G6SoXwvTP69bF5eH17GQ/F+HrLTmCwJhBQYh601SZLtGIPCab6YlYC558OqqcORp1yppaFC7MnRv35QsjLhJWQV4mkN5qNudkJaeAeu/2Q0bNu+GL7b+BIqdI6wu7jO6UCp216ZuzFRrFSLBNqd85vE8l80Mx6N107pkk8DxiQbgxsaTi1Nn/oTt36fAjr0psHHrj3AxM7OQsbNxxCJMbg4f9Y/o1rYh0X+jelUt9X74qn98d1D/+O7s/OkonP7zAtW5jXtH+DgJzuXhbSykMJA5QSAEgmOWigXuOS5yNYm5FRdGlILiFqyCUkkloEfHlkTwRLts3VZ475MvIP1Stp9zyQomWaXQz3ED6NZGHZ92jaJ+tiWXuwZ6oKhjh0g5epKMH1qXDh0746feQmFaL1z/+E4Mf6ADtG5WOypIQ2HvTtsWtxNh+t+57zAs27BD1f9pi74jgkDEgQWCRfVKuolMa+EtFfKyWjFZ0hOJiEJTG2eS5U2vzFXRsG5V6N62EfyvTYOonXYVyl4FIx7uQmTZ+m3w+pyl5JTLn6gk3iqGGULMbBuUGTY0c0zhXGNoAXLSU68zLwe6t28C3ds1VQnEjTG7bNS4sSLUeKI3uUa//ftLN8GGb3ar138bY+fJzQHc2kI+l/mFKCT6R+L25MNdY1//qjzcozXR/xff/QCffL4ZDvzyu25p8OTy4C1GWjEof/QvEuQFgcjHH2gWhmQroIW3QKSIg/aFN8nm6a6KBrdUhuH974FGKoGIJXRv14TI3I8+hdfnfkIDL5EvFDV8rnbkuEZshDlmWDd3EjWPO9XxceZlq+NyM7w4rBdUvzE5rqYtnvRfHNaTCJrZl372tUoKt3txUXEp4rKx5GobmRS0/of370TcFPGm/4e6tyJy4Jff1PfoM9iokrm0jEsa+bYXUceiiHaN7mlKJmSbom97vulfQBAIgahcIIY/2AG6tW0U0885oG9n6Nm5FUyduxTeXbQmiqwpV8LUkX1FSV8VjevXIPLKMw/D+598AUvXfQenz4W36RIGIz4/pA8hofGOmjdXgmmvDtfjjV6f84keLyEgCESYDlasNCrr2wq+ZkDl/34zrVpRWYqyYJMsWhwe+l/LiKSVWQHo633lqf7Q456WMPzlmXDwaCo9cDpIASD9FEvbCisu5vFwZGoorpYhmu2iWYYc8PB9d8MTD7aPm/HxfVMvbrio1m2DN+Yug1NnzmnWCDp2eDKW6cnYOAX7p//Wd9SDqaP7Cf17eI9YvNHStVtg6effkGwatAqxbDtA/SdIhejfhzVWIH4JhML+X/L6Nx4NW4qXGaSY+iTeWEzBz2LeHbsujqCbZHOh6g3XwhtjH4LqN1aMy5exxs3Xw6ZFU+CFye/B3I8/U/VjxIIQn65CfbpkM2JR/aHP1CDjQn+vk3MnJRVLgKljHoI2d9QXK2chIDEhqpS55R6QyAaWYGxaXJaX0ahJ8kn/LzzeE7p3aCYUXAju63AHkTu7DYFDv6bq7gzS2UIuWP++rPkCcW6BKKgXRkH9p6waQhnIs5h9z/z1Q93vUhfHbuKNVPHKyEeg8W01YcQrcyA9y5FvHKUIEFj3McLaAe++NigqMl+sgvVf79QJfKDrDLtGa8Mnbz1pag2HaMOBw7+pckyLhwhibRQGCEEgBExlDHwxKIcRLKmerJKKF4HXxz4ErZvUEnri0LZlQ0iuUA6GvzgDDvxyDBQuEEyxJeqZGpp5nFomQAqyhglvNqcR/rnZUK1SWbJ5CZO5f1iyaiNxzfEuJ68F3hTDIupJ/0tnjBb691f/qzca642le39EL0TFJIHwEgciTr0WPy6MmHaGgi6LJW+PEOTBCzBlbfmcF6HaDWXAkZ1hSG6mKtlEMBpf162u70AWSS3an4j6s0iUvypk85o+UmxefuJC+kVYu+lb4prTxodmUBQwNkL/ocW6Td/pcUR6lpfgD4JAhHiXC4HE0rNERtAUu3T6M2STFPCO0kklYNW8SVCjaiVzxghPvuo9CPiH9V9uDVr/SBqE/gMkD19thZOn/wjj+yEgCIQSos+j8VkiYn3QgsG0nHXN6uDIyYS7G9eET95+Muor5UWORJSEVe+Nh+qVK4AzNwucqg51wT9T3aK5nOncZysEXQ8Vp6IFtOJpDV1LxRKE2yIILF61UaszIxk9d1AwAFYvHMa5m4j1SOg/hARum4/6N0ph+7x+Cv4gCESBh/ZAPo+2Zwm7KLrZFhdE9OWiYJnj9yYMFeTBT+ApdOX7E6CaSiIcOVmqXCKiEYhsIgpxZ3Cmch/HiYkxXg54d9xjYvMKECdPn4Vtu37UNigS/6DFqRDBQlKSTROQvLwvDnjx8ftEwGQQWIsWoML0z8cLKX6snwKCQMSOSSt63BaY1vbG8wPEWxeoJaJUSfj0wzehZrXKYR0nrGPQqF41ofAAsW7TlkLWh4L136Z5PZGqGYz1Z+U6SEtLD1j/wn0hCISAyYSGBUxqQZNaJPmLT/QS6gkBiZg+7ilIKp5IXRdZmhWCujKYzrXiQ4UseJybiRTycuRAuatLwfAH2wtFB4HZ85dqpfJlmQoWAdNE67kjG/UH3PRfspgdpo5+QCgxKAL3ne/6FxAEQsA65EGPJGexDxhJXrk8LHtnrHBbhAg1bq4Eb786QnNdENcQJRDqBsR0rkWdsz4KSgHj5dTTBvHnYYVDgcBx4NBROHX6rL5JsQZPzO+utf82qoe663/4A+2E6ygIXEi7COu+/M4n/YueR4JACFgcSBrenzxCRJKHGO1bNYWRQx8M6c/EhmWx1rQs0li8cn3A/xa7tT58X2uhxKD0v04oQRCIcB+UPRUVUTxeuh3Y/Pv+iD1HAM8SynvggvD4SHI0y747brCoXhgmjHz8Qahx8w1asSKUvFzjGssfM/M4P09cxot3M+XAiIc6C6UGiXVfbuVOvja9E6cu+B/WjMIhcdd//05CgUFiyaoNhesfaN6FP2UoTV3orYs4bqalGFHodG7oC63XGqd8a10IsGBPmEiE388S+ntgRXAQWMN/eP+Olu/WiLnip1LPkq8n1a/uaNqgLvnahH61GhZMewla3juYFC6SbLkgYSonORrYuUZcbpOAjZdTczMhyl9zmWUDJ9kYXUhLh/2HfvX6fU25MTJjvJA8nDx9TnvpSAYArT7JMi509RsVP5n+SxZLgLYW7THC9I/YuusHy+ofs1/2HzpWiP4lY9mWfFnDLbjmCwIhEOvAzejJR+613mKY+gfxkeJCuG3XPuIzLQiTuOuKFcqShREXyvat7iABjWYjufy18MyQfvDcxFlB/ZxHe99jnVP8pi1kfDCeoKANq6Cx4je1ZHXcKpYvS65rVrsxbONGgvcCRLuWDSzj5tuv6h3HYJuq+1Dov1SpJKil6r1WtSpQs/qNZCzCgWDcRwKCQAiYZslhvS1yiTkW4x5eH9PfUreJiwsKLopaAJVMD+qJ4Gu/0tSz/8Inn35FZOizU6HXve2gZ9fW0OS22qY+28D7u8LiVRvg0LHTIOXlUKuDnfTPYJBsXNt642yln6haN6tj8in3LMxZsJw8RxqSOkkzNPOtrwPB9u8PAqComPLOR5QIliFEountdaHxbbdATVLlMwQE4qutRpt17J5K712vP6ANDNfzwtD/wz3MjX1AIo3ZI/iOYBAoe0dIF1FJgkB7+m6nut+weZf+GRI4QsRDrP8lKzf4qH8RPCkIRGh2Py/X4f63VnuWYOA0mmPpkeTdoEKZKyxCHNbBpGkfqIviOa6wjM1YaKTAG1B98ukmWLL6C2hy+y3w2ujH1IWwsmnPOW7MYOjafxTRv7Zo2kFyJurPqHgyvdIMgOo3JpsWp4Ib1+Tp82D2gmV0XGjRHynYxmAFE8HUs7v0TS253NXQ+NZboP1djaHx7bVJ5c9A5llaeobe2ExW9a83PMP266yZFo4FT+FU/SPhrl4l2bS5g+/H7PmfqPd/KeTviCekX8ohumf6x+dvd2cj9T2qDe3UMQhE/2g1OXXmXOH6l6UQrbECgkD4vfEqFiQOViARxu9qVK+q6acptqCMfe1t3QSrWRwKa+orBaTnbbt/ghZdHoGB/e6FcWOHmvK8TW6vAz3vbQtLP9/s4T4LrgfRplk908ao3+BnycKf/54DGZfA5i2SyyWpG/Xuje3ubEyyXNq3auazu2OtS/Gogt7H/EFJbe4wJ74GyVunPkP0uJLQviO+6z8t/SLRfTD6X7xinY/693dttPqaH38EQo9mUU9F5tmSvJUr9XXvsEJRMm/3H5F749pzO2jgZF4OvDH2UdMn9ez5ywh5AGaCxcnGn6jkBP1zkPmiMv4RCC1/n7lvcmDuR58Rk+2HM15ST7XXRvy5nxncBz5ZvYnej5aVod0tPqOde0TJZZ40MiHQ9YC6aXXqMxTSM7LUsdBMzbIdyw2zNuWBjEuAc1hx6gGnTmcubPx2L5Fhz70OPbu2gfZ3NSUn5II24vWbtoKE988F7jGda9H/stc1xAzrg0YeHocDh39XXwHuHbGF6h0Jjf7b3dWEkImene8uxAK0nhaJKkT/SsC3KQpRWoBA8LNPKqVCDEF0Wm0UPpLfqUWSo+UBc9nNAi6KY8dNUxeTDdpiQhvnkDWQ84Oib1Q3b+LfM2Lh4+Ko8OSJZZ3kapHeB4+ehJZdB8Hq+VOgZrUqEX3+5HLXwH0dWxK3ikzTOcl9YjwEdTORhVRyfRp0YUQaQ0aNJyZzfizkhKJE8hG+MBEINo7AjaPk0BqTsfFlMS/JZa+Bnl1aqdKGBK7m37xoXA3daPl5pfVdkLzehRkdafs99qxKHo5pLiP2XpB+EaF5R0Klf+bqeG7CLJVEtIKB9/8vn/4xKBrdR+R+C9G/KB4VWphaB6JChQrVzT++iz4YoRCsnvfkw11MJQ+dej8Gi1es9WGcwtveF1MqO/UbRk7ZkcbIIfeDP7X/K5S9MuIVQtHnjhkW0dHDRcOpM2dh8owPoV6rPjB0zCTYtvtHjkCsC+p3RDrVWQsm3mfCOxK4/tHNMefDlUT/ne8fQUiDTiBI9os59xVJDBw48IZ4tUBIHGFhvzMhNzfXJjhcFNofuOhxzYWRBw93u9O0UtWEPPQdCgd++c0l4hpPJGgW104kCVyAlXGtlbaVuYkqFXpqYt+hdb106P9OP93kSZB+KRu69H8GNq+cHVF3Bp7O0Ny7dO0WLiPDZmRkyIpu5sVnSS4TeYsRKfajj1GCbnXArzZ6zQL5fB2XQE6/+k/kXFGs9bM+t/UAYQc5KSNQt5989hXJJEB/PVqd8MROIv95lxk7DUuSfv+K2+ZjhsVuiUogXK1xRraCbg0K4h0Jt/53/ngEdnz/qjrXy8DIxx8gY+Gr/gWij0BIbhYPG0cgRBBn1JII48VOKp5gagleQh4OH6NuiwR9AbIRkziXyqUvLnYuwty/tC5X67+x8JEFVpaNb1IJFkab3z/0Jdi8YlZE9YF+e1xUnRKfkZFH782OPg3TNjASLX/aiJbHmAdGIMh4sc1MtoUtCyP/OCr6fFZvQjensz4VBLRqJPm3xMxugx37DsH271NUlXKbLt2YyRxjGxj32/CaJxGRJnBItjHo13BVqPpPLGZc24zMBf1ZwpD6GAr9n/7zPxj2/Jt+6R+imEhcddVVRa12T6a6MMqVK1cfBKIej/RsB6WSzLE+DBn5GjWHWxPoxhg7bnpEfydmZODpzBdEmkBs27lPvDCmzsejQglRijp16pSx2j1F2oWBv49VhimRl5dnkgvDkz+Lu1a8EFXF2/ebHQcB/j9LML+KmBO10wBmHzzSo60pT46+XGKOtdkN94R6GmFmcFfzrGF1AL6drxS4ehTgClLhz6YnIa0HhTEn5n78KXRo3ZwUzYkUBt5/Lzw/cQ4dIyOgUmLWEg/3GZETcPpFeqo1gtok3XLjGu0fqbOiIoERpS8b90ZKs/OBfopdt46wzAX+lMwHfmqnYaP2Q/61R7uOdPzD/oNHDKuC/izUGkHcB3RL4FwAwbwj1tS/PzcX8fS2gg7cl7ntp5KX65giEJIXAlH8qquuMrf8HbhyAEnhJrTi5VsVD/PKZOoQyLME9guNzAuWutm9Q3NTrA8s40LzlRtuCy2Sv5hBIOjnLqloIfKJagsdVS7eg8SnikncnFFgyqxFsCqCBKJH51aqfmZo96mSB5mldKK+mNvFLOLLVzYk6Xa8O0nO/z1hX6C4HRJ/P6cXVvZJwdgR5rbDzctGzexgVGLVCBAlRrIrYfW6hkT6vUm/mF//utk/gYj7s8SS/v3mDx7WfLOW/WuuuebyAvZWU/w0prkwhg0bdo1Zv3v/4WOF2SC8xt1ah4/6f5+hjD9m14/0aGPKcz+rkof/VBJRWGx0pHRS2D1s2/MzrP96R8T0g9X8MIe+sOc1e876MofNjP8P9Nqq60Zy+bJxrf9Q3EPqH3+bMnZVqlS5HiyGSBEIxpTw9yHFTejbt69pDQTS0jJAIHB7B2P91atUMKWGwNZd+4j7guWwo7nSRiP4mduCRGXTUwgLyCPm8lCfbEmZX4n+bO00Te6Juw92b3M//iyiesKywBiQ5nTkqpJDhLgyWEQ7s0REeAOzPOiYkoMxmzPE1WLTy23LNOKfZS6gsCwAZj5nLaSt1HsBG8IJ/QcHswgEolevXuVAs+Tb6V5ahEoC97kMEXJpRIJASJzY2ENWqlTpVrMGgflhQ8ezzd/UI3FmULDvBThpDwUHdG/X2JSnnvT2+7rvHIWkAvLEgS4sJO5B39yl8OqJ+z0sJoM19GGy4/sULVskQsDeAopTi3/AHhkorOEZiWhXIk8gtJbPBb0/1qsBoe1p/Pja6Bjb9U1M0jcuu2E+ZxuhhWxAqH+t10T01OAIr/79lwsXL5m24vfr168G3UdtHggE+1x223+j3gKRD5dffnkrs353JBfxWEb3Dk0j/jv3kxbP0RvJP+fDFZE7bZYvQ9ooWwl4Am7aoJ54eUxEh7vvEEoIAgePnjDtd9evX7+2lXQRLgLBWx10t4UqGNFWdNOmTe1lWTaljDXpyujtAB/o51ZAmO9ZLx6FkdFOB2n/bEbhqNnzlmqmSYzE1k8dxinExXTpMg0jAeP3sXvQ+guwe0uA9Vxb48hYIeoQaxEru62wzAtFK0eumBDJN/LxB7l7cHIuFepWwSBdpzHfrAljXknAB+UWMt/cHufUH3+ZoP8HXN5lLASnSa5xjRYqOhba91pt/QtQ/yFYV0+Z6MK45pprknv37l2JWh1KqFKaCl4XpcLcGGE3EMgRGGHdbUEfuuitt976gKnWB/1l4F4M95ek0GgcxWINtfx8Fr9F0bIvqDSqUzXij4qZF1oJW0mPNdDaP9uNa8lmtCTm3RYRtLjq7Y9pcx/+PtMzsmH73v0RPG02oxsyIxFOjjiYM3nRtTLg/q46eTA2LYc+vzQ3mcIRV7CodV3yTFQV39YQM/zpWK30mSH9aDO4PD3Nl7i6qBjj4eBIhIXGIlD9BxNFSZ899czfkGaiG2PYsGF3cQSiFJWSHIFIiNTpKeIujHnz5tW/7LLLTCsgpdWwLyxm38pxD14ZRBDP4vebBG1aRD6EBckDkoiC9WB9n+72PZEjEE10d4Hn+8FqimZg3JghxDoSPWMXG/0UeCtEr65tPKwh0ZCfYf547dh32LSxa9Cgwa3NmjW73Aq7T6AEwt1FwcTGWRwSqRRnZpa77767XK9evV4y84HXbtoCAgHAaZiasf1wctmrI08gNn1nRGJz0deybFggwpZt4efrYUSPy0a2CMnOSIz44uO1K6jJPPjTD9+AHp3u0gM8nbnZxnVeDncqztMLBmlFg6xI5AODmRvR9Amj4JnBvcGRm6lJziVD1D/jGBCJYf0HuvNt+Ga3qbcxf/78npwVogTdZ9l1UW7/tYNrcKUnCdhaIQeowsKIRAL3ALqZZcmSJa8UKVLEtDyik6l/EBHwx8DBzJaGGbxRvWqm3MrW3T/qBEK2aU13UPTYB70SnZnkwfXV4O+L9enAZkCRRK1qN3k2P5togWB4+9Xh8MHro6DcNaXVzSpLJRFUyMZFzelOI4bDJXZDAYvHSfgGM83hTw/uAyvfGw/VKpfXiEN2BhFtDGjmjjOX078z5vQfyM6HdV3MRCUV69ata0+JA08eUIqBEXdodzvgF0Yc/Fo4I+LCaNu2bdLZs2fHXXHFFXeaqXSt1XNYdtlYZQ8ePzWDQGDmRVpaehSOhef7STly3CQLhJLv2sy8dkS7OxvB18vfgacH9eKqmioF3nPB19GFlCMnTf39GJPyzaq5MG3801A6qYQf+owN/QcCbO++bc9P5r437drdM3fu3MZm3oPs3Ujjk3sCmU5JKklgRIRize4rUWbPnl1/xYoV86699trOZg/6Io8EwoOvS1H8/NwCe5Pi57P4Ity/1aL3NWlU7+aIP+r+g1oTINfCMlodiPy1HqzlN3XJYaf3HMlNu2bVyh7nvEK/mm2FQODG9dTAHrDr0+nw5KP3QskiknEaVk/GTjSpE8kCBU/FupuDSR6XaeLQ52pQ8z8c4uF+dlpA/whsA79nwweEyJW/5jLOpZFpWIaiXf8BjJd+RFeMjA/s3fHJp1+aPmaPPvpo/y1btvSsXr36NWzPVeUKTi6n+/Fl3P5cmu7XbO8uBoW7PDy6OWTvRhqvRMLOmUeKcmaTUtzNXd6iRYvrUlJSRg8cOHBV8eLFq5qtaCQPntwXLks9xwdcgo456y+/Drh8buYBl6vVrritUV6fxRcB0M2VpIyUuiCUL3OFKembpIujJJEGVuSVJtkWhuif41cFLCMAnu855eipCFogKhvj6Ja+if9/wMS8dneUQiIx4D7YtWY2vDS8D5S7siTk5aB/PkuT3GxdcANz5OUScbpkDSgu89ZK88HTGrLdxDgIT0Tumcf6wJ7178ObLz4G5a4upeo6i5Mo17/f4yV5eZeRQHwNp86cM33MmjVrdteuXbsmLVy4sKsbeWAEgicOLGsjCVxjJjy5PAp1c4TchTF//vxq586de+3LL7/8TGVFA6zyYkx6+z0QCB5mxT/sP3QkpvToWg013JtCyQL/fuO331tOP7iRDejbGfZu/ADefmUYNK5fPWbfqR0WsUDks0h0uRu+/2IBrHxvHLRtcZtY/DxgyjuLLHEfJUuWvLpv376D09PTp2/evLnLY489Vi4Sv9fuxij44hMJ3N8zkwZQMwdt2QYl3nzzzRrNmze/QcWtJUqUaJyQkFDeaoOMpY+xgJRW2Ed2afPqueOcUvhx31pFIMJ0b+4tyxWoUOYqU570ZOoZvTV3/md0ut6nhXoPuAaYGfd54NCvEb2NJrfdAtt2/4S9vbUiQXT+o+ApKuXICahx03WWXKR7dGxJBONG3l20ljQlSyNdJY32zayssfZYsmvrdnbNntmjwdWkd5a2yt245Xtoc0d9S+q/8a01iGDRq/cWr4MlqzdFsf4DgGTcO2s9T57XngjL1m6BZ4b0NSUrzRuRaNGixWMokydPPvLvv//u2rdv38+rVq06uWDBgj+5yZejSi69xihe1iAql/4dwkEFkcd9v5MKIQj8KBIXxbFjx27Jysq65r///iO9kBMTEy+/+uqra5FvkOXLk5KSqqtEIUklDDdZfezRbTFr3id6S1eJn/SSDfhqZlE3sU1Y+xrVi7w3yqfS1WyjxgXKalHhVrgfPZNGy6bR1nbjvLB0zTfw8pMPWHr61bjpenjrpSHw8lMPwPqvtsPchasJ8SHrkrqYK3btuTBDR1JYi2o791rL3BvOtWI3i3ByvxbTAq1KIBhwk8Q5grJk9ReEyG3YvDt69e/vcMmyfo5GssSe94kX3oaV775mufvF/RklOTkZOnfujN4BOH36NDF3HT169IDdrj2ASjB2XXbZZYRAFCtWLPfw4cO/v/DCC6mUMDDSkMWRjzyeQOTDddddN8VmszWL9v3uQlo69B04krJlGQRCsYhfJ5QQhWjSoA4touYZ677aZnkCwYAumZ5dWhNB68nchZ+qJ/h9kPrn+agdH9yQXxrRr1B3k1XA6/+TT79SCeiWqNZ/MMD3avKMBVqJcIujfPny1fiviKZNm/bkv+fEiRPTVAIxzZef5+7CIN29HA6HrBKIqB/YZ197Gw4c/pX2SrDrTFm2F9VZJG9q09WgFHwKjxZrQUh/Dv1qWgClogV0SrSDpOJwgJKnkWMnxkQzDwZI1jIgKYbySE0Des9bd0a4IRir40F7HmifYXltTVmnTv9JTNPo944mJJe7Fl4dNUAV9RT/7R7Y8PUuWL95J6RnaLUVeNM6Ky1OHp13X+q9U8DtRBymiaRI+ldJ9xjLxKLyzGN9o07/Tw/uTWTH9wfhk8++tr7+g3iX2Xjh/crUuqKo+8vUdz4mnU4b33ZL1O+bf//9NwZZJquSSS0P5DzOfUs2UNcGc2FIHKEo6nQ6o/64PmTka7B45Xptctps+iRm1QvZ5JZ014bkw65bUMyBWbtTeGMgFO5nNqp7s8kvME0nJfthHtmQtaUXSIaI6+JjpYWHZjw4jHvW4xAiBCR+WhtvbO0t03dBvS+ZufAUmDrr46gjEDzaNr+NyFsvPw5LPt0E67/aQWILFPa+s14poJmjFTpXtNbPNn1j0JfDsFUzVfQfr+h7qAzvfvQpDOjXlavFEF1oVL86EdQ/ujdQlq751oL6DxASz3GM2A6tSJwdHnziVVj5wSSoWbVSVO+d58+fx2yNCqDFRVx0Iw5AyYPEWyBiCkOeeUUnDwLRD+znMHr4ozQgixI+OYH4WvUTjGx9ixmr5KdZIyJLIGpVLzxcCQONP1E33h6d7476OYM1DVDS0jPgkzXfwHuL10LqWWub2C+o9/ruR6tJdchoBxYHQ3lt1EBiGcLg14O/psb0OoXj1/n+EbB6wVSoVe3GuFibPWVh2BVFicooQmy01LH3Y3Dg0FG9+6F20ioCNua2UK9lnhHLcn56KWCcnNnpWXGYEkCJaNqwHhGBYM68RkEw3YqD7wMj2aRPB8ALU+epC39jUo8hFoDP8WivDkQw4BKzCNZ9uQ3SMi5yJ0h/MwiCXCt40z1/D+q69PrcZdCjS2vLRPWHQv/33dOCCOofLRJLVn1hrv6DMUHotyDrAaJYnl5J0N6pi5mZ0OX+J2HhO+Oi1p2RnZ2N6W6lqKKZCbooxxd0M5H7EZ1UmnQ6nVG3m6JP+Y577tfadRO3hdErAcmDnEBFvZZI/4REjWDQtsvREglswrFZF0VRhD6img/ShkhcXwmXnh3qIp5+KYdElcciMAD4zRcHw+51s+HNFwZDtRuupX0fMvVCSU6H9x4crlXaQrAdsXbvkuZiZevSE8+/FbP6f/nJ++GX7z4i+m9wS2VT9R8wiXDvcWNPoAdTTfAd6vLgMzDnw5XRTiD4YlNFKIFglSrBE4GISkx6+13o2GsQnDr9R75zV6y35Y3cs2ppdALRb4sorAX8ui+3qqfEDTGrAS2L4274atkMWPXBROjR6U4vOjGnfLIW1T8/pmch6h91v3fjPMvpP7B1P//fjx0/HfoOHkMs47EKb70wosPqsGsf1Gl+L0yaPl/ryIgWB50JosWhGBEpoYjKEqnQwEkjWMePQB0L945RQtljiJXadRqnVTwRlCpZTOy/0cwbPM0HWkwKSIG1BD1j6bmJc+DA4d9iXi1oZn7r5WGw6/N34L4Od0AJ7MHB9YDQSzfTttakZDNmADm1mhp6v4dArXO6BdRm6F+2w5R3PiZZMbEOzOJA/R/ePB+eerRb5PUfjCWCjp1mvaNWbW7fwT1ow+ZdUK9Vb5KmGzVLhRbCwDZIv3phRAWwOFTfQaOgY+8hcPLMX5Q8JNAMC0ogElwHkg0wcfSyl1Z9fP97Q+S/NpM08PdQ2H36LqyWvROcSB4IgcjTAwAFopRDKIrbvDXWBK3Amp1KAqRlZEHX/iPjgkSQjazs1epGNhR2r50LIx7uCiXUpcLBm9ZxA8OeD259HxSne48R//oseNM/fn1+0py40X8p2kwtovoPskeGQb7t+v6i7T103yEuc3Rp5MLQZ6dAp37DC6zFYiEUShyikkAgcXjs6Zeh9h1dYO2mLSEwEYS6WEIsHVXzf55c/lqxC8fU+CoFfg+JKlcXvf2HjsaNdlgzqa9XzIQene7yWVfhGJd41v/eLxaQrqCR03841nzXMUXygCSiU99hvlXXjQJEBYEgxOGZV6B2sy6weMU6GrWrBUiSDIvE4pok4NdimqApidZ80IJdJE08DnI0x0CEz8fHt/BGcyGaGwVihUQoxlmDiBEYhgF9ckIRIumZOeomNkILTo4j4FzHJl5fLp4CDevcCI6cDENyL6kn4SwqOaQwlyZ5pNcIsHbWvqwbuv7lAvWPpbvjCUgknh7UE3Z//g60uaNumPQfmjVfGz66v+D40X0H9yB9P0ooru9T278/SMYUycTiKI81sjSBWPvFN3BPz0FwS9NOsHj5Wt1kxCLGUWwJ6iAlFNMk0RgkYj5iJAO/l8U9iNoQfm0weutn4b6IPXgojMP8ufmiyh94hpS7jjdg4PCq98fDvNdHQ0niny8sa4D65n0+YLCofk7/9vz6v3/oSyT9Md6QXO5qmP/ms7Di3deg3NUlw6D/ULxHsr6/EPLH9h3cm7g9Sd+nEoqSvWv73gPw+KjxcH2du2Hi1Ld/OXHixD+CQISIOCBp6DPgGdi683sQEBAwF9h+/P7HxsKkae/H5fO3u6sxMatjjQyz8Pjo8aTCbixH9XsDdpP9evk7pFJnzL1baenw4suv/XL99dcva9eu3fJoIhKWJBAdWreAn7d+BmuWzIbRwwfoVfR4KwJj6zz7Ay6vWq/tkK++QxCMNJSZDiGzFIT43lz+rRXTVQWCmisFzA2J9ifQzOjMRZhIrXxaDZUpMz+CLvc/RapWxhvQrL5g2gsw/63noGQRWcsUyM7QswbwZOzMy9aEnIi5TAEf3iNf9I+Nq7BQUbwEV7rrHytbrnxvfFj0H5qNgRtHt/3I2/5VulQpeHL40OuPHz/eff369d2uu+66KwWBCAGaNqxPShh/t+5j+Om71TDqiUegYoVy+kC4uCXyXUv5x1iXAENvwdu12RtDQfcWomcURaRigEN48OWysZUkjy5CI6OpqOaXV/+8/fsUaNF1IMxesDwu1di2xe3w1bJpUK1SWWMTQ+E2MIUvhMSnGnpbf8B3/accPQktuw6AydPnx6X+G99aE/Zu+IDGpoRI/8GlZHDchEta8Lo3adL09jowc+KzcPzHL2DCqy/cEk3EISoIBI+KFcrCqGEPwY/fLocZE0YTk5aAgIA5SEu/CGPHTYdO/Z6Ak6fPxt3zVyxfBj5b+Db07NrGtHuYNH0eNO/8MBw49Gv8WSNKlTRd/4GiR+e74OvlM2HVvEnq/beO6nGIyohCVDoqf7UqFa69govIzeYkh7Yu1gqPGCWZxUlaQMAzWE0CFtQn0x4NRfR+Mi5BYars/OEI1G/VFybP+JDEScTbJjZ9/DOkkiJZczCoTxc8BedQyfPRkkf1D77r/9CxM9Dy3kEwdvzMuNM/AvU/bdyTIdJ/CMDKxZPMtTw9QwTv774OzWDX5zPg7ZeHRn3HzqgmEAxYRW7vxg/gqQHdIamozYVEaBOHpveQNsYsOjfCEboCAlHHIyQuqtzuJaq8mEvG05SZC6Fl10ExXQLb6yY2YaS6kT1N1h+t+FGmnmJIDjIu648SFv3PXbga6t/VNy7dGj27tA6t/v1nDbooXMM6/L2YJVKtcjlYPucl0uY8VpqkxQSBYHjmsb6wav4UqHFzJS8D68t1NPa/8G1Sx+4zCoRnzgT27pw6fRYeHzWBlJdfvGJtXGmu1/86wMhhD4VonQlM/2iBmDx9Xtzqf8bEZ8Owzvs7Xq7y8lMPwKZFk6HxrTViUu8xUxShZtXKJF8bzUQYWJOXfcmoqZ5rsFGtDKqil0D1e331cG2FrVbx4T6j/RkFgrcs8EFeBc8Z9j3uNf8TXAP8PPSdST37LyndW7flfbB45fq4Ue/IIQ9Aj86tSLllh7s7VS+97BbQ532whP79tUR0bQOvjRoUIv37sWTSQntEsF+H+vuqVSoHGxdOIG3kYxkxVVUJ66m//epw0hSHkAgqpOiIOqgOnUA49YkUzb0wALwkTEAQQcfenlER7c6jnD24fGF/KHxuc9HkMtevgTQO0hrUGVkCWqoh+/zUH/8Qi0TdFtpGFg/1CzDAG7MEcBNhjaC0Qkd5xtrD+jZA4etPKPRfqX57mDTtg7jQ/8AHukHPzneHTP++9Awi+wjdU/B3NKx9Iyx/51mocWPFmNd3TJZlnDFpDPS6tw2Y19o1knaHyEk8FrCJTYR7vrt+H2ZpYAGk2nd0hWdffYuUpo9lfDR7EmkZbt564/p9+N5iATDU/5BnXoX9B4/EtP7HPz8calW7Ecxo8X3fPc1hxdyXyGE2HmCP1QebPn4kYYeaCc84dmGEuYKFPdifbRJ4OJqJ0yr9KtHS3xgRjv0QmtxeO6J3govdmFfeoGMnk7bT/FgK+DaeWO2O1Oin5m9NfzZ9fH1ray+5GjLYv1XspMktGxOJjhHLgkI4nXmkr8Ocj1bB7A9XQIe7m6kkvz20b9U05rSN2Rl4iLl/yPOGHmyaHhTqiuAmsX/vZZD6X/LZl7B49RfQtEFd6PW/9tCra9vY1P/E0dCiy6Mh1j/P0QyC5iTtxfMIeXjz+QGxcsLgMw7AG2u1e/nHMYFxY4bAz/tTSOEV9lgsNUrfgBSZfyPFXkN0oHBki61YcuAvW5Bgnes0863NIBOCQPg2olRPjDzo859UwpM8kDGpcHKJGxWbJzaJLMzaAm3Tfz4u2k66gUmkZwH9HqcT1n21g0hyuWtUEtFEJRPt6KkxNtD+ribQ+NZasG3XD5pfnOlB1blC+8pI3EHGb3IfpP637dlP5Nlx08m9Dnqwe0zpH2PiBvbrCrPnLwux/o1tUsvqAEIeMOYhRsgDrgUKRx6cbmYtF8R0ZylkojMnPy92kCgGK2MuEJvAzA1c5Jt3egju6PggzJr3Scy4ytAKYXWkqbpGKy3qv3bzbkT/seJiGjm0P9kDwo1SJUvAyrkvxeX7626BcKiSV7Jkye7q13Jdu3a95bbbbrsqMzOzWFZWVrGrr766WN26dcuVUJGcnFyxdOnSVyUlJV1l7Q3oRhilTqTJMxZoNArrQthyKVs3zH2ESxV6oPWWImQVhOjeOK8O0w8yd+weZ0YFUGZ1kO0J5BTNPjNMkb6Y3+PdDAH6qUu34tgTDB1KEqdCJYAxkvT3SJLs+d4vJ1r+bPRzPAE6Hfo1O8kd/PUUPDdhJpH2rZoR9wZaJqIVWK0SMwM++fxrkBzZhh5k3oXqi9UnMvo//ed5Xf9Nbq9DdI/jEIlNOFwHSAyqnDLr4xDqn3YpplkdiLdeHBoVMQ9//vln6vnz5//+7bffUmVZdn7xxRfHOKsD7Nu37/zmzZv/5RaAdFUy6DUqMI/jCbrWZE57JaggrqHi/rnMWS7sVapUSXrkkUduatiwYbXaKi677LLLraY4PNHUbdmdfCWFV1RB2GgalL5JFdrq20i7IJG9eTnkGgtZPTWgW8Sfq1OfocQMSQaiSEmwFSlBN9pEfaM1UvcC4SNO/SXBdKgRD3eFpwf1iPhz3lCvrTZ2NNKcPCNnig/qGeONR3Cun/C4hLjUJEXRzcUKN5dYtT7t0vhcIWb2HPq55r/HTaBn17Yw6MH7SDn7aAOe5uve2UNfZ1jxp/DN4dDrv91dTTUXRxRaAzH2p27LniT+I3j9G7rVikTlQqP61WH5LGtauX/99dfft27dmvL999+nzpgx4xglAdm8scDL6ZO5LTI4AvEnFZfP5RDc5KXRo0f/2KJFi5WXX375+B49ery5c+fO77NUWImJ4gIkEBxSfvndHCtSDPlmBfwn/7PnfQK1m3WBjr0Gw6Lla6LLCqGSnqYN6kW1/rEo1R0d+hFB/eOmHD1WiCTo0PqOsP38l0fcb6nnPX/+/H/vv//++uuvv37cjTfe+EH//v23UfIQFtjB1V6JjIRt/Be4z/HYV8SDBSKBim6lWLp06b+qHK1UqVLp5cuXd6xbt25jKyh24APdYdYHS1QmmgeSI5eas2wgKfT2FYmLSBcwjqyy/jUtI9OUWyjFTKgSN0aSTc8mcPlcoLABNQImWZdACKUBR3L5WXqgGvd+4elX0k3BrN0yfR+Zmd3JZRCQ/P082P79QWJxw3LNvbp1gEHqOx0N5nV0BWzb85PxXE4uI0AKQUZAhPSPweiPj55Imqj17nYPDHywO3HTWB0DH/gfLKYl1oPSv8JbIBzQsO7NUOOm6yzxjOp5PXP27NlrRowY8aP6x1wq4GZ14C0K/Pd4881nu/GBLI4nKIxA8OaLXDdCkc0RDTtHIJimi3DEojSu9YxM/Pbbb7n16tWbpz7QnvHjxw8oWrRoMbOtEBjtveTTL8GZZ/j1FT2lTdJfJO8TqaAyqWbAl3K3wa1FBo+Q1AXkhGkWiHWbtriMjcT5Momfl6WbCobgx6BKHuZTKH+V5LqR0cVXAhsp4qONnaK/d5JN/dxpbGBGBoHhLsSF+9QffxESMXnaPOh5b1vSpdfKG1m7u5rom7GWEZBLdSKDoruQbFGj/7SMLNLKHYNf26lr6uAH74MmDepaVv81q1aB5DJXkXokwekfXUIOXT+P9rRGfM5PP/10uHPnzstOnDjBTEO40bPT3iWONKRxhgGeWLhvGApHFPK4n5mPQIT92Pbmm28eq1at2sSzZ8+eMVvRg/r3FPtHEEhLzyASaVSsUEYoX8AjFq9YB3Wad4OOvYfA1p37LHmP2uGlWUzqf92m76Bjn6FE/2u/+Nay99n+7tDqH4Mm27ZsYPpzbd++/cc6deosVsmDKSEDtvzHEuBzQB2cqSOXYy1McujXTHqNcpEylWx6nffff//lqizp5549ezay2WyJZin72quvJAtOWvolwsbRXGeYwX0oMML3hiAlUVmAYS707HxXxJ9n0cp1cOqMFtci2ROJMDbtkqEQcLEU/nkdxPTZsnEdkrsfacxbtJIUkSKnBjwx6VkYCnVh2IDv8yDEm4BxHXFzjbd7YBYk1oXSprtXSKAnK+OM/R9k1gciUb22k3cYg+HwPVikvtvoKsC4A6tZJP7862/48tsdNFhVJuuH9lx22pNH4tyF0an/lWu+Iq6Cisnl4MZK1irjnJWdDSs+3xSY/hVuDaSlsDu3bgRtm99q6jNhrGHjxo2X0/36Et1vcd89r8o/9M//0j9fpF8v0P06g/6bbM664L6/Z9E9ne3/eeBWYEp2M2E4ObNFFhg+k4v0FzP5jwq7URTcyc5Q+YOTv/F7v/zyy99ffPHFGWZPJDS18Y1VjL4YTtfmFoU2yVNcr02H4uXeIDRN5uh1yi/HI/5k6MIoVbI4bVSTS0Rx62niaoQTRKFwEgGRr/QLnsZHdm0WRXs94EYl24pogm2sE4prQqLoS2hSpIRLS2vMdNi+NwU69RtOMpT2HzpqmQ2spjqHWeS+a2M/mg7Irz/8fI4y/WMjr36PPadliO36wTL6b0rW/UD0z3/m1L+/jcnkAYMle/XqtZY7uF/i9uW/3fZgti//ye3X57nvv+BFLnIcIIvjBoxAKBGNPJs4ceKx3bt37zV3ItUDf1uy+ra7mkgcItK+VvuZKUeOmzNuDeuBj8wOzKiBLyScLZJ9GV/Xz7eqm1fzjv3h2dfeskTWgDF/o2UOB69/dG30HTTaEvrHbAwjDTj4FuqN61U39XnGjBmz6vjx46ZnOsrejdYu2nVy4uCu8zjzRiZlLMxa8S8VZEN/Ufn3ueeeW2bmA9eqVgViBWbkZR8wwQKhEz/F6Sa0E54STP9yAeuAutuosGJhKGgml22c+RxddrZEvaU11ghhp2Fe5i5cDc079Ydtu380/33FdGRLz+HQ63/D5p1Qp0V3WPflVtP1T9xafuvfuGadNyuUvQpKJRU37Tl+UzFnzpxfqdUhjcq/3D77N7f/XuD25Uwv7giH2x7vdHNVeAuy9BhE6Y04uJMIVoiCmVCyvBAI5t5A+XfTpk3HU1JSTIu2qUkIhBWrSPqPy1RWHWmYZ4GorxfDYfEYil4QR9H/E4gBEsG3sGZ+eGZaZ/08yEZWxBCygRXLJ/h56h//QOd+I2Dxyg2mPhkG3hU0h62xLoVe/+kZ2aSxGKZ/mmsFqh+g/o2/w+/FjA4zsWbNmr3cof0Ct9+yffYfLwQii9uv87h93OmDeFSQKcnzy5Yt+8bMAaipWyGCYf1WLWMdrnszfub271NMsbZUrFAuSsZCIDJz279xx5biZhaiatbo1ihaT0Kvf+yzMebVN6LgGQv+nho3X2/aXWK9hyeeeGKvVbQmh1DrPFvhLRMZnJmFBF6+/PLL2xwOh2mOsdJJSdzdU1Llcu3FL8h/zn+/aSeakm4j4ek+g/CD5nteDTtMIBCI3v/rYJgeMfAJC8I487ggKFYUR8QQxJQoHs/IWutqli0g2UhWgMwCAKmZnZ2OtSC/RFII6cChX03aozy9m4W8vzGm/zkLVprmziAuX3/172ENLF3SPPdFSkrKz2BkSeAeeh6MgEi2z2a4WRr4vTmkjDUUFghPLg+eQFwC1+wNYlo5e/asaW6M0rjxBhsnxF2fMql7HYnn4BclvlIa/36EKo6KYu0mcxYArOjHZ87oEdSYicFE7LexGU+Zf/sCbxkE6JuXbEWIyPainBQhJng0p5t+2FXcSQVYNw44xPofOmaSKR1XS5dK8l//Hr6/gglp7AwbNmzA5kcs7ZKlaf4LrtkUl7wQiJD7yUyr//vzzz/vN+t316oe2kBKrHAWT8ATnBkLAEZRt7/7DhAQCPZ9XbIq8vEQtarfLJQPWn+NOQuWR+39J5e72rTf/f777x+3ki7CSSAY02HBlnnAFa34+OOP95v76IVRbR/+3uQmkKR8LGPQ5PTtIGLUtXAGaQ51O3voAdoSrPtqmynPPKh/d1LAS3Hmks6BKKS+PX5GRRzZ49RMwbIHJK30uiay1gaetoJnpvV1X22P/Am4dFIh5oXC1p/Y0f/iVRsstvYrBZiJCvoscsDaD7///vslMIIfWSHHbM7awIIjI3KzcgRGCE0nLHUkhyMQf0BUQ8rHqs0AphPp0cSeiqKEaA5JEme6VBeF9SYRCEznbHJ7HVIEhhWVci0Io7j5bwTiDrpfXtarzRKh1VpR1ptAIIT+Df2n/vG3pQp9RYXl7OTJs9yhnFWJZu4MvmJkxNJ6TG1hmJqaetgs/hlqmBWYVbPaTRF5VvefgxaIC+nmkKbRwx+N6NgKxB5wnmy1UKXEeNT/gYOCQPiDI0eOWM5XLkdornhyZ+Tk5uammzV7C6xY6oMYVgiWM23OANasVplYH9xP5E71NO7Ua7dD4EIa/7LntGlttCUt0nr91zvNsUI0rE+a47DWvKQ8rUPrHsiXuA762YVEsUhEsI21tszRYD8yf22mtH/fn/KL69rjtWKyEhf6NyV2zBf9F7gemof//vsvu4C91ZRKZHLkhi2/O+P06dPHzOO/oQtNRvP+gcPmPAqr8e4aE5Br9L0PUXqjS8oWbazz7kefm/YyzZw0FpJKFCXkgTwrfiXXfCyEtzoosZDa6CxYrPIzzRbO8yZxxZHQUR/pXg1aSWcf9O9tLGJM/9G57ptHIXbv3v0n1aYv+YIxRSBiHmbFQJgZ2X3gl9/0bqCRBrZInjl5rJh4AkGRb4H4AbEACUQdgeCZEcvEQLmkKMrfUacxj7Xi7ZBy5IQpt4OpjbWq3eRSltXoUBnKGvt8nXxZf/Yp73xs2lB0uPsOGPTgfcTy4MzL1sSRTV0amlvD9QQXxVCMUymzLrlYXoj1JZf7O4cPgbSGbVYLQs3TrVmuPzfPg0VLRJv4ixOpZ3zTvyM+9G80t4rtQ17ICND+/Wlgat6feRYITwQi4/fff/85WgdT4v15KoFIyzCvMVrvbvdwi1CY+kRIwBEnwxRJgilNfDEnPD8cmtx2i0Eg8nI4V47Rst06vQYCIQ5skzEKaOkkSd3sWzerQ58ZY1800dw4dA4UyB/YXHHo/1aLJ6F6dObqv8tFnzGQ7YIttiOJk+4Ewpv+OXdkbOs/so0N8xO46MKuXbsuxKMFIppW64Bl+x7zuFCHNi3ALB8n+nVnL1hq6qgtnDXBbTGKj9KMjevXgBVzX4Z5b4yi3QGD+7lPD+ju4eeE7h2xkmAVV3SDRZRAnCp4A3t6YPzoH6sB1zKbwPmtWwEzCIR7vww9h7Vo0aK50au6/CZ9s+IBsMkUs0Jo4uCKSjm8uDP8H0W+bpbE5XrPWbAC/ruQHtzPDwK4EXy28G2oefMNmhUil0petLgz3Grve3BVkNMotbI0qnOTShxeIoIkAlG9Ullw5mSqz51FRMnL5YprOb0YN5z69zSqezM8pRKIPZ/NVL92g5JFZHDkXCLizM00RHcV5RRgWrfQoqu4ugnYe9Gza5uI3gYSbW0D418kYz4qeTmq3u+DPZ+/A0892j3m9d++VZOI34oeA8EtZCbXAhQEws8VkvXJQMktXry4+QQiqEOgNv20lDAZUn753bTHGDXsEShVsrhh5nY4iACX0ghOxZBAnpkmNEgsPUsVSX3utPRLpDStQkmKGUSCkIiPp6sbak19EyXuDCqaPpxEgtZDMML/bl1o6p6TuikcTBxGaq76DA2ROMxRicO7r+jEgaFRvWrqZqNuMDlZmujPzHqFePq9xjxJKl6U/BxsOf30wJ6wd+N89WsPKH9VKXBkXyJCfq5OznL0e+N1q8017Vm0+eLh90ZE14prlVYqeK+l1Gft0emuyG9e7v0XUBc4Pqo0rlfd0P8gTf9vv/JETOof5ZnH+kTc+nDhQrrLmi/x19GRiBG3BCJK3Beern3/twdMJBAYkDT++eEBPm/wepv74QrTCksZJCIJPl80AwY90M2PMVVMmmO+30OPji1g5XvjYNUHE6DxbbU8fo/mwgn8WWpVq5yPkI0c2h9+2LwEZkwcBU1urx2x5w2fnjUM6NcFSqsbdSSxdef3Bd5nqVIl8ukfm8eh/j+c+WqAJ3aL6r9vZ0gud6051ge/139P14JBMNjN3KVlWTZxJAqqvyH5MEkU3fSl0H+yfe8BUwcT210j054y40NwYtEnd5Yo2zQh9ytxxXQkz3Y8xdCJHrhFrvM0UyTTg/qz0i5egsnT58MrowZrv0qWwWazmaKHcWOHQpMGdeDx0ZMg/RINbuUi11kGSeF6kIKf5rwOmXuCnUL1b+GuaR8TXGB7dLoT7uvYXL0uvPsfBgSiq0bWx8vOuWqcXuaz4c4pVUCLYjT3o5w6cw7mLlwNa7/YAqf++EudSnaqT60LI/2DFmRLf6PE65Dl/hPXlxRGnRvvNStzrl3nEEvN04N7R3xO7j/4i/bMNPja0Id2nzWreg8oRPKAgvrH4m2z5y2NWv1Xv7EiPB1h6wMjcBKXPcf04FqPwtv6b0qNJkEgCplpijqgUTwaktuEUwnE9ymm39XoJx6F65IrwNhx0/NlR5C69Ipd30S5gAbPC4dLe3CnvhAA6zuh/2BtwZq7YDn8r0NLqKEuhna7nZAI7cdH3svYvlUz+OHruiqpmQez5y9zeRZf9CD5RCILmuRKwToExSUWA8kFnorbtrgd2ra8Hdrd2cg/C1T5MlCqRFE9G0i2c7EeBR1E6ffUuOn6Qn8HkppXRw0ksm3Xj6Sj5bqvtkK6+juxsBjTp+I0xl1xmSMSp3M5zDp3UiLlIBsXAjevBdNfMuW9XPvFtzpZNQirrD9tcvlrfNI/nt5RsHQ+NqRa/+VWSD37b9Tof/W8yRG3/njTv8TpxJzCVtEP4cIIMcy2QiDQ9PnNZx+Qr5HGCxNnWGYs0AyM1ogfvlka8aA5X4E+7/s6toS3XxkGe9bNhbdffcJv8sBQq0bgRcV8sXLwQAvP9Imj4dieNbBqwRRTzNL+oF3LhrB6/pSIZ15om9c3hRNAP3WHLqtxzz4O+75eAl+vnEX0X7NqJcvqv/GttUzT//6DR3zIwBCIFguEBaDwlmV3/qwx6MIYqZcCTes371RflpqmPyGeSGdMGgOjnngI5ixcDVt37iNBnszUSU7hvNnTw/MqLicJrc8EO0lj7QVcDND0vWjFGv37d+z5WT3xLyUFnngXhmQiw0ddTB//NIx8vB/RxeJVGyH9YmbBepCk4Iy5iuJVh7j4Y0xBu5YNQjpXsEfItt0/6r+XBbM61TuS3axlbMYrARIIFzJxW20ir44aQDKR1m/eRe5j3abvuF/HnfzCrnPD+pJUPBFeG/VYxIMm859+6btAy8Cza2YJSC4fOPmqWbUyEQSvf2wWlqbHJZmn/wF9/wfPmOA2Yli0fA2nf7tH/SvenlwR7gtBILxODK4Qi8JNFnyhfMkk8PBv123aAq8+84hlHhNPha+NGkiu0aVx4PCvxPyML8+OvSnG87o1F8INJbnc1eS5cHFLLns1eVBspc0D+wl8vHQ1pw8J3pz1kfp9daF+nRqmkwdPukBZ9+VWIttVHaSe/YeupTZQJA/m34Cml/avk8teRdwDeDpEsoALfbhOYUhMFI64sGuJv3Zf9dXPMf01dDq+Bgb06UiEzQ/cyHBD27b7Z7puJ7ia3EOsc9y8Kqh679m5lSkBkzwwfXPtxm/0zVuWjM2bN6GHynrjTf/kvVf1j2tAJPSP7jTUvdn6JwSO1z+tHKw9r41zZ0heSIPndV4g3glEmHAy9Szpcx/pIim+ADcuJADuJCDUSL+YAU89Pxm++XyBZcepfaumRLRT2zl1gf2NZNGk/HIcLqRnQMqR4+rpLcOnn8WsCBrpMqSGujFHcvEMdM6VCuM9NmlQlwgD+u5Rz0TXqHPUM7UGBU2gVH3jWKC0u7OhJebZx8s+IyRCP/F7tCBUirj+0VKxfc/+kOof5zzRfcsGltH/mo2bifuiIP0LCAJhPvSgJBnmzF9O3AdxYcjhGbr67CxwEt0lY8dNg3Fjh5GTiWThICU8/aEEGntgFWAqL1b4I10fOTMyZnZILOFJymeHCKkFwhcriXsJY0LY1PnCvmpE/I8C2z0jGUbChAQNiRo+QymTT7qe8M57H7tm+siySwYQIXARjAvwpH8Ei91iX33VPyPQVtX/rPfd9C9x+pf5LAwRRCkIhGnkgYtk5vpDmBEwZAaFYJUOiXnQZtd1MvfDlSS9sPf/2os5EjErRBUS7wJcxock882X8qfsmr3wIwlgVhw8vcYK0PqAp1/ZlqhvVGQjk20u708TL7U9IgmmfyvEb4UKW3fshe9UcdE/l8ou8Wmcgj8EBJGFEab+EOhfFzpUYNiYicT/KhAZNG1Yz+/5GkubhpUw4Y3ZPq4xAmHR/5u+6l+UoRQEwt/9DiC4Qm2sehQR2aW1NzJeM9tcR/b0mGToQbKBLCdoourAZi9KpEu/4SQuRCD8QIsPWoRIAR++HTTfoZUvN0wtAAKh3rzmwKnTZ42eMax4GddDRqL/CQIXeixa9jmxxBWkf9BHQLJGoVpBIKKURHgimH6QUIkrUCLRNCGM7F/y6Zcxr8Za1W/k9CDrVfGQQMj2IkTSM3Kg3+BnTW37HS/A8WBt3V3bQLs2VuMjy2tEMAYiHoBui4nE+mAQayZaFUrJEAVI3IpA6IAW4NEvTfGif1n/XCcO7DDo614gIAhEJDrKPPvq21pAm9ArCcrq1GeoIBFhBnZmxZ4gvs71YOo/CHhGr4eH+7VOCAIXWgwe8by6zqSFcW0XEAQipJBc2luzU3h6RiZMmjYvntRA6vBLNNIc882J2BPBllAUDv56Cjr3Gy5IRCSsQlzrcr2PiVunVLwitT4EQobRL0+BAwePUCtcgss7gKIVcaL9KiTJpxLWAr7jnfc/JpU/veqfrM2GOwNofwwBQSBM3DgNk6QRC6HFQ8z5cAXJvY4PNUj6C0kWSlqwhrkyULC+Qp0W3URMRBjRtOGtet8NzW3h5NI6Ff0/vK4gLBAhA/rdZ72/WE8VNOZ/oubSQ8ENTD9sSKr+rxWKCxGwYdaYl18vWP/4Gad/AUEgAkY4ipR6+plDRk+Ii1O34qNOUBfozti6a594A8NhgfCxJwaxQJQXG1hINq8de2Hwk8/7tc5oFiBB4EIBbNfdm7iO/NN/KNY3QSDiljooofsPY3Akao1A8ySaKfEUrrLflKMnYeyEd+JGs7qnkOmBPw2gJBSB9Mxc6NT3CdKaWCC0uIUQCMWzB5e4MJzAWnnX9KELp0Ahm9dBdfN6ZISL2w7fe5znRGyJ+vzH94GtFQo4hQspRPrvcN8jkHbxUqH6Z64jTfzbAYD7KhD3FghFb4WhsJQ2F4GAhMT20mhrNFfKciKRJau+IE2mYvLEyzIx3PSgu3VQH3ICEdlWhJNEeHbcNBgyaryIiwghSBCl4iWqHOMgnEyclqweGE1Yu3Gzunk9ChfSL+oZWBpRTnSZ52z+kywMNhZO7ENSSSgxaPLgj/7tYGTASCKGUhCI6MGzr02DxSvXx+aGFQQWr1gHd3ToC1t37hWTJEhg9cOaDX1v445dVQUC1PXST4nlIZhMK0HgAseaDV9Dh+6PxGGmm3UQl6WsWf8Gvu0sCzDTrqXAS5uSlris7r2Nq1qr0dehz04lps6eXVrHgaaNMrF6wJKi6gQS+ZEgOHX2H+jYawgMfrgXjBr2SJyUAQ8d0Ac/+uXXYf+hI3TqJehlxUnUv6dug+pXPLmJOgT+Y/CTL8KiZZ/qwdJEzzRYj+ifu9a+R6IqVzgPqhLWRlqxDCzUNfGNWdRtlOiD/mVuTRLBk8ICERSDoOlsXKS6VqWPpbkFaadimQjuvn+aifD46EkwadoHsUbJCtWHlp1hczUzsgwN6qecPX85sUagaVjAN+KA/l804x44dFRPIebT1TS/L1s3FX2e45yvd1cfmDzzQ6FIH4HBek3b9oBFyz+n0f72AuezJjaXdEFP+kciJ1A4sEgXzveJKoEISP9SMGub8F8IAgGuFgH/yk/66iAr7FpRCcT70HfwmBjy/fuqTyj0e3CR6P3ok9Chx6NkgxTwQhy6P6wupg9THQUyPzULxOQZC6BOy+4w64PFwhxc0KlXPfE2adOdkAh/9ezte3T9t+gGE9+aK/RfAN557yNo0rq7j/Md/Fpz/Ps5AnFugaAFdrz2Cwh2kvB1IfjCSjQX2a4x5Q2bd5GFe92mLTGgVMlN/NUJnhyKEpHIdSJs3/Mz3NNrMDz29Muw/+AR8bYC1hr4TD0B94QOPQfA1t0/uNbZSCgKtoRiRPBa16ecyFklZEMkm/75qTN/kYDW2s3/B5Pefp9UDhUwdF6rcQeY+Pa7en0TvTARN2/ZyVcL2rMZBaP498Kl7L1RdC7tYhZMmj6P6H/IyNeE/t3IMs75Ma++AWkZmcHpXyCkiNN23orRLyAvV9ve1JdYkVn7Y8ngVhIEOfG4NrL0Z8pIUGza5+kXs6HvoDHQtEFdGDnsIdpNMRrJgxtBL9AT5EEnbj/Hqf/bPFi0fC0R1NHo4Y9C00a3xtVsPXnqDKmwhxsZnlDJ4ijZdR0yH7zMUgXxc5vd8M0TPdvyj4LE/xwHafuNG9nEae8TH3OH1s1VuQN6d+sYl6sEutFQ77iBede5Rn51/csJ3BrCvxd0zqtfjcbqnvW/aMU6+HjpZ2Qt6N2tgzoGLYIOVI5W4oAdNUOj/8D3Cj5mRWRiCAJR8GTJt/tJQc6YwsqYaL8Liyp913M3NL69NowZMTCqNknc2LEKnHezn+SzHgrSIWZpdLhvF+n3MPjhPnBPm5ZQMblczJKGNRu/JpH+aDKX8pXcLUyHig+6VQr8OVgSeK16D6NfnAwdVF2jvvFrLAMJGkb3T3jjHTiVerYAnfuzbkg+znm3NUF9p7bu2EMOOrz+Y51M4JxfpApZU8Ki/2DWcIG4JxCs7gO6KySahaFlZIRjohgvgB4J7JKJAPpL4pRyiNm+Y+8hkFy+jHr6uIdIxQplLbzgXoSTp8+51pbnnslnnYCN86dJtGshaK4lVYxrB+l0+uyrb8Gzr7wBHdreSU5oeFKO9oUViQJu2ms2fgP7Dx4G1jEQT1YgybquXCL/+WsXq4Os6xD09sVui6Fsc/Fhsu8hrj3Z0Hn6pRxYsmojLF6xnrj+UOdNG9YnFgorz01/rQ1rVMGvLKBRLzwEoLsa8l3bsOcCPxaFRPtLrEaK7/rHOb/+q+2w7sutAE+/rJIIVf+N6qvEvR7Uqn5TTOgf5z6mIBMrWzj1LxCm3S0ykMGIuyi9bt261u3atVsU6YfGYKgJr88C2W6YfG2JxcGWUNwwhdHPQ9toxUifIw2OyAKhtVwmBMKRA868HO17nFqGCKJihTLQ/u47yKKNZk0zN0o0J/6svuwYk4DXqWf/JulTRIfU9050yL3kBeuQ0wkjc9yzuxAIdWFlumIZNOxn4L/FxbQD01MUWHBw0fxOPWGiHvG0xdwTQDcSo/UwuHzumqJpdyMT+f9tfv2HTudIIGpVu5HMy1rVb44ayxmzNKDuXUgDr3+ayeK+JhSoc13XYZrzisPlJIRrQZMGdcncxzHAuR8t+v9u+x6ie7QsspiPyOg/kBMnkFg5HIuvlk0zJf1WkqTx6pd/qBBDpSonmEqpkN2DiiAQ4cB36qLRvttDliMQCkcg+AWFLdZsEUkudy0pV4wLNi4cpUuXIn8OFbH4OeUwecFxg2Mv+onUM8Ss7v6ismAmdwIhhYlAKExXinf9sM9xMW2mbmiop4rJ5WmJZ3OARAH1hxkmqM/vuOwS3j1REIFgJ1QpwgTCH53jz8Q5WatGVbguuRzVfTlV91VN3bBQ/zifcW5rY/GHV/1LHjYwyUQC4aJ/NwJhjIWij0XNalXgugrlXNaHZiYTOzb/Uf/sEGKe/oMjEH/uX2POad+CBCJugyj1Otbcy+zRl6aEh2bphX3UyS/TYVB4M6bTaSwuXMErXFjw1I+ydtN3RiEsClysK1Yor/8ZF3HcPD3h5KnTcIKSAs26sKdg9kc3LdLfgp2G7VqNC/eX3zffpXedsH+tqJ8pdIEgX+mCwjJmPOmHLcTbdv8E23b94PI7cGNDotWs8W0ayWigBa1i4apAzcFojWHpuORaPc0y3Z5MPa0TL4+61BTn0T3Bux4k3g1h49wWEqdz2VuHQSViOsd5e+DwMSLuQL3XokSC6Z8fA32Mqt/oFxneunOf61gEpX+7Z/cQqekSGp0HpX+2LyjG7+DdrzgWKb/8TsTT+tC0kaZ3cuBQiUWo9Y+WhJOn/4ALF9IISbC6/n0lD/n2BYH4JRDXcRtsobFNUjjmjMQVabRrTafoi6E47flPJ4rb6YSdSGT+RKgB0/FQGLbt/tH3u2JWl8K+jyMKWsGWRP3l10/PfkdAGz5Lsh4wnZDTFfXlc5kygeqHbWz+6CXo0S5Er/msC/yiKeU/XXmzUni19Cjm6pwhLSNL17u19c9nstg8j4U3nSt+rgP+6J+3NPAnYz/GQug/CBKBlUNvvkGwBp4IxuNDx2rkvoCAgIBA+CDKvgsLBAH6BDUWXogLI+z03DitKyCDHiyv/klSqBkTT37MjOl0NylHskIaOy1J3InBzeQoSdy3KsH+Kq2zpxQt+glen8CbbSXOPCtxUeWSm9lWCtHxKy50Xpj+PZ96w6Zzv/SvWSeMX6vE4Pw3Uf9erQ+G1a3xrTUFaxAEQvOFEwLhMv+8EQgpvC+RxJkxFTnf/UguQVJ2t0A2Jf/th+9d1194T9kBYQliktzMvFbVT1j0yaeiSW46Cee9xajOA5nPIEVG5z7rH+Jo/pukfzcdK5yrqIZofuaCuO2F0azRbWL0BQQEBAR8RpPbbxFKEBYIgHva3gmlkpIg/WKmzi711ErJqZJgJXInPpcTAmfH5E6fkkRZMOklIenfwj6P+PFBvzXetBjm4i1Ro59Q6tPDsU2ByCVgx6zO/ZzPkdS5V/27/0U8zH+z5jzLajFSZxvfWkvEQAgCwZGINi1h0XKa00t6Y9Dca1nWzYBGZTMAcyubGf5CLoXDAu++exS0IvQTSn3mX9nyXYo5GU79R4E7Jqbnvxn6d3VbKA5tL+jZpZVgDG4w1YUxb968Q2b+/jFPDhQzQEBAQECgQCSXvxZ6dhYEwlIWiGXLlqWZ+fu1pky9YNZ7H7vmT2MhF8no0WBEQbs3NDKJ4kuixrvQj9C5gBiLYC0Nrpec1YGrPol7w2sjHzX1To8ePXoCjOh+y6TWmB5E6XQ6TSURE198GmpWr6LeRx4pI02EliwlQlwbTuoLo9Ur9bauSn4REBAQELAYV/CwVnNrOFb4ZJVWyVpPSohrJcV7dLoL2t3VyApP4XQjEe6EIv4IRGZm5iGz72Hdsg+gQ+uWXkZF8XituFyDD58LESJEiJDIS+FrNXj5fMD998KMiaNMZw7nzp37z4q8zPQgyqysrNQSJUo0MPMesO77onenwqLla2HCm7Mh9Y+/kI/SWYVNXGi+NV/whI8c5qOF+e+RAERLWQEBAYGImxy4GoFOl8Zj4K0Yl97bxQFNbrsFRj7+gPq1liWe5uzZs/+qX9DHnk0F6J8dnHUi/ghERkbG6SuvvNISg9S7Wwcia7/4BtZu2qJ+3QLpGdkg0aGRuCZSvJ/RvWuiInGfC/4gICAgEHn+4KlbLN9FVmMOOslILncNNLm9Ngy8/16oVa2KpR5n//79qeqXHCo8gcjjCETEXRmmE4iUlJSdFStWHGalwerQugURmKIO3KFfSQOmU6fPwbbdP5Mc6wOHfoMLFzNcZ6tLrrynzwUEBAQEIsYgvFxjRkXFctdCqaQSUKtqZahZtZIqlcnnVsXBgwfPW/G+Ir27yWDEXZSmguajY9E8VbFtdOf7n9QUajPaW2ttam3iXRYQEBCIJH1AiwPtXbHqgwlR/SzZ2dmZRYsWHUP/eI6K+3WWKpkcY4qINcISpayzsrIORflsBWdeNhEt7cdBJ7DIzhAQEBCI3FpsrLn6Ghzl+P33349QgoCCpu8LVPCaxUTkgQkZGZYgEMeOHftUzHwBAQEBAQFX/PDDD0etem+WIBArV66MagsESfuhVgctQMf09FwBAQGBOAafkBndmDNnzkHQLAwoLIgShWVhoDjdHj4isFtglOGFF144MXjw4JNXXXVVxeicq4pexRJsCXpTLtLIRrgvBAQEBCK2FutrMq7DijOqH+fMmTNnv/32238oWQBKILK4a1OzMCzTznvNmjUbxewXEBAQEBDQsHjx4h1Wvj8zCQQyJmZ+yZ06der23NzcjBigwF6uBQQEBAQivw5HJ7KysjKnT59+AAyrAwoLmMyje6ep/nK7iSPrBMP8kpOSkvLvrl27Pm/atGnPaJ6uzPMm6IOAgICAeetxtEdAbNiwYeuJEyfSIb/bIpfbQ019RLuVFDZkyJDPtm/ffmeJEiWuiXYKkf9aQEBAQCCy63B0rr9ofRgxYsRWq9+nbMLoMuHreiPL+vfnn38+tWLFipkxMX8LuhYQEBAQCP/aG6Xr7uTJk5ccP378PLU8XFQljYq32g9x58LIA8MsgwoiJRsfeOCB75o2bbq3UqVKt8YUcZAEiRAQEBAwZR2OIvz000+HX3zxxQPc/siKRyEugdELIw+ECyM/OnbsOGvLli0vXHnllddF58yF6J/FAgICAlHNIKIP58+f/69Tp06ro+V+ZRNHlwVR5lFWxUw0/x08ePDU66+/Ps7hcKSLF0JAQEBAINaBPS8GDBjw4cmTJ3EfxL4WGZxcopIFrlkYpjInM9I4mb+GpG9SyeQJhCr/TpgwYd9oFahUMbUEBAQEBGIVmZmZWX369Hl/+fLlJ8HIurhIhScSfBonX/Y4LiwQfmHq1KmnHn300Tf+/PPPVDHFBAQEBARikTz07Nnz4xUrVpyLtns3m0B4s0Yw5pW2cOHCAy1btnzhxIkTu6JDpSINQ0BAQMAaa6+1191jx479Xq1atTc+++yzE9TCwCzxmIHxL5V0MApJ5YKFclTtFhltB/dnVJKNXqPiih08ePC/66+//q0JEyY0HzFixANFihQpZrl565J+rOS/FmkYAgICAmFei93WXosuuZmZmdkffvjh1kGDBm2hh2YA12yL/yh5YPsg+x4kEJZp8CFH09wYM2bMjzVr1hyrsrWNWSrE2yIgICAgEE349ttvU26++eZZKnnYE+3PYpU0Tv4Mn8MRm/940oYM7ddff4XOnTv/Xbly5a9mzZrVuHnz5q0TExOLW8kYwV9L4n0REBAQMG0dtgLwwLtly5YfXnjhhR927dr1F7jWeGA9oM5TAWp9SKPXmH3Bd920zGNaqQ4EU0yum2KyOUVfZJ8dO3Ysr3Xr1kvV6y/eeOONO1u1alW9Vq1a1c2arp5rR/GfCzohICAgEKnjmxWCBFJTU//86KOP9qqH3QMnT55M5wjBJXqNe1o6Rxr+oddIHi5we2Kuh8O2sECEAk8++eQ+9cu+5OTkywcNGnRLmzZtKtevX7+KOZNXAVGKUkBAQMB8EmHGmrt3795ju3btOr1gwYJf9uzZw+IYcmJR21ZyYUicJYKZa7I4y4SDs0awbA2g7I2Yek6dOvXv2LFj/1TlS/WPiYMHD76hffv25WvUqHFT2bJlyxdVEa4HkCRhXRAQEBCIJ2Aw5OnTp/84cODA0fXr15+ZO3fuCc5akMftZdnc/pUOhjWd1XlgVgfeSsH/HEuePq1kgeDbfDu56xxuAJiiWeEpBJp5StHr0lQQxWb9n71z6WkbiKLweGznAUE00FRqhFh1AVvWrBD/EfFfECu6iVSlXVR00QUVqUIlSlQc8rBxXDuxk2MzU2jToJCcTxppNBo/cIa5Z+69Yx8d3YblU1iPBIW9v79fDsVE5eDg4F21Wl2vVCob29vbb4rFYn5a8WBZo7QN07KEtEePVZpmWCzsyP84QgiZiQWZ2NiBH4iBDMJ52fwvp+50Ou7FxcX11dXVbaPRcE5PT7+dn5//rNVqv0Q6JOGK9LcqcDHcBaGQhCcwBwL73Is5DVvMq4CYOWdnZ62w3B0fH3+Pm/JxEXt7e+Xd3d2NqH54eFhNjtna2lpbL2++7fW9ku68n798HXsgDGkIKUd1KeW4TvFACCGzxIBtnOGCLjCE0+6I97W6CPzRW59fl0sN3/cfqIpms9m+vLxMvALByclJM6qEIsGp1+sOLGh9EAoun/j831dSj370ZHdGLi5DT0NcIlbDUoI+iWfBjktKNGT6R21JiEPCtaLrG2a+tGmvlHfM3OqOYZrrUfP4xuycsHK5uF4YluGBphUKCIsCghBCntELMRjch6JhtPjvd5ybbqv5oX/746Pv3nlgLwyRDp2rEtmwnvUo9MCjkIiMPrT7GsGBXgfsj8mSKFbEvHogXpJVw3tFA2+DJ6WQEQ2Wol4EofBKTEIeq3FJxIoJ11KJmPGPahfXVqxCaTgopZlrSzvXHnkgrL40bXfc1zCYRUkIIbMRD2NBMPC9XCgihrbAbbfcvnPtgY0oKGwKGuxApMPouEMwmc8xbBG9bqAFwqKrOFaXD4HteN25FQ2IxVE3PV7XuQlL75HBFAhuwyCEkFkuMg3FQrEcLxbJEgsI3KkRZFShKuky60VI6hjacMDYYygke6yE52UrBqsrJq4nzKpFtxXFAyGEzF5EJLYAwwHJit8Wk/A3Luo8kX5ZE+7+Qy+CB16EHsz5bcWcj2ERnTcCz//iPp5kLNCAyRp1Xd0S6ZBHolLzMLBQQJgZ8YF9JAwCjHX1Fe0UEYQQ8jy2AOdt3dyuS4rEeRv7+GD4PY2YQHGgEwWBWJAvLUqOOUIIIYQsowdC5YX4Uz2bgGmDMrUUfXT9sR1dVahAs5m9hBBCZm8LDJEOPVuK9myCpKdo14Uh0EuhC3/o5vyF8D4skoD4179ZCn3IQ9XHEurcCCEW0D1FCCELsqhUze1ZQfCU3RCPbfVcqjmfIQxCCCGETKXSllmdqp6FyjPx4AVTGsVJrwMhhMynncN5WxWeyHoXVARPqFNAEG1OBSGEkMWBoee/hCEMQgghhEy1uiZ8ToQQsuzQ+0AIIYQQQgghhBAyN/wWYADcY7p+19k2bAAAAABJRU5ErkJggg==;" vertex="1" parent="1">
                    <mxGeometry x="296.02" y="252" width="69.95" height="31" as="geometry"/>
                </mxCell>
                <mxCell id="17" value="less" style="text;html=1;align=center;verticalAlign=middle;resizable=0;points=[];autosize=1;strokeColor=#10739e;fillColor=#244A7A;fontColor=#FFFFFF;" vertex="1" parent="1">
                    <mxGeometry x="315.5" y="290" width="31" height="18" as="geometry"/>
                </mxCell>
                <mxCell id="18" value="" style="shape=flexArrow;endArrow=classic;html=1;fillColor=#dae8fc;strokeColor=#6c8ebf;" edge="1" parent="1">
                    <mxGeometry width="50" height="50" relative="1" as="geometry">
                        <mxPoint x="378" y="267" as="sourcePoint"/>
                        <mxPoint x="441" y="267" as="targetPoint"/>
                    </mxGeometry>
                </mxCell>
                <mxCell id="19" value="负责转换less代码" style="text;html=1;align=center;verticalAlign=middle;resizable=0;points=[];autosize=1;" vertex="1" parent="1">
                    <mxGeometry x="280" y="215" width="103" height="18" as="geometry"/>
                </mxCell>
                <mxCell id="20" value="" style="shape=flexArrow;endArrow=classic;html=1;fillColor=#dae8fc;strokeColor=#6c8ebf;" edge="1" parent="1">
                    <mxGeometry width="50" height="50" relative="1" as="geometry">
                        <mxPoint x="451" y="187" as="sourcePoint"/>
                        <mxPoint x="393.5" y="141" as="targetPoint"/>
                    </mxGeometry>
                </mxCell>
            </root>
        </mxGraphModel>
    </diagram>
</mxfile>